<svg height="69" viewBox="0 0 218 69" width="218" xmlns="http://www.w3.org/2000/svg"><g fill="none" fill-rule="nonzero"><g transform="translate(29.136364 14)"><path d="m38.5523446 13.8595864c-.8777529-2.0962802-2.6332585-4.35262132-4.01701-5.05998683.9852938 1.90549133 1.6697793 3.95198093 2.029158 6.06682093v.0361428c-2.2563411-5.64343431-6.0926372-7.91526515-9.2267311-12.87198696-.1652241-.24783609-.3201217-.50083543-.4750192-.76416128-.0877753-.15489756-.1548976-.2891421-.2220198-.41306015-.1305201-.25244798-.2310275-.51931242-.2994687-.79514079.0005027-.02492616-.0168774-.04665134-.041306-.05163252-.0166239-.00635633-.0350085-.00635633-.0516325 0v.0103265c0 .01032651-.0154897 0-.0154897 0v-.0103265c-5.0186809 2.94305358-6.7277173 8.39544757-6.8826148 11.1164813-2.0084476.1393232-3.9283035.8806359-5.5091898 2.1272598-.1648954-.140031-.3372564-.2710254-.5163252-.3924071-.456936-1.600791-.4747701-3.29503447-.0516325-4.90508934-1.8484514.89501757-3.49067983 2.16449184-4.82247725 3.72786784-.80030404-1.0016708-.74350827-4.31647856-.69703901-5.00835431-.23553377.09295394-.46053522.210647-.67122274.35110113-.70235971.50021608-1.35894655 1.06177061-1.96203572 1.67805686-.68107813.6955823-1.30283218 1.44686842-1.85877068 2.24601462-1.28640731 1.8234637-2.19892742 3.8836533-2.68489098 6.0616577l-.03614277.1394078c-.03614276.1703873-.17555056 1.0533034-.19620357 1.2391804v.0516325c-.17352958.9100643-.28052003 1.8315626-.32012162 2.7571766v.103265c.01674278 10.3813828 7.96893604 19.0263429 18.31281294 19.9081601 10.3438768.8818172 19.6446511-6.2923246 21.4184104-16.5210669.0361427-.2581626.061959-.5163252.0929385-.7744877.4144788-3.4061606-.0292473-6.8618995-1.290813-10.0528515zm-23.0642462 15.660143c.0929385.0516325.1807138.103265.2736523.1394078l.0154898.0103265c-.0929386-.0481903-.1875982-.0998229-.2839789-.1548975z" fill="#529bd2"/><path d="m38.5523446 13.8595864c-.8777529-2.0962802-2.6332585-4.35262132-4.01701-5.05998683.9852938 1.90549133 1.6697793 3.95198093 2.029158 6.06682093v.0361428c-2.2563411-5.64343431-6.0926372-7.91526515-9.2267311-12.87198696-.1652241-.24783609-.3201217-.50083543-.4750192-.76416128-.0877753-.15489756-.1548976-.2891421-.2220198-.41306015-.1305201-.25244798-.2310275-.51931242-.2994687-.79514079.0005027-.02492616-.0168774-.04665134-.041306-.05163252-.0166239-.00635633-.0350085-.00635633-.0516325 0v.0103265c0 .01032651-.0154897 0-.0154897 0v-.0103265c-5.0186809 2.94305358-6.7277173 8.39544757-6.8826148 11.1164813.2323463-.0154897.4646927-.0309795.7022022-.0309795 3.6284571.0052286 6.9752356 1.9565306 8.7672018 5.1116194-1.4075353-.9727129-3.1259487-1.3885174-4.8224773-1.1668949 7.1975731 3.6039498 5.2665169 16.0060808-4.7088857 15.5310616-.887566-.0360893-1.7647217-.2049069-2.602279-.5008354-.1962036-.0688434-.3924071-.1480132-.5886107-.2375096l-.3407746-.1548975h.0154897c-.0929385-.0447482-.1875981-.0929386-.2839788-.1445711.0929385.0516325.1807138.103265.2736523.1394078-2.4422181-1.2649967-4.4610496-3.6504191-4.714049-6.5573299 0 0 .9293854-3.4335625 6.6089625-3.4335625.6195902 0 2.3750958-1.7193629 2.4164019-2.2201983-.0103265-.1548976-3.4903583-1.5489756-4.8534568-2.8810946-.7228553-.7228552-1.0687932-1.0584666-1.373425-1.3166292-.1648954-.140031-.3372564-.2710254-.5163252-.3924071-.456936-1.600791-.4747702-3.29503447-.0516325-4.90508934-1.8484514.89501757-3.49067988 2.16449184-4.8224773 3.72786784-.80030404-1.0016708-.74350827-4.31647855-.697039-5.00835431-.23553378.09295394-.46053523.21064701-.67122275.35110113-.70235971.50021609-1.35894654 1.06177062-1.96203572 1.67805687-.68107812.6955823-1.30283217 1.44686841-1.85877068 2.24601461-1.28640731 1.8234637-2.19892742 3.8836533-2.68489098 6.0616577l-.04130602.1290813c-.03614276.1703873-.20653007 1.0687931-.23234633 1.2598334-.15401211.9226308-.25229198 1.8537032-.29430536 2.7881561v.103265c.01674277 10.3813828 7.96893604 19.0263429 18.31281284 19.9081601 10.3438769.8818172 19.6446512-6.2923246 21.4184105-16.5210669.0361427-.2581626.061959-.5163252.0929385-.7744877.4144788-3.4061606-.0292473-6.8618995-1.290813-10.0528515z" fill="#236999"/></g><path d="m19.7253619 37.49169h6.3537607c.0572412-.4534065.0572412-.906813.0572412-1.3602195 0-2.1536808-.5724109-4.1373342-1.6027506-5.8376085 1.0303397-2.7204389 1.0303397-5.0441472-.4006875-6.4610424-1.3165449-1.3035437-4.8654925-1.0768405-8.9296096.6801097-.2862054 0-.5724109-.0566758-.9158574-.0566758-5.55238542 0-10.13167239 3.7406035-11.44821736 8.8414265 1.71723258-2.2103566 3.54894736-3.7972793 6.0103141-4.9307956-.22896436.2267033-1.48826826 1.4735711-1.71723262 1.7002744-6.4110017 6.3476908-8.47168084 14.679035-6.29651954 16.8327158 1.65999154 1.6435985 4.63652804 1.3602194 8.12823432-.2833791 1.6027505.7934614 3.4344652 1.2468679 5.3234211 1.2468679 5.1516978 0 9.5592614-3.2871971 11.162012-7.8779378h-6.3537607c-.8586163 1.5869227-2.5758489 2.720439-4.579287 2.720439-2.003438 0-3.6634295-1.0768405-4.57928691-2.720439-.4006876-.7367855-.62965197-1.5302469-.62965197-2.4370598zm-10.36063669-3.1171696c.17172328-2.5504115 2.28964349-4.6474165 4.97997459-4.6474165 2.63309 0 4.8082513 2.0403292 4.9799745 4.6474165zm14.71095939-9.2381572c.9158572.906813.8586161 2.5504115.1144823 4.6474165-1.316545-1.9836534-3.2055012-3.5705761-5.4951445-4.4773891 2.4041256-1.0201646 4.4075636-1.190192 5.3806622-.1700274zm-21.5226487 21.3101049c-1.14482174-1.1335162-.80137521-3.5139003.68689304-6.4043667.91585737 2.5504115 2.69033107 4.7040924 5.03721561 6.0643118-2.57584886 1.190192-4.69376908 1.3602195-5.72410865.3400549z" fill="#529bd2"/><path d="m34.0916054 68.0731789c-18.8131793 0-34.06587898-15.2138091-34.090569-33.9909358 0-.0150638 0-.0301303 0-.0451983.13512301-17.8225738 15.2657353-33.93935509 34.0940065-33.94523789 22.1908433-.00591355 35.3489955 16.73252389 34.1485845 30.02407119-.2989976 3.3106492-2.803811 13.5028525-14.7588554 15.1429288-1.2304433.1687728-10.0842465.4229575-13.3527206-3.0921983-1.1685768-1.2567484.2227398-2.0752623.3993373-2.2466893 0 0 2.4053799-3.1614607 2.11387-5.9877724-.0494207-.4783305-.4984364-8.0310658-8.54157-8.4273018-4.7028842-.2316858-8.5702075 3.7263328-8.5702075 8.4273018 0 0-.867642 11.6637834 13.5570494 17.7843623 5.4462492 2.3109454 13.1129878 3.0278379 21.3312689-.4530567 1.4977261-.6344363 1.6926903-.983503 2.377391-.4618634.7517026.5727299.0122645 1.5818081.0122645 1.5818081-6.0602626 9.4364403-16.658593 15.6897817-28.7198496 15.6897817z" fill="#243e56" transform="translate(72.969697)"/><path d="m42.6452587 20.1665878c.2079537 2.7322066-1.8234348 5.969751-1.8234348 5.969751-.176658.1712149-1.8583493 1.0018475-.6897725 2.2574839 3.2684745 3.512045 12.1222773 3.258025 13.3527206 3.0894015 11.9550444-1.6385647 14.4449914-11.8231698 14.7588554-15.1295279 1.2641556-13.31601185-11.0984348-16.23838824-33.4205954-16.23838824-18.828272 0-34.823032 1.37439106-34.823032 20.15565994 0 18.7812688 15.2633334 34.0064987 34.0916054 34.0064987 2.923919 0 5.7618653-.3671991 8.4700368-1.0578442 0 0-17.5393454 2.0248679-23.8352929-15.346605-3.4644659-9.5590469 2.1400144-26.5634413 15.3773394-26.1262738 7.776334.2568525 8.5050784 7.9408522 8.54157 8.4198441z" fill="#236999" transform="translate(72.969697 13.850901)"/><path d="m40.1996715 39.8994307c-.1766174.1715017-1.3412418 1.1166311-.1729933 2.3739273 3.2677254 3.5167482 12.1194985 3.2623923 13.3496598 3.0935459 11.9523039-1.6407911 14.4416801-11.8387997 14.7554721-15.1495287 1.263866-13.3336757-11.8270891-30.12900414-34.1441932-30.12900414-17.9336203 0-32.63237428 13.83737854-33.9826161 31.40826614-.06698659.8722925.32949669-10.5766156 14.9705057-14.713111 7.7543771-2.1907789 27.0131116.6100316 27.563803 17.251781.0939865 2.8409403-2.339638 5.8641235-2.339638 5.8641235z" fill="#529bd2" transform="translate(73.085121)"/><g transform="translate(147.136364 14)"><circle cx="21" cy="21" fill="#529bd2" r="6.972656"/><g fill="#236999"><path d="m11.7841992 18.9830156c.9262969-4.2356836 4.7062149-7.4166094 9.2158008-7.4166094h18.7737539c-.9961055-1.97752729-2.3132812-3.80444526-3.924457-5.41570307-3.9664571-3.96629297-9.24-6.15070313-14.8492969-6.15070313s-10.8828398 2.18441016-14.84929688 6.15070313c-.38144531.38144531-.74599218.77519531-1.09405078 1.1799375z"/><path d="m23.86125 29.9895586c-.9028359.2880117-1.8641602.4440352-2.86125.4440352-3.5042109 0-6.5680781-1.9206797-8.1947578-4.7645391-.0116484-.0179649-.0232149-.0358477-.034043-.0545508l-9.32498436-16.1513789c-2.24191406 3.3960937-3.44621484 7.3737891-3.44621484 11.536875 0 5.6092969 2.18441016 10.8828398 6.15070313 14.8492969 3.03868359 3.0386015 6.84493357 5.0298281 10.98119527 5.7958359z"/><path d="m27.3474961 14.0273438c1.8950039 1.7265937 3.0860976 4.213125 3.0860976 6.9726562 0 1.7356172-.4716796 3.3628711-1.2928125 4.7614219-.0083671.0160781-.0155859.0324023-.0246914.0482344l-9.3269531 16.1549062c.401707.0226406.8053008.0354375 1.2108633.0354375 5.6092969 0 10.8828398-2.1844102 14.8492969-6.1507031 3.9662929-3.9664571 6.1507031-9.24 6.1507031-14.8492969 0-2.4122109-.4050703-4.7619141-1.1809219-6.9726562z"/></g></g><g transform="translate(192.136364 23)"><path d="m8.3859375 5.45625c1.146875-1.3546875 2.628125-2.1703125 4.246875-2.1703125 3.6390625 0 6.5890625 4.125 6.5890625 9.2140625s-2.95 9.215625-6.5890625 9.215625c-1.61875 0-3.1-.8171875-4.246875-2.1703125 1.79375 2.328125 4.459375 3.8046875 7.4359375 3.8046875 1.83125 0 3.54375-.559375 5.009375-1.53125 2.5578125-2.2890625 4.16875-5.615625 4.16875-9.31875s-1.6109375-7.0296875-4.16875-9.3171875c-1.465625-.971875-3.178125-1.53125124-5.009375-1.53125124-2.9765625-.00156126-5.64375 1.47656374-7.4359375 3.80468874" fill="#91d5ff"/><path d="m12.5 0c-6.903125 0-12.5 5.596875-12.5 12.5 0 6.703125 5.278125 12.175 11.9046875 12.4859375.196875.009375.3953125.0140625.5953125.0140625 3.2 0 6.11875-1.203125 8.3296875-3.18125-1.465625.971875-3.178125 1.53125-5.009375 1.53125-2.9765625 0-5.6421875-1.4765625-7.4359375-3.8046875-1.3828125-1.63125-2.278125-4.0421875-2.3375-6.75 0-.00625 0-.58125 0-.5890625.0609375-2.70625.95625-5.11875 2.3375-6.75 1.79375-2.328125 4.459375-3.8046875 7.4359375-3.8046875 1.83125 0 3.54375.559375 5.009375 1.53125-2.1984375-1.96875-5.1-3.1703125-8.2828125-3.1828125-.015625 0-.03125 0-.046875 0z" fill="#529bd2"/></g></g></svg>