<svg width="1227" height="35" viewBox="0 0 1227 35" fill="none" xmlns="http://www.w3.org/2000/svg">
<path d="M190.696 16.2645V13.3117H187.103V8.7395H187.009L183.605 9.78717H183.512V13.2172H178.121V11.3097C178.121 10.4533 178.311 9.69033 178.688 9.31C179.068 8.834 179.633 8.64267 180.296 8.64267C180.769 8.64267 181.336 8.73833 181.904 9.02417L181.997 9.11983V6.0725H181.904C181.43 5.88233 180.769 5.78667 179.918 5.78667C178.878 5.78667 177.932 5.97683 177.082 6.454C176.23 6.93 175.569 7.59733 175.096 8.358C174.624 9.2155 174.435 10.1687 174.435 11.2163V13.3117H172.071V16.2645H174.624V28.5518H178.217V16.2645H183.605V24.0753C183.605 27.314 185.118 28.9333 188.143 28.9333C188.616 28.9333 189.183 28.8377 189.655 28.7432C190.222 28.6475 190.6 28.5518 190.79 28.3617H190.884V25.41L190.696 25.5033C190.507 25.599 190.222 25.7903 189.939 25.7903C189.694 25.863 189.438 25.895 189.183 25.8848C188.521 25.8848 187.954 25.6947 187.671 25.3132C187.386 24.9328 187.197 24.2655 187.197 23.3135V16.0743H190.696V16.2645ZM164.035 25.9805C162.712 25.9805 161.671 25.5045 161.01 24.647C160.254 23.7895 159.876 22.5517 159.876 20.9323C159.876 19.313 160.254 18.074 161.01 17.122C161.767 16.2645 162.807 15.7885 164.035 15.7885C165.265 15.7885 166.304 16.1688 166.966 17.0263C167.723 17.8838 168.007 19.1217 168.007 20.741C168.007 22.3603 167.628 23.6938 166.966 24.5513C166.399 25.5045 165.359 25.9805 164.035 25.9805ZM164.224 12.9302C161.767 12.9302 159.781 13.6932 158.363 15.1212C156.945 16.5503 156.189 18.5512 156.189 21.1225C156.189 23.5037 156.851 25.4088 158.268 26.838C159.687 28.266 161.482 28.9333 163.846 28.9333C166.304 28.9333 168.195 28.1715 169.613 26.7423C171.032 25.3132 171.788 23.3123 171.788 20.8367C171.788 18.4555 171.126 16.4547 169.802 15.1212C168.384 13.6932 166.587 12.9302 164.224 12.9302ZM150.328 12.9302C148.625 12.9302 147.207 13.4073 146.168 14.2648C145.128 15.1212 144.561 16.2645 144.561 17.6937C144.561 18.4555 144.654 19.0272 144.939 19.5988C145.128 20.1705 145.506 20.6465 145.979 21.0268C146.451 21.4083 147.207 21.8843 148.153 22.2658C149.005 22.6462 149.571 22.932 149.95 23.1233C150.328 23.3135 150.611 23.5993 150.706 23.7895C150.895 23.9797 150.895 24.2655 150.895 24.647C150.895 25.6947 150.138 26.1707 148.531 26.1707C147.852 26.1662 147.179 26.0373 146.546 25.7903C145.79 25.5045 145.128 25.2187 144.561 24.7427L144.371 24.647V28.1703H144.465C144.939 28.3617 145.601 28.6487 146.357 28.742C147.113 28.9333 147.775 28.9333 148.437 28.9333C150.233 28.9333 151.745 28.4573 152.879 27.5998C154.015 26.7423 154.487 25.599 154.487 24.1698C154.487 23.1233 154.204 22.2658 153.635 21.504C153.068 20.8367 152.029 20.1705 150.611 19.5988C149.476 19.1217 148.815 18.7413 148.437 18.4555C148.285 18.3064 148.165 18.1283 148.084 17.9319C148.003 17.7355 147.962 17.5247 147.964 17.3122C147.964 16.8362 148.153 16.5503 148.531 16.2645C148.909 15.9787 149.383 15.7885 150.043 15.7885C150.611 15.7885 151.273 15.883 151.84 16.0743C152.401 16.2703 152.94 16.5257 153.448 16.8362L153.637 16.9318V13.5975H153.542C153.164 13.4073 152.597 13.3117 151.935 13.1215C151.462 13.0258 150.895 12.9302 150.328 12.9302ZM135.106 25.9817C133.783 25.9817 132.743 25.5057 132.081 24.6482C131.325 23.7907 130.947 22.5528 130.947 20.9335C130.947 19.3142 131.325 18.0752 132.081 17.1232C132.837 16.2657 133.878 15.7897 135.106 15.7897C136.336 15.7897 137.376 16.17 138.037 17.0275C138.794 17.885 139.078 19.1228 139.078 20.7422C139.078 22.3615 138.699 23.695 138.037 24.5525C137.47 25.5057 136.431 25.9817 135.106 25.9817ZM135.296 12.9313C132.837 12.9313 130.853 13.6943 129.434 15.1223C128.017 16.5515 127.259 18.5523 127.259 21.1237C127.259 23.5048 127.922 25.41 129.34 26.8392C130.758 28.2672 132.554 28.9345 134.917 28.9345C137.376 28.9345 139.267 28.1727 140.684 26.7435C142.103 25.3143 142.859 23.3135 142.859 20.8378C142.859 18.4567 142.197 16.4558 140.873 15.1223C139.55 13.6943 137.658 12.9313 135.296 12.9313ZM121.777 15.9798V13.3117H118.184V28.5518H121.777V20.741C121.777 19.4075 122.061 18.361 122.628 17.5023C123.195 16.646 123.951 16.2657 124.897 16.2657C125.18 16.2657 125.558 16.359 125.936 16.4547C126.314 16.5503 126.598 16.646 126.788 16.8362L126.976 16.9318V13.3117H126.883C126.504 13.216 126.125 13.1215 125.464 13.1215C124.612 13.1215 123.762 13.4073 123.1 13.979C122.628 14.455 122.155 15.1235 121.777 15.9798ZM111.85 12.9313C110.244 12.9313 108.73 13.3128 107.502 13.9802C106.272 14.6463 105.327 15.6952 104.666 16.9318C104.003 18.1708 103.721 19.6945 103.721 21.3138C103.721 22.743 104.003 24.0765 104.666 25.2198C105.327 26.3632 106.178 27.3152 107.313 27.9825C108.447 28.6487 109.77 28.9345 111.189 28.9345C112.89 28.9345 114.308 28.553 115.442 27.8868V24.5525L115.253 24.6482C114.686 25.0297 114.119 25.3143 113.552 25.6002C112.89 25.7915 112.323 25.886 111.85 25.886C110.433 25.886 109.298 25.41 108.541 24.5525C107.69 23.695 107.313 22.4572 107.313 20.9335C107.313 19.4087 107.785 18.1708 108.636 17.2188C109.488 16.2657 110.622 15.7897 111.945 15.7897C113.08 15.7897 114.214 16.17 115.348 16.933L115.537 17.0275V13.5987H115.443C115.064 13.4085 114.498 13.2172 113.836 13.027C113.174 13.027 112.512 12.9313 111.85 12.9313ZM101.261 13.3128H97.6693V28.553H101.263V13.3117L101.261 13.3128ZM99.4648 6.8355C98.899 6.8355 98.3308 7.02567 97.9528 7.40717C97.5748 7.78867 97.2913 8.26467 97.2913 8.93083C97.2913 9.5025 97.4803 9.9785 97.9528 10.36C98.3308 10.7415 98.8978 10.9317 99.466 10.9317C100.033 10.9317 100.6 10.7415 100.978 10.36C101.356 9.9785 101.641 9.5025 101.641 8.93083C101.641 8.35917 101.452 7.88317 100.978 7.40717C100.6 7.02567 100.126 6.8355 99.4648 6.8355ZM90.5795 12.1695V28.553H94.1717V7.21583H89.1608L82.7325 23.0277L76.4932 7.21583H71.2933V28.5518H74.6965V12.1683H74.791L81.3138 28.5518H83.8665L90.2948 12.1683L90.5795 12.1695ZM41.3952 16.3952H25V0H41.3952V16.3952ZM59.72 16.3952H43.3248V0H59.72V16.3952ZM41.3952 34.72H25V18.3248H41.3952V34.72ZM59.72 34.72H43.3248V18.3248H59.72V34.72Z" fill="#666666"/>
<g clip-path="url(#clip0_0_3)">
<path d="M326.319 5.73999H322.311C322.095 5.73999 321.878 5.95699 321.77 6.17399L320.362 12.7808L318.953 19.3888C318.953 19.6047 318.736 19.8217 318.412 19.8217H315.596C312.779 19.8217 313.105 17.8722 313.646 15.1643V15.0558L313.755 14.7303V14.623L313.863 13.9732L313.971 13.2148C313.971 12.9978 314.079 12.6723 314.079 12.4565L314.729 9.31466L315.379 6.17399C315.379 5.95699 315.271 5.74116 315.054 5.74116H310.938C310.721 5.74116 310.504 5.95699 310.397 6.17399L309.53 10.3973L308.663 14.623L308.555 15.0558C307.581 19.7132 307.797 24.1547 313.321 24.262H322.095C322.311 24.262 322.527 24.0462 322.637 23.8303L324.478 15.0558L326.319 6.28249C326.644 5.95699 326.536 5.73999 326.319 5.73999ZM342.35 19.8217C342.567 19.8217 342.674 20.0387 342.674 20.2545L342.241 22.204M341.374 24.3717H334.009C337.258 24.479 341.374 24.3717 341.374 24.3717ZM331.627 17.3308C331.627 17.1138 331.843 16.7883 332.059 16.7883H331.518C331.301 19.0633 331.627 17.3308 331.627 17.3308Z" fill="#666666"/>
<path d="M342.35 19.8214C342.567 19.8214 342.675 20.0384 342.675 20.2542L342.242 22.2037L342.133 22.5292M275.844 17.3305L276.494 14.5142L275.736 17.6549L275.086 20.904L275.736 18.0889C275.736 17.9804 275.844 17.5464 275.844 17.3305ZM283.318 5.7397H278.878C278.661 5.7397 278.444 5.9567 278.336 6.1737L277.902 8.0147L277.47 9.85687C277.47 10.0727 277.578 10.2885 277.794 10.2885H282.235C282.452 10.2885 282.668 10.0727 282.777 9.85687L283.21 8.0147L283.644 6.1737C283.752 5.8482 283.535 5.7397 283.318 5.7397ZM269.562 31.628H273.245C272.162 31.7365 270.429 31.628 269.562 31.628Z" fill="#666666"/>
<path d="M282.126 11.4814H277.686C277.469 11.4814 277.252 11.6984 277.143 11.9154L276.493 14.7306L275.843 17.5469C275.843 17.7639 275.735 18.0894 275.628 18.3052L274.977 21.1216L274.327 23.9379C274.327 24.1549 274.219 24.4792 274.111 24.6962C274.111 24.6962 273.244 27.1871 271.836 27.1871H270.429C270.211 27.1871 269.995 27.4041 269.886 27.6211L269.454 29.5694L269.02 31.5201C269.02 31.7371 269.128 31.9529 269.345 31.9529H273.027C276.493 31.9529 278.335 30.0046 279.525 24.4792L280.935 18.0894L282.234 12.1312C282.451 11.5899 282.343 11.4814 282.126 11.4814ZM345.164 24.1549C344.949 24.1549 344.84 23.9379 344.84 23.7209L348.198 8.12373" fill="#666666"/>
<path d="M344.841 24.045V23.5048L346.466 16.0311L344.841 23.8291C344.841 24.0461 344.949 24.262 345.166 24.262H345.599C345.382 24.1546 344.949 24.1535 344.841 24.045ZM349.498 24.1546C349.391 24.1546 349.065 24.262 348.848 24.262H349.282C349.394 24.2541 349.5 24.2062 349.579 24.1269C349.659 24.0476 349.707 23.9423 349.715 23.8303L349.824 23.3963C349.824 23.6121 349.607 24.0461 349.498 24.1546ZM363.688 9.20731L363.904 9.96565C363.904 10.1815 363.796 10.3973 363.58 10.3973M351.015 17.5466C351.015 17.3308 351.123 17.0053 351.232 16.7883L351.882 13.755L351.123 17.1138L351.015 17.5466ZM348.198 7.90648C348.198 8.12348 348.09 8.34048 348.09 8.55631L346.466 16.0311L348.09 8.23198L348.198 7.90648Z" fill="#666666"/>
<path d="M363.797 9.96448L363.58 9.20615L363.363 8.44781L363.254 8.01615C362.93 6.60681 361.846 5.84848 359.572 5.84848H349.065C348.848 5.84848 348.632 6.06548 348.524 6.28248L348.307 7.04081L348.09 7.90648V8.12348L346.466 15.9226L344.841 23.3963C344.841 23.6121 344.732 23.8291 344.841 23.9376C344.841 24.0461 345.275 24.1546 345.491 24.1546H348.848C349.065 24.1546 349.391 24.1546 349.498 24.0461C349.607 24.0461 349.824 23.6121 349.824 23.2878L350.365 20.363L350.906 17.4381L351.015 17.0065L351.773 13.6476L352.423 10.6143C352.423 10.3985 352.64 10.1826 352.964 10.1826H363.471C363.796 10.3985 363.905 10.1826 363.797 9.96448Z" fill="#666666"/>
<path d="M377.336 3.14065H373.22C373.003 3.14065 372.678 3.24915 372.57 3.46615L365.097 14.406C364.988 14.623 364.88 14.5145 364.771 14.2975L364.23 11.9152C364.23 11.6982 363.904 11.4812 363.689 11.4812H358.923C358.706 11.4812 358.597 11.6982 358.597 11.9152L360.764 19.3888C360.817 19.508 360.845 19.6373 360.845 19.768C360.845 19.8987 360.817 20.0279 360.764 20.1472L359.897 23.8292C359.788 24.0462 360.005 24.262 360.222 24.262H364.988C365.204 24.262 365.421 24.0462 365.53 23.8303L366.505 20.1472C366.612 19.9302 366.721 19.6047 366.829 19.3888L378.96 3.35882C379.069 3.14065 379.069 3.03215 378.852 3.03215L377.336 3.14065ZM339.317 12.4565C339.309 12.5687 339.261 12.6743 339.181 12.7538C339.102 12.8333 338.996 12.8814 338.884 12.8893H332.817C332.602 12.8893 332.493 12.7808 332.493 12.565V12.4565C333.036 10.9398 334.227 9.85715 336.501 9.85715C338.993 9.96449 339.534 11.1568 339.317 12.4565ZM337.584 5.52415C329.785 5.52415 327.944 10.29 326.862 15.0558C325.778 19.9302 325.886 24.479 334.01 24.479H341.483C341.596 24.4714 341.702 24.4234 341.781 24.3438C341.861 24.2643 341.91 24.1585 341.917 24.0462L342.242 22.421L342.35 22.0967L342.783 20.1472C342.783 19.9302 342.675 19.7132 342.459 19.7132H335.202C332.277 19.7132 331.41 18.9548 331.735 16.6798H343.324C343.541 16.6798 343.65 16.5725 343.758 16.3555V16.247C345.382 9.85715 344.95 5.52415 337.584 5.52415ZM300.757 12.4565L300.649 12.8893L299.782 16.0312L298.915 19.1718C298.808 19.3888 298.591 19.6047 298.374 19.6047H293.717C290.252 19.6047 289.384 16.898 290.252 12.7808C291.117 8.66482 292.741 6.06549 296.207 5.84849C300.866 5.30715 301.84 8.66482 300.757 12.4565ZM303.898 19.2803C303.898 19.2803 306.065 13.972 306.606 10.9398C307.256 6.82382 305.198 0.866821 297.291 0.866821C289.384 0.866821 286.026 6.49832 284.726 12.6735C283.427 18.8463 285.16 24.3705 292.958 24.262H304.872C305.089 24.262 305.306 24.0462 305.415 23.8303L306.39 20.0387C306.497 19.8217 306.282 19.6047 306.065 19.6047H304.115C303.898 19.6047 303.79 19.4962 303.898 19.2803Z" fill="#666666"/>
<path d="M342.891 15.7056C342.887 15.7619 342.863 15.8149 342.823 15.8548C342.783 15.8947 342.73 15.9188 342.674 15.9226C342.618 15.9186 342.565 15.8943 342.526 15.8545C342.486 15.8146 342.462 15.7618 342.458 15.7056C342.462 15.6495 342.486 15.5967 342.526 15.5568C342.565 15.5169 342.618 15.4927 342.674 15.4886C342.783 15.3801 342.891 15.4886 342.891 15.7056ZM243.674 8.77331C241.508 11.9151 241.726 15.9226 243.459 19.2803C243.459 19.3888 243.566 19.3888 243.566 19.4961C243.566 19.4961 243.566 19.6046 243.674 19.6046V19.7131L243.783 19.8216C243.783 19.9301 243.891 20.0386 243.891 20.1471L244 20.2545C244.108 20.363 244.108 20.4715 244.217 20.58C244.217 20.58 244.217 20.6885 244.324 20.6885C244.433 20.797 244.541 20.9043 244.541 21.1213V21.2298C244.65 21.3383 244.65 21.4468 244.758 21.5541L244.867 21.6626C244.974 21.7711 244.974 21.8796 245.083 21.9881L245.191 22.0966L245.517 22.421L245.841 22.7465L245.949 22.855L246.166 23.0708L246.274 23.1793L246.599 23.5048H246.708C246.816 23.6121 246.925 23.7206 247.032 23.7206L247.141 23.8291C247.249 23.9376 247.358 23.9376 247.358 24.0461L247.466 24.1546C247.575 24.262 247.682 24.262 247.79 24.3705C247.79 24.3705 247.899 24.3705 247.899 24.479C248.007 24.5875 248.116 24.5875 248.224 24.696L248.332 24.8045C248.44 24.913 248.657 25.0203 248.766 25.1288C248.766 25.1288 248.874 25.1288 248.874 25.2373C248.983 25.3458 249.09 25.3458 249.199 25.4543C249.307 25.4543 249.307 25.5628 249.416 25.5628C249.524 25.5628 249.524 25.6701 249.633 25.6701H249.848C249.957 25.7786 250.065 25.7786 250.282 25.8871H250.39C250.498 25.9956 250.715 25.9956 250.824 26.1041H250.932C251.041 26.1041 251.257 26.2126 251.365 26.2126C251.474 26.32 251.691 26.32 251.798 26.32H251.906C252.015 26.32 252.232 26.4285 252.34 26.4285C262.845 28.378 265.878 20.1483 265.878 20.1483C263.279 23.506 258.729 24.3716 254.397 23.3975C254.18 23.3975 254.072 23.289 253.963 23.289H253.855C253.747 23.289 253.53 23.1805 253.422 23.1805H253.313C253.205 23.1805 252.989 23.072 252.881 23.072H252.772C252.664 22.9635 252.447 22.9635 252.339 22.8561H252.231C252.122 22.7476 252.014 22.7476 251.905 22.6391H251.797C251.689 22.6391 251.581 22.5306 251.472 22.5306C251.364 22.5306 251.364 22.4221 251.255 22.4221C251.147 22.3136 251.04 22.3136 250.931 22.2051C250.931 22.2051 250.823 22.2051 250.823 22.0978C250.714 21.9893 250.497 21.8808 250.389 21.7723C250.389 21.7723 250.281 21.7723 250.281 21.6638C250.173 21.5553 250.064 21.5553 249.956 21.448C249.956 21.448 249.847 21.448 249.847 21.3395C249.739 21.231 249.631 21.231 249.523 21.1225L249.414 21.014C249.306 20.9055 249.197 20.9055 249.089 20.7981L248.982 20.6896L248.656 20.3641L248.331 20.0398L248.223 19.9313L248.006 19.7143L247.898 19.6058L247.573 19.2815L247.248 18.956L247.139 18.8475C247.031 18.7401 247.031 18.6316 246.924 18.5231L246.815 18.4146C246.707 18.3061 246.598 18.1976 246.598 18.0903C244.217 14.8388 243.35 10.29 245.3 6.60681" fill="#666666"/>
<path d="M250.389 6.17391C248.765 8.44891 248.872 11.4822 250.173 13.8646C250.389 14.2974 250.606 14.6229 250.823 15.0557C251.04 15.3801 251.364 15.8141 251.581 16.0311L251.906 16.3554L252.014 16.4639L252.34 16.7882C252.447 16.8967 252.664 17.0052 252.773 17.1137C252.773 17.1137 252.881 17.1137 252.881 17.2222C252.99 17.3307 253.205 17.4381 253.314 17.5466C253.422 17.5466 253.422 17.6551 253.531 17.6551C253.531 17.6551 253.639 17.6551 253.639 17.7636C253.748 17.8721 253.855 17.8721 253.964 17.9806C254.072 18.0891 254.181 18.0891 254.289 18.0891H254.398C254.505 18.0891 254.505 18.1964 254.614 18.1964C254.722 18.3049 254.939 18.3049 255.048 18.4134H255.155C255.263 18.4134 255.372 18.5219 255.48 18.5219C255.48 18.5219 255.589 18.5219 255.589 18.6304C255.697 18.6304 255.806 18.7389 255.913 18.7389H256.022C256.13 18.7389 256.347 18.8462 256.456 18.8462C264.579 20.1471 266.42 13.9731 266.42 13.9731C264.688 16.3554 261.439 17.5466 257.971 16.6797C257.864 16.6797 257.647 16.5724 257.538 16.5724H257.43C257.321 16.5724 257.213 16.4639 257.106 16.4639C257.106 16.4639 256.997 16.4639 256.997 16.3554C256.889 16.3554 256.78 16.2469 256.672 16.2469H256.563C256.456 16.1384 256.239 16.1384 256.131 16.0311C256.022 16.0311 256.022 15.9226 255.913 15.9226C255.913 15.9226 255.806 15.9226 255.806 15.8141C255.697 15.8141 255.589 15.7056 255.589 15.7056H255.48C255.372 15.5971 255.263 15.5971 255.155 15.4886C255.155 15.4886 255.048 15.4886 255.048 15.3801C254.939 15.3801 254.939 15.2727 254.831 15.2727C254.722 15.1642 254.505 15.0557 254.398 14.9472C254.398 14.9472 254.289 14.9472 254.289 14.8387C252.726 13.6144 251.558 11.9568 250.932 10.0729C250.282 8.12458 250.498 5.95691 251.473 4.22441" fill="#666666"/>
<path d="M256.13 4.22331C255.155 5.63265 255.155 7.25665 255.806 8.77331C256.456 10.3985 257.864 11.5896 259.488 12.2395C259.597 12.2395 259.597 12.2395 259.705 12.348H259.814C259.922 12.348 260.029 12.4565 260.138 12.4565C264.579 13.3221 265.878 10.1815 266.205 9.64014C265.12 11.1568 263.387 11.5896 261.113 11.0483C260.896 11.0483 260.788 10.9398 260.572 10.8313C260.355 10.7228 260.138 10.6143 259.922 10.6143C259.488 10.3985 259.164 10.1826 258.838 9.96448C256.889 8.44781 255.698 5.63265 256.889 3.24915M306.714 30.7615L305.414 33.6863H304.005L304.113 30.9785L303.029 33.6851H301.621V30.7615L301.73 30.0031H302.705L302.488 32.928L303.572 30.0031H304.98L304.871 32.928L305.954 30.0031H306.821L306.714 30.7615ZM308.88 31.6283C308.989 31.0858 308.989 30.9785 308.663 30.9785H308.23L307.905 32.2781L307.472 33.6863H306.605L307.255 30.436L307.363 30.0043H308.122L308.23 30.2201C308.23 30.2201 308.663 30.0031 309.097 30.0031C309.963 30.0031 309.963 30.653 309.747 31.6283H308.88ZM311.588 29.5703C311.262 29.5703 310.938 29.4618 311.047 29.029C311.155 28.595 311.479 28.4865 311.805 28.4865C312.129 28.4865 312.455 28.595 312.346 29.029C312.238 29.4606 312.021 29.5703 311.588 29.5703ZM311.262 33.6863H310.397L310.504 32.2781L310.83 30.9785L310.288 30.87L310.397 30.1116H312.021L311.262 33.6863ZM314.837 30.87L313.754 30.9785L313.429 32.3866C313.32 32.8195 313.32 32.928 313.646 32.928H314.296L314.187 33.6863C314.187 33.6863 313.537 33.9021 313.32 33.9021C312.238 33.9021 312.238 33.3608 312.455 32.494L312.779 31.0858L312.238 30.9785L312.455 30.2201H313.105L313.429 29.2448H314.296L314.079 30.2201H315.054L314.837 30.87ZM317.004 30.87C316.571 30.87 316.245 31.0858 316.137 31.5198L317.545 31.4113C317.545 31.1943 317.545 30.87 317.004 30.87ZM316.028 32.2781C315.921 32.711 316.137 32.928 316.678 32.928H318.086L317.979 33.5778C317.979 33.5778 317.112 33.7948 316.462 33.7948C314.837 33.7948 314.837 32.928 315.054 31.9526C315.271 30.9785 315.595 30.1116 317.221 30.1116C318.737 30.1116 318.845 30.9785 318.411 32.3866H316.028V32.2781ZM321.661 33.6863H320.903L321.011 32.2781L321.552 29.5703L321.011 29.4618L321.228 28.7035H322.852L321.661 33.6863ZM324.694 30.87C324.26 30.87 323.936 31.0858 323.827 31.5198L325.236 31.4113C325.236 31.1943 325.236 30.87 324.694 30.87ZM323.719 32.2781C323.61 32.711 323.827 32.928 324.369 32.928H325.777L325.668 33.5778C325.668 33.5778 324.803 33.7948 324.152 33.7948C322.528 33.7948 322.528 32.928 322.745 31.9526C322.961 30.9785 323.286 30.1116 324.91 30.1116C326.427 30.1116 326.535 30.9785 326.102 32.3866H323.719V32.2781ZM329.893 30.9785H328.593C327.943 30.9785 327.943 31.1943 327.835 31.4113V31.6283L329.784 31.7368C329.784 31.7368 329.784 32.3866 329.676 32.711C329.569 33.2523 328.918 33.9021 327.835 33.9021C327.294 33.9021 326.427 33.6863 326.427 33.6863L326.535 32.928H327.835C328.376 32.928 328.485 32.8195 328.593 32.6025V32.3866L326.644 32.2781C326.644 32.2781 326.535 31.8441 326.644 31.3028C326.752 30.653 327.402 30.1116 328.485 30.1116C329.026 30.1116 329.893 30.3286 329.893 30.3286V30.9785ZM333.468 30.9785H332.168C331.518 30.9785 331.518 31.1943 331.41 31.4113V31.6283L333.359 31.7368C333.359 31.7368 333.359 32.3866 333.251 32.711C333.142 33.2523 332.492 33.9021 331.41 33.9021C330.868 33.9021 330.001 33.6863 330.001 33.6863L330.11 32.928H331.41C331.951 32.928 332.059 32.8195 332.168 32.6025V32.3866L330.218 32.2781C330.218 32.2781 330.11 31.8441 330.218 31.3028C330.326 30.653 330.977 30.1116 332.059 30.1116C332.601 30.1116 333.468 30.3286 333.468 30.3286V30.9785ZM334.659 34.335H333.9V33.7948C333.685 33.7948 333.468 33.5778 333.576 33.2523C333.685 32.8195 333.9 32.711 334.334 32.711C334.659 32.711 334.984 32.8195 334.876 33.2523L334.659 34.335ZM339.425 30.9785C338.883 30.9785 338.666 31.3028 338.558 31.8441C338.45 32.3866 338.45 32.8195 338.992 32.8195H339.75L340.183 30.9785H339.425ZM340.616 33.2535L340.508 33.6851H339.75L339.642 33.4693C339.642 33.4693 338.992 33.7948 338.558 33.7948C337.368 33.7948 337.368 32.8195 337.584 31.9526C337.801 30.9785 338.233 30.1116 339.425 30.1116C339.859 30.1116 340.4 30.3286 340.4 30.3286L340.833 28.812H341.7L340.616 33.2535ZM343.649 30.9785C342.999 30.9785 342.674 31.4113 342.566 31.9526C342.458 32.494 342.458 32.928 343.216 32.928C343.975 32.928 344.19 32.494 344.299 31.9526C344.407 31.3028 344.407 30.9785 343.649 30.9785ZM342.999 33.7948C341.483 33.7948 341.374 32.8195 341.591 31.9526C341.808 30.9785 342.349 30.1116 343.758 30.1116C345.274 30.1116 345.382 30.9785 345.166 31.9526C345.057 32.928 344.516 33.7948 342.999 33.7948ZM351.448 33.6863L351.556 32.2781L351.664 31.8441C351.773 31.3028 351.881 30.87 351.34 30.87H350.906C350.906 31.1943 350.906 31.4113 350.798 31.8441L350.364 33.6863H349.498L349.606 32.2781L349.715 31.8441C349.823 31.3028 349.932 30.87 349.39 30.87H349.065L348.523 33.5766H347.548L348.306 29.8946H349.065L349.173 30.1116C349.173 30.1116 349.715 29.8946 350.147 29.8946C350.473 29.8946 350.69 30.0031 350.798 30.2201C351.014 30.1116 351.448 29.8946 351.881 29.8946C353.072 29.8946 352.964 30.87 352.748 31.7368L352.314 33.5778L351.448 33.6863ZM355.239 30.9785C354.589 30.9785 354.263 31.4113 354.156 31.9526C354.048 32.494 354.048 32.928 354.806 32.928C355.564 32.928 355.78 32.494 355.889 31.9526C355.997 31.3028 355.997 30.9785 355.239 30.9785ZM354.589 33.7948C353.072 33.7948 352.964 32.8195 353.181 31.9526C353.398 30.9785 353.939 30.1116 355.347 30.1116C356.864 30.1116 356.971 30.9785 356.755 31.9526C356.647 32.928 356.106 33.7948 354.589 33.7948ZM359.355 31.6283C359.463 31.0858 359.463 30.9785 359.138 30.9785H358.705L358.379 32.2781L357.947 33.6863H357.08L357.73 30.436L357.838 30.0043H358.596L358.705 30.2201C358.705 30.2201 359.138 30.0031 359.572 30.0031C360.437 30.0031 360.437 30.653 360.222 31.6283H359.355ZM362.604 30.87C362.171 30.87 361.846 31.0858 361.737 31.5198L363.145 31.4113C363.145 31.1943 363.145 30.87 362.604 30.87ZM361.63 32.2781C361.521 32.711 361.737 32.928 362.28 32.928H363.688L363.579 33.5778C363.579 33.5778 362.712 33.7948 362.063 33.7948C360.437 33.7948 360.437 32.928 360.654 31.9526C360.871 30.9785 361.196 30.1116 362.821 30.1116C364.338 30.1116 364.446 30.9785 364.012 32.3866H361.63V32.2781ZM364.77 33.7948C364.446 33.7948 364.121 33.6863 364.229 33.2523C364.338 32.8195 364.553 32.711 364.987 32.711C365.312 32.711 365.529 32.8195 365.529 33.2523C365.42 33.6863 365.096 33.7948 364.77 33.7948Z" fill="#666666"/>
</g>
<g clip-path="url(#clip1_0_3)">
<path d="M471.5 4.00752C469.948 4.69235 468.288 5.15085 466.552 5.34802C468.351 4.28899 469.701 2.60897 470.347 0.624184C468.654 1.62108 466.804 2.32217 464.876 2.69735C464.067 1.84325 463.093 1.1634 462.012 0.699557C460.932 0.23571 459.768 -0.00234347 458.592 1.73894e-05C453.829 1.73894e-05 449.97 3.82435 449.97 8.54818C449.969 9.20494 450.046 9.8595 450.201 10.4977C446.781 10.3308 443.434 9.45018 440.374 7.91252C437.314 6.37486 434.61 4.21414 432.435 1.56918C431.671 2.87212 431.268 4.35537 431.267 5.86602C431.267 8.83752 432.789 11.4427 435.109 12.9827C433.742 12.9397 432.404 12.5739 431.206 11.9152V12.0214C431.206 16.1665 434.171 19.6094 438.122 20.4015C437.38 20.604 436.615 20.7064 435.847 20.706C435.294 20.706 434.756 20.6454 434.218 20.5543C435.309 23.9517 438.505 26.4204 442.27 26.4962C439.206 28.8719 435.438 30.1588 431.56 30.1537C430.867 30.1537 430.177 30.107 429.5 30.0312C433.449 32.5443 438.035 33.8765 442.716 33.8707C458.576 33.8707 467.243 20.8437 467.243 9.55385C467.243 9.18752 467.228 8.80718 467.212 8.44085C468.895 7.23059 470.347 5.72916 471.5 4.00752Z" fill="#666666"/>
</g>
<g clip-path="url(#clip2_0_3)">
<path d="M535.342 11.3912C532.591 12.349 531.674 15.1047 531.674 15.1047C531.33 16.0625 530.297 16.9013 529.266 16.9013H524.108C522.731 16.9013 521.586 15.7032 521.586 14.2658C521.586 12.8285 522.503 11.6303 524.108 11.6303H528.235L522.273 5.40266C521.776 4.88811 521.499 4.20092 521.499 3.48583C521.499 2.77074 521.776 2.08356 522.273 1.569C523.305 0.490998 524.91 0.490998 525.942 1.569L531.788 7.67766V3.48583C531.788 2.0485 532.935 0.850331 534.311 0.850331C535.687 0.850331 536.833 2.0485 536.833 3.48583V8.87583C536.947 10.074 536.26 11.1508 535.342 11.3912ZM534.425 34.0292C533.049 34.0292 531.904 33.0713 531.904 31.3937V27.0817L525.942 33.3117C524.91 34.3885 523.305 34.3885 522.273 33.3117C521.776 32.7971 521.499 32.1099 521.499 31.3948C521.499 30.6797 521.776 29.9926 522.273 29.478L528.12 23.3693H524.107C522.617 23.3693 521.586 22.1712 521.586 20.7338C521.586 19.2965 522.731 18.0983 524.108 18.0983H529.266C530.298 18.0983 531.331 18.817 531.674 19.776C532.591 22.6507 535.228 23.6085 535.228 23.6085C536.26 23.9678 536.947 24.9268 536.947 26.1238V31.5138C536.947 32.8322 535.802 34.0292 534.425 34.0292ZM550.819 23.3693H546.692L552.654 29.597C553.151 30.1116 553.428 30.7987 553.428 31.5138C553.428 32.2289 553.151 32.9161 552.654 33.4307C551.622 34.5087 550.017 34.5087 548.985 33.4307L543.138 27.322V31.5138C543.138 33.0713 541.992 34.1493 540.616 34.1493C539.24 34.1493 538.094 32.9512 538.094 31.5138V26.1238C538.094 25.0458 538.782 23.9678 539.699 23.6085C542.45 22.6507 543.367 19.895 543.367 19.895C543.712 18.9372 544.744 18.0983 545.775 18.0983H550.933C552.31 18.0983 553.456 19.2965 553.456 20.7338C553.457 21.0804 553.39 21.4238 553.258 21.7443C553.126 22.0648 552.931 22.3559 552.686 22.6009C552.441 22.8459 552.15 23.04 551.829 23.1719C551.509 23.3038 551.166 23.3709 550.819 23.3693ZM550.819 16.9013H545.661C544.63 16.9013 543.598 16.1827 543.254 15.2237C542.337 12.349 539.701 11.3912 539.701 11.3912C538.782 11.0318 537.981 10.0728 537.981 8.87583V3.48583C537.981 2.0485 539.127 0.850331 540.502 0.850331C541.879 0.850331 543.024 1.92833 543.024 3.48583V7.79783L548.986 1.569C550.017 0.490998 551.623 0.490998 552.654 1.569C553.151 2.08356 553.428 2.77074 553.428 3.48583C553.428 4.20092 553.151 4.88811 552.654 5.40266L546.808 11.5113H550.821C552.196 11.5113 553.342 12.7083 553.342 14.1457C553.457 15.7032 552.31 16.9013 550.819 16.9013ZM584.447 33.9988C582.399 30.0392 578.908 23.6797 576.741 20.4398H575.055V33.9988H568.674V1.00083H579.149C586.011 1.00083 590.105 4.24066 590.105 10.8405C590.105 15.3998 586.855 18.1602 583.362 19.2405C585.531 22.2388 589.744 29.5597 591.912 33.8787L584.446 33.9988H584.447ZM578.304 6.04083H575.054V15.3998H577.582C580.954 15.3998 583.482 13.9602 583.482 10.7203C583.482 7.96 581.676 6.04083 578.304 6.04083ZM605.278 33.9988H594.562V1.00083H605.76C612.141 1.00083 616.477 4.1205 616.477 9.64C616.477 13.4795 613.947 15.7603 611.419 16.7193C614.791 17.5593 617.559 19.9592 617.559 24.2793C617.559 29.919 613.105 33.9988 605.278 33.9988ZM604.916 6.04083H600.944V14.5598H604.556C607.325 14.5598 609.733 13.1202 609.733 10.1207C609.733 7.36033 608.046 6.04083 604.916 6.04083ZM604.916 19.4808H601.064V28.9588H605.159C608.409 28.9588 610.817 27.6393 610.817 24.1592C610.817 20.9193 608.408 19.4808 604.916 19.4808ZM627.554 34.2392C624.664 34.2392 621.051 33.7585 619.245 33.279L620.691 27.399C622.015 27.9998 624.905 28.9588 627.554 28.9588C630.804 28.9588 633.212 27.5192 633.212 24.7588C633.212 22.359 631.768 21.0395 627.554 19.4797C623.339 17.7997 619.847 15.7603 619.847 9.88033C619.847 4.00033 624.543 0.760498 631.527 0.760498C634.537 0.760498 637.547 1.36016 639.354 1.961L637.908 7.72083C636.703 6.99983 634.295 6.15983 631.405 6.15983C628.034 6.15983 626.469 7.47816 626.469 9.759C626.469 12.0387 628.155 12.8787 631.887 14.4385C636.945 16.5992 640.195 18.7587 640.195 24.3983C640.195 30.3985 635.259 34.238 627.553 34.238L627.554 34.2392Z" fill="#666666"/>
</g>
<g clip-path="url(#clip3_0_3)">
<path d="M747.003 24.178C747.003 23.8817 746.81 23.6553 746.416 23.5772V23.3858C746.634 23.3858 747.361 23.415 747.565 23.415C747.769 23.415 748.447 23.3858 748.667 23.3858V23.5772C748.3 23.6483 748.109 23.8665 748.109 24.178V27.9347C748.109 29.127 748.762 29.799 750.128 29.799C751.307 29.799 752.218 29.2763 752.218 28.0245V24.1628C752.218 23.8852 752.044 23.6623 751.602 23.5772V23.3858C751.764 23.3858 752.365 23.415 752.57 23.415C752.745 23.415 753.376 23.3858 753.539 23.3858V23.5772C753.112 23.6798 752.921 23.8688 752.921 24.164V27.8203C752.921 29.4607 751.969 30.4033 749.909 30.4033C747.995 30.4033 746.999 29.5318 746.999 27.9918L747.003 24.1768V24.178ZM755.227 30.1047C755.671 30.0218 755.847 29.7955 755.847 29.5178V24.3262C755.847 23.8852 755.612 23.6868 755.212 23.5772V23.3858C755.438 23.4033 755.818 23.4138 756.013 23.4138C756.225 23.4165 756.436 23.4071 756.647 23.3858L761.151 28.6825V24.1558C761.151 23.8758 760.977 23.6553 760.535 23.5678V23.3765C760.697 23.3765 761.277 23.4068 761.482 23.4068C761.688 23.4068 762.283 23.3765 762.447 23.3765V23.5678C762.017 23.6693 761.809 23.863 761.809 24.1547V30.3905H761.536C761.361 30.3508 761.041 30.1688 760.55 29.6287L756.519 24.927V29.5027C756.519 29.7815 756.679 30.002 757.12 30.0895V30.2995C756.958 30.2995 756.378 30.2692 756.173 30.2692C755.998 30.2692 755.388 30.2983 755.224 30.2983L755.227 30.1047ZM790.775 28.7035H790.964C791.054 29.085 791.279 29.4222 791.598 29.6508C791.972 29.8783 792.403 29.995 792.841 29.9892C793.747 29.9892 794.322 29.5388 794.322 28.8283C794.322 28.1178 793.587 27.7107 792.704 27.2708C792.049 26.9418 790.76 26.3993 790.76 25.1545C790.76 23.9948 791.645 23.2727 793.061 23.2727C793.994 23.2727 794.433 23.5002 795.063 23.4722L795.051 24.8792H794.857C794.605 24.0508 793.854 23.7615 793.028 23.7615C792.105 23.7615 791.76 24.2842 791.76 24.8255C791.76 25.5932 792.512 25.9805 793.364 26.3597C794.321 26.7867 795.361 27.3257 795.361 28.5262C795.361 29.6613 794.472 30.485 792.848 30.485C791.882 30.485 791.301 30.2085 790.794 30.1467L790.775 28.7035ZM811.184 27.1542V29.505C811.205 29.82 811.45 30.0732 811.763 30.1047V30.2983C811.539 30.2983 810.809 30.2692 810.597 30.2692C810.423 30.2692 809.726 30.2983 809.467 30.2983V30.107C809.621 30.0916 809.764 30.0232 809.873 29.9136C809.981 29.8039 810.048 29.6599 810.062 29.5062V27.2603M810.134 27.4342L808.301 24.4918C807.987 23.9692 807.747 23.702 807.399 23.5737V23.3823C807.649 23.3823 808.329 23.4138 808.521 23.4138C808.715 23.4138 809.429 23.3823 809.694 23.3823V23.5737C809.458 23.6157 809.345 23.7323 809.345 23.9097C809.373 24.0987 809.446 24.2772 809.557 24.4323L810.911 26.6747L812.213 24.4323C812.333 24.2538 812.411 24.0508 812.438 23.8373C812.438 23.7043 812.344 23.5947 812.12 23.5655V23.373C812.342 23.373 812.805 23.4045 812.953 23.4045C813.102 23.4045 813.632 23.373 813.852 23.373V23.548C813.35 23.751 813.039 24.192 812.734 24.703L811.067 27.4878M776.049 23.3858H780.351C780.52 23.3905 780.689 23.366 780.85 23.3147H781.038L781.009 24.7077H780.818C780.654 24.2678 780.485 23.9143 779.652 23.9143H777.788V26.3527H779.227C779.42 26.355 779.612 26.341 779.803 26.3095C779.935 26.2896 780.058 26.2283 780.153 26.1344C780.248 26.0405 780.311 25.9189 780.333 25.7868H780.525C780.511 25.9968 780.511 26.4833 780.511 26.6187C780.511 26.7552 780.525 27.2685 780.525 27.4902H780.342C780.249 27.2148 780.122 27.006 779.811 26.9302C779.622 26.8932 779.429 26.8752 779.237 26.8765H777.796V29.7325H779.82C780.707 29.7325 780.963 29.3638 781.185 28.8412L781.375 28.8843L781.185 30.3217C780.585 30.2703 779.983 30.2517 779.381 30.2622H777.235C777.027 30.2622 776.266 30.2913 776.048 30.2913V30.1C776.434 30.0265 776.661 29.8352 776.661 29.4642V24.185C776.661 23.8583 776.487 23.6623 776.049 23.5807V23.3858ZM765.064 24.2235C765.064 23.8747 764.852 23.6728 764.438 23.5842V23.394C764.669 23.394 765.415 23.4243 765.633 23.4243C765.808 23.4243 766.582 23.394 766.815 23.394V23.5842C766.403 23.6728 766.188 23.8502 766.188 24.2235V29.47C766.188 29.8177 766.4 30.016 766.815 30.1047V30.2983C766.582 30.2983 765.847 30.2692 765.633 30.2692C765.447 30.2692 764.669 30.2983 764.438 30.2983V30.107C764.86 30.0265 765.064 29.8422 765.064 29.4712V24.2235ZM797.693 24.2235C797.693 23.8747 797.48 23.6728 797.066 23.5842V23.394C797.297 23.394 798.045 23.4243 798.26 23.4243C798.442 23.4243 799.211 23.394 799.445 23.394V23.5842C799.032 23.6728 798.817 23.8502 798.817 24.2235V29.47C798.817 29.8177 799.029 30.016 799.445 30.1047V30.2983C799.212 30.2983 798.477 30.2692 798.26 30.2692C798.085 30.2692 797.297 30.2983 797.066 30.2983V30.107C797.488 30.0265 797.695 29.8422 797.695 29.4712L797.693 24.2235ZM803.675 23.415C801.318 23.415 800.94 23.3718 800.457 23.3415V24.766H800.649C800.824 24.1348 801.171 23.9878 801.631 23.9878H803.111V29.47C803.111 29.841 802.907 30.0253 802.483 30.1047V30.2983C802.716 30.2983 803.501 30.2692 803.684 30.2692C803.9 30.2692 804.639 30.2983 804.868 30.2983V30.107C804.451 30.0183 804.24 29.827 804.24 29.4712V23.9878H805.707C806.18 23.9878 806.517 24.1488 806.693 24.766H806.883V23.3427C806.403 23.3718 806.026 23.415 803.667 23.415M784.858 26.6525C785.146 26.6863 785.438 26.7015 785.728 26.698C787.022 26.698 787.429 25.9513 787.429 25.2945C787.429 24.3623 786.806 23.7848 785.674 23.7848C785.403 23.7873 785.132 23.8123 784.865 23.8595L784.858 26.6525ZM784.858 29.47C784.858 29.8177 785.082 30.016 785.498 30.1047V30.2983C785.268 30.2983 784.512 30.2692 784.299 30.2692C784.113 30.2692 783.377 30.2983 783.145 30.2983V30.107C783.53 30.0323 783.759 29.8422 783.759 29.4712V24.1687C783.759 23.8432 783.584 23.6472 783.147 23.5655V23.373C783.377 23.373 784.106 23.4033 784.312 23.4033C784.65 23.4033 785.609 23.345 785.987 23.345C787.64 23.345 788.561 24.0298 788.561 25.2C788.561 26.1217 787.875 26.7447 786.82 26.999C787.001 27.1133 787.163 27.2545 787.301 27.419C787.592 27.7667 788.38 28.8913 788.705 29.2868C789.032 29.6823 789.449 30.1245 789.897 30.1432V30.2983C789.627 30.3533 789.352 30.3826 789.076 30.3858C788.514 30.3858 788.066 30.1887 787.631 29.6613C787.255 29.2028 786.616 28.252 786.238 27.7713C786.113 27.5989 785.954 27.4537 785.771 27.3448C785.587 27.2359 785.384 27.1654 785.173 27.1378C785.067 27.12 784.962 27.1048 784.855 27.0923L784.858 29.47ZM768.473 24.2457C768.409 24.079 768.305 23.9308 768.17 23.8147C768.034 23.6985 767.872 23.6181 767.697 23.5807V23.3858C767.942 23.3858 768.792 23.4173 768.978 23.4173C769.165 23.4173 769.893 23.3858 770.145 23.3858V23.5748C769.921 23.6168 769.667 23.7498 769.667 23.9715C769.667 24.1348 769.766 24.3565 769.955 24.7765L771.735 28.8283L773.421 24.7695C773.54 24.5268 773.618 24.2643 773.651 23.9948C773.651 23.7813 773.452 23.6332 773.172 23.5748V23.3858C773.396 23.3858 773.945 23.4173 774.115 23.4173C774.285 23.4173 774.917 23.3858 775.16 23.3858V23.5807C774.74 23.6938 774.484 23.9283 774.248 24.4743L771.768 30.3217H771.205L768.473 24.2457ZM774.833 5.80183C774.546 5.16949 774.105 4.70866 773.361 4.54299V4.17899C773.825 4.17899 775.363 4.23499 775.718 4.23499C776.042 4.23499 777.533 4.17899 778.008 4.17899V4.52783C777.588 4.60949 777.103 4.84399 777.103 5.27799C777.103 5.58483 777.293 6.00949 777.647 6.80283L781.025 14.4795L784.22 6.79116C784.469 6.16933 784.655 5.69216 784.655 5.32466C784.655 4.91633 784.278 4.63866 783.748 4.52899V4.17899C784.172 4.17899 785.198 4.23499 785.524 4.23499C785.821 4.23499 787.043 4.17899 787.507 4.17899V4.52783C786.71 4.74366 786.223 5.20099 785.781 6.23933L781.079 17.3238H780.015L774.833 5.80183ZM729.355 16.891C729.97 16.7498 730.4 16.471 730.4 15.7757V5.62099C730.4 4.95366 730 4.67716 729.355 4.50799V4.14749C729.678 4.14749 731.065 4.20349 731.403 4.20349C731.793 4.20349 733.247 4.14749 733.568 4.14749V4.50916C732.955 4.64799 732.5 4.92566 732.5 5.62099V9.86649H740.072V5.61983C740.072 4.92449 739.667 4.64799 739.026 4.50799V4.14749C739.345 4.14749 740.768 4.20349 741.161 4.20349C741.497 4.20349 742.916 4.14749 743.233 4.14749V4.50916C742.621 4.64799 742.166 4.92566 742.166 5.62099V15.7827C742.166 16.45 742.593 16.73 743.233 16.898V17.2387C742.916 17.2387 741.492 17.2107 741.161 17.2107C740.775 17.2107 739.345 17.2387 739.026 17.2387V16.891C739.633 16.7498 740.072 16.471 740.072 15.7757V10.9807H732.5V15.7827C732.5 16.4792 732.925 16.73 733.568 16.898V17.2387C733.247 17.2387 731.793 17.2107 731.403 17.2107C731.065 17.2107 729.677 17.2387 729.355 17.2387V16.891ZM820.244 16.2272C820.921 16.3252 821.603 16.3718 822.286 16.3672C826.199 16.3672 828.236 14.0117 828.236 10.7287C828.236 7.32433 826.085 4.92799 822.429 4.92799C821.698 4.92506 820.968 4.97105 820.244 5.06566V16.2272ZM816.935 16.898C817.72 16.7568 818.154 16.4453 818.154 15.7278V5.62799C818.154 4.93149 817.727 4.65499 816.968 4.51499V4.15449C817.405 4.15449 818.829 4.21049 819.231 4.21049C819.868 4.21049 821.644 4.07049 823.026 4.07049C827.685 4.07049 830.514 6.67099 830.514 10.6248C830.514 14.4702 827.572 17.3192 822.769 17.3192C821.385 17.3192 819.742 17.2095 819.099 17.2095C818.71 17.2095 817.381 17.2655 816.946 17.2655L816.935 16.898ZM764.212 10.36C764.755 10.4207 765.3 10.4487 765.846 10.4417C768.296 10.4417 769.066 9.03349 769.066 7.78749C769.066 6.01999 767.887 4.92799 765.741 4.92799C765.229 4.93266 764.718 4.97933 764.212 5.06566V10.36ZM764.212 15.6917C764.212 16.3648 764.639 16.7358 765.422 16.898V17.2585C764.986 17.2585 763.561 17.2025 763.159 17.2025C762.811 17.2025 761.418 17.2585 760.978 17.2585V16.891C761.706 16.7498 762.137 16.387 762.137 15.6835V5.65599C762.137 5.03883 761.802 4.64799 760.981 4.50799V4.14749C761.418 4.14749 762.798 4.20349 763.186 4.20349C763.826 4.20349 765.642 4.09499 766.358 4.09499C769.492 4.09499 771.233 5.38999 771.233 7.60666C771.233 9.34849 769.933 10.5292 767.938 11.0133C768.278 11.2315 768.585 11.4998 768.846 11.809C769.398 12.4588 770.923 14.6428 771.54 15.3895C772.156 16.1362 772.947 16.9762 773.793 17.0147V17.3087C773.283 17.4105 772.764 17.4648 772.244 17.4708C771.176 17.4708 770.328 17.0975 769.502 16.0988C768.792 15.2273 767.547 13.3875 766.835 12.4763C766.599 12.1503 766.299 11.8759 765.953 11.6699C765.607 11.4639 765.223 11.3306 764.824 11.2782C764.625 11.2432 764.439 11.2175 764.219 11.193L764.212 15.6917ZM805.494 10.36C806.037 10.4207 806.583 10.4475 807.131 10.4417C809.581 10.4417 810.346 9.03349 810.346 7.78749C810.346 6.01999 809.168 4.92799 807.026 4.92799C806.512 4.93266 805.999 4.97933 805.494 5.06566V10.36ZM805.494 15.6917C805.494 16.3648 805.922 16.7358 806.712 16.898V17.2585C806.275 17.2585 804.852 17.2025 804.448 17.2025C804.101 17.2025 802.708 17.2585 802.267 17.2585V16.891C802.992 16.7498 803.425 16.387 803.425 15.6835V5.65599C803.425 5.03883 803.087 4.64799 802.268 4.50799V4.14749C802.708 4.14749 804.083 4.20349 804.475 4.20349C805.116 4.20349 806.932 4.09499 807.642 4.09499C810.776 4.09499 812.518 5.38999 812.518 7.60666C812.518 9.34849 811.221 10.5292 809.224 11.0133C809.564 11.2315 809.87 11.4998 810.13 11.809C810.688 12.4588 812.22 14.6428 812.827 15.3895C813.435 16.1362 814.239 16.9762 815.079 17.0147V17.3087C814.571 17.4103 814.055 17.4646 813.537 17.4708C812.466 17.4708 811.621 17.0975 810.79 16.0988C810.08 15.2273 808.84 13.3875 808.121 12.4763C807.885 12.1507 807.586 11.8766 807.24 11.6706C806.895 11.4646 806.512 11.3311 806.113 11.2782C805.912 11.2434 805.71 11.215 805.507 11.193L805.494 15.6917ZM753.577 11.998L751.488 7.13883L749.545 11.998H753.577ZM745.217 16.8933C746.045 16.6997 746.502 16.163 746.803 15.4467L750.996 5.35733C751.15 4.93983 751.28 4.51365 751.384 4.08099H752.555C752.66 4.51383 752.788 4.94083 752.94 5.36083L757.371 15.4735C757.686 16.17 758.03 16.6717 758.911 16.8933V17.2375C758.43 17.2375 756.939 17.2118 756.601 17.2118C756.26 17.2118 754.838 17.2375 754.359 17.2375V16.8898C755.004 16.7323 755.207 16.4033 755.207 16.0872C755.183 15.7765 755.099 15.4735 754.96 15.1947L754.008 13.0247H749.131L748.261 15.2063C748.146 15.4723 748.074 15.7547 748.048 16.0417C748.048 16.4057 748.238 16.695 748.97 16.8898V17.2375C748.536 17.2375 747.393 17.2118 747.124 17.2118L745.227 17.2375L745.217 16.8933ZM795.115 11.998L793.027 7.13883L791.085 11.998H795.115ZM786.768 16.891C787.595 16.6973 788.052 16.1607 788.352 15.4443L792.548 5.35499C792.702 4.93733 792.833 4.51149 792.936 4.07866H794.109C794.213 4.51149 794.34 4.93849 794.491 5.35849L798.924 15.4712C799.238 16.1677 799.583 16.6693 800.461 16.891V17.2387C799.982 17.2387 798.489 17.213 798.148 17.213C797.807 17.213 796.389 17.2387 795.911 17.2387V16.891C796.558 16.7335 796.759 16.4045 796.759 16.0883C796.735 15.7782 796.652 15.4754 796.516 15.1958L795.56 13.0258H790.685L789.814 15.2075C789.699 15.4735 789.627 15.7558 789.601 16.0428C789.601 16.4068 789.792 16.6962 790.524 16.891V17.2387C790.089 17.2387 788.946 17.213 788.675 17.213L786.779 17.2387L786.768 16.891ZM690.645 0.0699921V11.1125C691.689 29.1772 705.37 34.8903 705.37 34.8903C717.995 26.9045 719.879 16.1735 719.879 11.1137V0.0699921H690.645ZM692.686 13.7562C692.686 13.7562 692.781 12.6677 692.733 12.572C692.733 12.572 692.756 12.264 692.235 12.264C692.235 12.264 691.43 12.362 691.407 11.6492C691.407 11.6492 691.264 10.8885 692.378 10.9142C692.378 10.9142 692.727 11.0798 692.756 10.6307C692.756 10.6307 692.709 7.55066 692.733 7.31149C692.733 7.31149 692.829 7.02916 692.283 6.98249C692.283 6.98249 691.5 7.15749 691.412 6.63483C691.412 6.63483 691.363 5.85316 691.885 5.80649C691.885 5.80649 692.523 5.85316 692.643 5.68983C692.643 5.68983 692.787 5.78316 692.762 5.21383L692.786 4.24199C692.786 4.24199 692.858 3.98183 693.258 4.00633C693.258 4.00633 693.995 4.05299 694.089 3.98299C694.167 3.88499 694.238 3.78233 694.301 3.67383C694.301 3.67383 694.681 3.65049 694.753 3.74383C694.753 3.74383 695.32 4.12533 697.478 3.98183C697.478 3.98183 697.808 3.98183 697.879 4.07633C697.879 4.07633 698.282 4.38433 698.519 4.05299C698.991 3.99466 699.467 3.97949 699.942 4.00633C699.942 4.00633 701.099 4.31199 701.905 3.65866L702.167 3.70766C702.167 3.70766 702.498 4.24899 702.736 4.08333C702.736 4.08333 703.445 4.01333 703.567 4.15449C703.567 4.15449 703.801 4.50333 703.682 5.43433C703.682 5.43433 703.541 5.83799 704.227 5.83799C704.227 5.83799 705.01 5.69566 704.924 6.42716C704.924 6.42716 705.137 7.25783 703.835 7.13883C703.749 7.25699 703.699 7.39759 703.69 7.54366C703.69 7.54366 703.667 10.2422 703.645 10.5525C703.645 10.5525 703.622 10.9772 704.189 10.955C704.189 10.955 704.947 10.9037 704.97 11.5955C704.97 11.5955 705.064 12.4938 703.976 12.327C703.976 12.327 703.645 12.3772 703.596 12.5883L703.549 13.7713C703.549 13.7713 703.575 14.3663 702.908 14.2252C702.814 14.2252 699.215 14.2928 698.904 14.2007C698.904 14.2007 698.738 14.1773 698.694 14.2707C698.694 14.2707 698.43 15.1002 697.27 14.2473L693.278 14.1423C693.278 14.1423 692.756 14.3103 692.686 13.7562ZM713.01 26.0027L712.726 26.1438L712.108 26.2418C712.108 26.2418 711.849 26.264 711.826 26.712V27.5438C711.826 27.5438 711.849 28.112 711.399 28.112L710.736 28.1587C710.662 28.2052 710.579 28.2337 710.492 28.2418C710.406 28.25 710.319 28.2374 710.238 28.2053C710.238 28.2053 706.21 28.2765 706.059 28.2287L705.585 28.3243C705.585 28.3243 705.062 28.7992 704.638 28.441L704.305 28.1808C704.197 28.2042 704.086 28.2125 703.976 28.2053C703.881 28.182 699.522 28.2543 699.522 28.2543C699.522 28.2543 698.597 28.3477 698.526 28.0397C698.526 28.0397 698.409 26.8322 698.456 26.6887C698.456 26.6887 698.456 26.341 698.242 26.3107C698.242 26.3107 697.319 26.264 697.292 26.1683C697.292 26.1683 696.797 25.8195 696.945 25.4567C696.998 25.3178 697.088 25.1959 697.205 25.1041C697.322 25.0123 697.462 24.9539 697.61 24.9352C697.61 24.9352 698.368 25.0577 698.368 24.8418C698.403 24.7182 698.418 24.591 698.416 24.4638C698.416 24.4638 698.463 21.644 698.439 21.4538C698.439 21.4538 698.509 21.1062 698.2 21.1062C698.019 21.1582 697.826 21.1415 697.656 21.0595C697.656 21.0595 697.089 21.0828 696.97 20.6325C696.943 20.5466 696.933 20.4562 696.941 20.3665C696.949 20.2768 696.975 20.1895 697.017 20.1098C697.017 20.1098 697.277 19.5883 698.034 19.7622C698.034 19.7622 698.463 19.8823 698.51 19.5743L698.486 18.4345C698.486 18.4345 698.39 18.1288 698.984 17.962C698.984 17.962 699.741 18.1755 699.978 17.787C699.978 17.787 700.237 17.2655 700.449 17.6132C700.449 17.6132 700.902 18.0402 702.134 17.9947C702.134 17.9947 704.267 17.8197 704.312 17.9212C704.312 17.9212 704.835 17.9947 704.975 18.1603L705.118 18.1837C705.208 18.1457 705.283 18.0793 705.331 17.9947C705.331 17.9947 705.829 17.9457 705.9 17.8757L707.467 17.9947C707.467 17.9947 709.007 18.1125 709.67 17.6458C709.807 17.647 709.944 17.6715 710.074 17.7182C710.074 17.7182 710.405 17.7882 710.497 17.9305L711.401 17.906C711.401 17.906 711.924 18.0798 711.872 18.4053V18.8323C711.872 18.8323 711.779 19.6852 712.016 19.7307H712.712C712.712 19.7307 713.279 19.9932 713.21 20.3245C713.214 20.4604 713.167 20.5929 713.08 20.6972C712.993 20.8015 712.871 20.8706 712.737 20.8915C712.521 20.9568 712.298 20.9965 712.073 21.0105C711.97 21.1495 711.904 21.3126 711.882 21.4842L711.812 24.5887C711.812 24.5887 711.763 24.9177 712.261 24.8722C712.261 24.8722 712.995 24.8022 713.21 25.2047C713.199 25.2047 713.389 25.8918 713.01 26.0097V26.0027ZM718.059 12.3107C718.059 12.3107 717.729 12.3597 717.68 12.572L717.634 13.7585C717.634 13.7585 717.658 14.35 716.995 14.2077C716.902 14.2077 713.3 14.2777 712.991 14.1843C712.991 14.1843 712.816 14.161 712.776 14.2543C712.776 14.2543 712.517 15.085 711.358 14.231L707.377 14.1353C707.377 14.1353 706.854 14.3103 706.784 13.7585C706.784 13.7585 706.88 12.6677 706.831 12.572C706.831 12.572 706.854 12.2652 706.334 12.2652C706.334 12.2652 705.528 12.3597 705.506 11.6468C705.506 11.6468 705.363 10.8897 706.476 10.9142C706.476 10.9142 706.825 11.0798 706.854 10.6307C706.854 10.6307 706.808 7.54833 706.831 7.31383C706.831 7.31383 706.928 7.02916 706.381 6.98249C706.381 6.98249 705.599 7.15749 705.51 6.63483C705.51 6.63483 705.464 5.85316 705.985 5.80416C705.985 5.80416 706.622 5.85199 706.741 5.68516C706.741 5.68516 706.886 5.77849 706.859 5.21383L706.886 4.23966C706.886 4.23966 706.954 3.98066 707.36 4.00516C707.36 4.00516 708.092 4.05183 708.188 3.98066C708.265 3.88266 708.336 3.77883 708.4 3.67266C708.4 3.67266 708.781 3.64816 708.849 3.74383C708.849 3.74383 709.419 4.12299 711.575 3.98066C711.575 3.98066 711.907 3.98066 711.977 4.07399C711.977 4.07399 712.381 4.38316 712.617 4.05183C713.088 3.99349 713.563 3.97716 714.038 4.00516C714.038 4.00516 715.201 4.31199 716.005 3.65633L716.266 3.70299C716.266 3.70299 716.597 4.24899 716.834 4.08333C716.834 4.08333 717.545 4.01333 717.662 4.15449C717.662 4.15449 717.899 4.50333 717.781 5.43433C717.781 5.43433 717.64 5.83683 718.326 5.83683C718.326 5.83683 719.108 5.69449 719.012 6.42716C719.012 6.42716 719.226 7.25783 717.924 7.13883C717.838 7.25719 717.789 7.3978 717.781 7.54366C717.781 7.54366 717.758 10.2422 717.735 10.5525C717.735 10.5525 717.709 10.9783 718.278 10.955C718.278 10.955 719.038 10.906 719.062 11.5932C719.048 11.585 719.144 12.4845 718.054 12.3177L718.059 12.3107Z" fill="#666666"/>
<path d="M708.296 4.501C708.296 4.501 708.343 4.97466 708.343 5.096C708.343 5.215 708.273 11.9397 708.273 11.9397C708.29 12.0924 708.263 12.2468 708.196 12.385C708.129 12.5233 708.024 12.6398 707.894 12.7213C707.894 12.7213 707.775 12.768 707.754 12.4367L707.798 5.33166C707.798 5.33166 707.847 4.46133 708.296 4.501Z" fill="#666666"/>
<path fill-rule="evenodd" clip-rule="evenodd" d="M708.296 4.49982C708.296 4.49982 708.343 4.97465 708.343 5.09365C708.343 5.21149 708.273 11.9397 708.273 11.9397C708.29 12.0924 708.263 12.2468 708.196 12.385C708.129 12.5232 708.024 12.6398 707.894 12.7213C707.894 12.7213 707.775 12.768 707.752 12.4378L707.798 5.33282C707.798 5.33282 707.845 4.45199 708.296 4.49982Z" stroke="black" stroke-width="0.0116667"/>
<path d="M707.515 12.7913C707.515 12.7913 707.561 6.11216 707.538 6.00133C707.516 5.88933 707.561 6.09816 707.561 6.09816C707.561 6.09816 707.491 4.93499 707.799 4.45899C707.799 4.45899 707.704 4.05883 707.159 4.55466L707.136 5.52649C707.136 5.52649 707.136 6.07133 706.639 6.04916C706.639 6.04916 706.069 6.02583 705.81 6.28599C705.81 6.28599 705.667 6.80866 706.212 6.71416C706.212 6.71416 707.066 6.71416 707.112 7.06299L707.066 10.6412C707.066 10.6412 707.255 11.2362 706.592 11.2362C706.592 11.2362 705.783 11.186 705.81 11.6818C705.81 11.6818 705.975 12.1088 706.662 11.9677C706.662 11.9677 707.159 12.061 707.134 12.537V13.4353C707.134 13.4353 707.088 13.7947 707.561 13.8168H711.259C711.259 13.8168 711.445 13.8402 711.445 13.6033C711.445 13.6033 711.423 13.4132 711.14 13.4132L708.06 13.3665C708.06 13.3665 707.561 13.5403 707.515 12.7972" fill="#666666"/>
<path d="M708.227 12.7808C708.227 12.7808 708.131 13.1121 708.486 13.0445H710.924L711.586 13.1868C711.586 13.1868 712.274 13.0118 711.586 12.642C711.586 12.642 709.407 12.663 709.22 12.6175L708.671 12.4751C708.671 12.4751 708.438 12.3806 708.226 12.7808" fill="#666666"/>
<path fill-rule="evenodd" clip-rule="evenodd" d="M708.225 12.7808C708.225 12.7808 708.131 13.1133 708.485 13.0445H710.924L711.585 13.188C711.585 13.188 712.273 13.0141 711.585 12.6396C711.585 12.6396 709.407 12.663 709.217 12.6163C709.217 12.6163 708.766 12.4973 708.671 12.4751C708.671 12.4751 708.437 12.3806 708.225 12.7808Z" stroke="black" stroke-width="0.0116667"/>
<path d="M712.275 13.1139C712.275 13.1139 711.826 13.1139 711.849 13.7089C711.864 13.8353 711.926 13.9514 712.023 14.0342C712.119 14.117 712.244 14.1604 712.371 14.1557C712.493 14.1332 712.601 14.0636 712.673 13.962C712.744 13.8603 712.773 13.7346 712.752 13.6121C712.752 13.6121 712.49 13.0205 712.277 13.1139M712.606 12.8864C712.606 12.8864 712.819 12.6507 712.954 12.6507C712.954 12.6507 715.325 12.8631 715.723 12.5807C715.723 12.5807 716.08 12.5084 716.175 12.5807C716.175 12.5807 716.524 12.863 716.524 13.0287C716.524 13.0287 716.501 13.2434 716.073 13.122L713.254 13.1477C713.254 13.1477 712.519 13.3122 712.592 12.8864" fill="#666666"/>
<path fill-rule="evenodd" clip-rule="evenodd" d="M712.606 12.8853C712.606 12.8853 712.819 12.6485 712.963 12.6485C712.963 12.6485 715.332 12.8608 715.732 12.5773C715.732 12.5773 716.081 12.505 716.185 12.5773C716.185 12.5773 716.534 12.8608 716.534 13.0276C716.534 13.0276 716.51 13.2423 716.085 13.121L713.264 13.1478C713.264 13.1478 712.532 13.303 712.606 12.8853Z" stroke="black" stroke-width="0.0116667"/>
<path d="M712.914 13.6453C712.914 13.6453 712.914 13.4528 713.247 13.4528L716.555 13.4295C716.555 13.4295 716.863 13.6045 716.863 13.0305C716.863 13.0305 716.985 10.4475 716.995 7.60432C716.995 6.75849 717.039 5.86249 717.007 5.04582C717.007 5.04582 716.934 4.69815 716.834 4.61999C716.834 4.61999 716.834 4.23965 717.238 4.38315C717.238 4.38315 717.585 4.40649 717.499 4.95482L717.522 5.77965C717.522 5.77965 717.452 6.12732 718.089 6.04099C718.089 6.04099 718.729 6.13665 718.754 6.37115C718.754 6.37115 718.942 6.84715 718.186 6.79932H717.655C717.586 6.84389 717.533 6.90921 717.503 6.98591C717.473 7.06262 717.469 7.14677 717.49 7.22632L717.42 10.6622C717.42 10.6622 717.372 11.2525 717.941 11.2292C717.941 11.2292 718.533 11.2058 718.652 11.4042C718.652 11.4042 719.058 11.9957 718.179 11.949C718.179 11.949 717.634 11.9245 717.517 12.0202C717.517 12.0202 717.421 12.138 717.342 13.2533C717.342 13.2533 717.391 13.916 716.892 13.8437C716.892 13.8437 713.6 13.8903 713.292 13.8203C713.292 13.8203 712.961 13.916 712.912 13.6465M710.811 8.23432C710.782 8.29915 710.738 8.35616 710.683 8.40057C710.628 8.44498 710.562 8.47549 710.493 8.48955C710.423 8.5036 710.352 8.50079 710.283 8.48135C710.215 8.46191 710.153 8.42641 710.101 8.37782C710.101 8.37782 710.101 7.66615 710.078 7.14465L710.148 6.97899C710.148 6.97899 710.62 6.86115 710.718 7.00349C710.815 7.14582 711.402 7.66149 710.811 8.23432Z" fill="#666666"/>
<path d="M712.016 4.82998C712.016 4.82998 711.989 4.28515 711.589 4.26298C711.589 4.26298 709.789 4.40765 709.623 4.26298L708.911 4.07515C708.911 4.07515 708.627 4.09732 708.651 4.28515L708.58 11.8918C708.58 11.8918 708.557 12.2395 709.149 12.3165C709.149 12.3165 709.835 12.3865 709.999 12.3165C709.999 12.3165 710.451 12.292 711.612 12.3398C711.612 12.3398 711.897 12.628 711.921 12.2698C711.921 12.2698 712.109 6.11215 712.016 4.82998ZM711.595 10.2736C711.5 10.5326 711.121 10.2736 711.121 10.2736L710.267 8.94482C710.197 8.84915 710.055 9.01598 710.055 9.01598L710.008 9.75098L710.218 10.0998C710.363 10.2888 710.125 10.4335 710.125 10.4335L709.366 10.3635C709.226 10.2888 709.366 10.0543 709.366 10.0543C709.428 10.0007 709.48 9.93522 709.516 9.86173C709.553 9.78824 709.575 9.70817 709.581 9.62615L709.558 8.25415L709.581 7.25782C709.581 7.13882 709.392 6.92648 709.392 6.92648C709.226 6.90315 709.273 6.68965 709.273 6.68965C709.32 6.57182 709.721 6.64298 709.721 6.64298H710.718C711.666 6.95098 711.523 7.63698 711.523 7.63698C711.593 8.32298 710.861 8.60882 710.861 8.60882L710.811 8.98798L711.507 10.0765C711.539 10.0974 711.564 10.1271 711.58 10.1621C711.595 10.1971 711.6 10.2358 711.595 10.2736ZM715.915 4.21748C715.915 4.21748 715.894 4.00282 715.489 4.19182C715.489 4.19182 715.536 4.38315 713.286 4.30965C713.286 4.30965 712.433 4.28632 712.387 4.65848C712.387 4.65848 712.316 8.23432 712.34 8.35332L712.293 11.3598L712.197 12.4051C712.197 12.4051 712.339 12.6186 712.458 12.4763C712.458 12.4763 713.216 12.285 713.689 12.3596C713.689 12.3596 715.208 12.4996 715.513 12.2616C715.513 12.2616 715.75 12.3806 715.82 12.0015C715.82 12.0015 715.914 5.37015 715.87 5.25115C715.877 5.25815 715.968 4.30965 715.915 4.21748ZM713.999 9.91665C714.064 10.0356 714.144 10.1465 714.236 10.2468C714.236 10.4603 713.972 10.4206 713.972 10.4206L713.303 10.4463C713.088 10.423 713.158 10.1838 713.158 10.1838C713.395 10.0671 713.468 9.63898 713.468 9.63898V7.28698L713.254 6.81332C713.182 6.62432 713.656 6.60098 713.656 6.60098L713.894 6.64765C714.007 6.63605 714.12 6.65207 714.225 6.69432C714.248 6.72765 714.263 6.76553 714.269 6.80527C714.275 6.845 714.272 6.8856 714.261 6.92416C714.249 6.96273 714.23 6.9983 714.203 7.02835C714.176 7.0584 714.143 7.08218 714.106 7.09798L714.013 7.40598C713.985 7.66265 714.011 9.92598 714.011 9.92598L713.999 9.91782V9.91665ZM716.162 4.57332L716.139 12.0598C716.139 12.0598 716.327 12.7248 716.635 12.6548C716.67 12.5311 716.693 12.4028 716.705 12.2745L716.8 5.13448C716.8 5.13448 716.562 3.99932 716.162 4.56748" fill="#666666"/>
<path fill-rule="evenodd" clip-rule="evenodd" d="M716.16 4.57106L716.137 12.0587C716.137 12.0587 716.327 12.7237 716.635 12.6537C716.671 12.5301 716.694 12.4029 716.705 12.2746L716.801 5.13456C716.801 5.13456 716.563 4.00523 716.16 4.57106Z" stroke="black" stroke-width="0.0116667"/>
<path d="M710.101 8.37667C710.101 8.37667 710.101 7.66733 710.078 7.14467L710.148 6.979C710.148 6.979 710.62 6.86117 710.718 7.0035C710.815 7.14583 711.402 7.66733 710.81 8.23433C710.782 8.29916 710.738 8.35617 710.683 8.40058C710.628 8.44499 710.562 8.4755 710.493 8.48956C710.423 8.50361 710.352 8.5008 710.283 8.48136C710.215 8.46192 710.153 8.42642 710.101 8.37783V8.37667ZM705.737 27.5298C705.883 27.4537 706.047 27.4205 706.211 27.4342C706.402 27.4808 709.171 27.4108 709.171 27.4108C709.171 27.4108 710.38 27.5053 710.565 27.3385L710.847 27.2452C710.921 27.1509 710.963 27.0351 710.967 26.915C710.967 26.7237 710.99 26.0832 710.99 26.0832L711.062 25.8475C711.062 25.8475 711.039 25.6107 711.062 19.285C711.062 19.285 711.156 18.7903 710.847 18.48C710.847 18.48 710.847 18.2933 710.942 18.3062C711.038 18.3202 710.989 18.3318 710.989 18.3318C710.989 18.3318 711.416 18.2105 711.486 18.3762C711.486 18.3762 711.677 18.9432 711.51 19.2757C711.51 19.2757 711.464 19.9722 711.822 19.9722C711.941 20.0678 712.102 20.0947 712.245 20.0445C712.245 20.0445 712.861 20.1145 712.861 20.3035C712.863 20.3566 712.852 20.4093 712.829 20.4575C712.807 20.5057 712.774 20.5482 712.733 20.5817C712.692 20.6153 712.644 20.639 712.592 20.651C712.54 20.663 712.486 20.6631 712.434 20.6512L711.865 20.6978C711.753 20.7248 711.656 20.7943 711.594 20.8917C711.533 20.989 711.511 21.1065 711.535 21.2193C711.584 21.6708 711.51 24.892 711.51 24.892C711.51 24.892 711.51 25.2712 712.104 25.2397C712.104 25.2397 712.837 25.2163 712.837 25.4263C712.837 25.4263 713.027 25.9 712.507 25.9257C712.507 25.9257 711.51 25.9 711.584 26.1835C711.558 26.4461 711.518 26.707 711.464 26.9652C711.464 26.9652 711.561 27.5135 711.439 27.608C711.439 27.608 711.369 27.9148 710.73 27.8682C710.73 27.8682 706.658 27.8437 706.017 27.8903C706.017 27.8903 705.637 27.8437 705.731 27.5123M705.003 27.0783C705.111 27.0961 705.211 27.1507 705.284 27.2328C705.357 27.315 705.4 27.4199 705.405 27.5298C705.405 27.9078 705.43 28.1213 705.192 28.1692C705.133 28.1881 705.071 28.1945 705.009 28.1877C704.947 28.181 704.888 28.1613 704.834 28.1301C704.781 28.0988 704.735 28.0566 704.698 28.0063C704.662 27.9559 704.637 27.8985 704.625 27.8378C704.552 27.5298 704.671 27.1413 705.003 27.0795" fill="#666666"/>
<path d="M705.477 26.8917C705.477 26.8917 705.904 26.6047 706.069 26.6537C706.069 26.6537 708.223 26.7948 708.888 26.6782C709.553 26.5615 709.149 26.6548 709.149 26.6548C709.149 26.6548 709.717 26.6548 709.882 26.4402C709.987 26.4168 710.094 26.4647 710.143 26.5603L710.492 26.9395C710.492 26.9395 710.518 27.1752 710.114 27.1495C710.114 27.1495 706.252 27.1495 706.136 27.1752C706.136 27.1752 705.401 27.2918 705.471 26.8905" fill="#666666"/>
<path fill-rule="evenodd" clip-rule="evenodd" d="M705.475 26.8916C705.475 26.8916 705.901 26.6046 706.067 26.6525C706.067 26.6525 708.225 26.7948 708.888 26.6782C709.552 26.5615 709.149 26.6525 709.149 26.6525C709.149 26.6525 709.719 26.6525 709.882 26.4378C709.987 26.4145 710.094 26.4635 710.143 26.558L710.492 26.9395C710.492 26.9395 710.518 27.1751 710.115 27.1495C710.115 27.1495 706.254 27.1495 706.133 27.1751C706.138 27.1751 705.405 27.293 705.475 26.8916Z" stroke="black" stroke-width="0.0116667"/>
<path d="M699.863 18.4799C699.863 18.4799 700.038 18.4799 700.006 18.7657L699.957 25.9185C699.974 26.0663 699.952 26.2157 699.894 26.3525C699.836 26.4894 699.744 26.6091 699.626 26.7002C699.626 26.7002 699.413 26.9604 699.413 26.5602L699.509 19.2615C699.509 19.2615 699.53 18.7167 699.858 18.4799" fill="#666666"/>
<path fill-rule="evenodd" clip-rule="evenodd" d="M699.863 18.4799C699.863 18.4799 700.038 18.4799 700.008 18.7645L699.958 25.9185C699.974 26.0663 699.952 26.2157 699.894 26.3525C699.836 26.4894 699.744 26.6091 699.626 26.7002C699.626 26.7002 699.41 26.9604 699.41 26.5602L699.508 19.2615C699.508 19.2615 699.532 18.7167 699.863 18.4799Z" stroke="black" stroke-width="0.0116667"/>
<path d="M699.484 18.5286C699.484 18.5286 699.2 19.0513 699.225 19.1703L699.2 20.7546C699.2 20.7546 699.176 21.7731 699.2 21.8933C699.224 22.0134 699.176 24.9966 699.176 24.9966C699.176 24.9966 699.152 25.5613 699.176 25.7538V27.0313C699.176 27.0313 699.129 27.6006 699.555 27.4559C699.555 27.4559 703.723 27.3626 703.985 27.4349C703.985 27.4349 704.363 27.5049 704.224 27.6951C704.224 27.6951 704.224 27.8701 703.96 27.8129C702.717 27.9249 701.467 27.9646 700.219 27.9319C700.219 27.9319 699.035 28.0019 698.961 27.8619C698.961 27.8619 698.773 27.8386 698.773 27.1503C698.777 26.8975 698.762 26.6447 698.728 26.3943C698.728 26.3943 698.773 26.0583 698.182 25.9883C698.182 25.9883 697.353 26.1329 697.328 25.6406C697.328 25.6406 697.447 25.2918 698.253 25.3303C698.253 25.3303 698.844 25.4259 698.728 24.9511L698.798 21.4476C698.798 21.4476 698.871 20.8293 698.465 20.8048C698.299 20.7931 698.132 20.8009 697.967 20.8281C697.967 20.8281 697.281 20.8281 697.328 20.4279C697.328 20.4279 697.565 20.0021 698.253 20.0978C698.253 20.0978 698.776 20.1911 698.798 19.5996C698.798 19.5996 698.773 18.3909 699.057 18.3454C699.057 18.3454 699.652 18.3664 699.484 18.5344" fill="#666666"/>
<path d="M700.194 26.3678C700.428 26.5895 700.742 26.7097 701.064 26.7015L704.284 26.7482C704.284 26.7482 704.641 26.7715 704.618 26.9605C704.618 26.9605 704.568 27.244 704.143 27.1507L700.258 27.104L699.83 27.1297C699.83 27.1297 699.546 27.0783 700.005 26.5347L700.194 26.3678Z" fill="#666666"/>
<path fill-rule="evenodd" clip-rule="evenodd" d="M700.191 26.3674C700.428 26.5914 700.745 26.7116 701.071 26.7011L704.291 26.7477C704.291 26.7477 704.648 26.7711 704.627 26.9601C704.627 26.9601 704.577 27.2436 704.151 27.1514L700.266 27.1047L699.837 27.1281C699.837 27.1281 699.553 27.0802 700.012 26.5331L700.191 26.3674Z" stroke="black" stroke-width="0.0116667"/>
<path d="M710.143 26.0585C710.143 26.0585 710.427 26.6045 710.57 26.678C710.57 26.678 710.831 26.9848 710.76 26.44L710.807 19.6173C710.761 19.4149 710.761 19.2049 710.807 19.0025L710.523 18.4798C710.523 18.4798 710.213 18.243 710.213 18.6233L710.167 25.8963L710.143 26.0585Z" fill="#666666"/>
<path fill-rule="evenodd" clip-rule="evenodd" d="M710.142 26.0597C710.142 26.0597 710.427 26.6045 710.57 26.6803C710.57 26.6803 710.831 26.986 710.76 26.44L710.807 19.615C710.762 19.4133 710.762 19.2042 710.807 19.0025L710.523 18.4798C710.523 18.4798 710.213 18.243 710.213 18.6233L710.167 25.8963L710.142 26.0597Z" stroke="black" stroke-width="0.0116667"/>
<path d="M709.906 18.2175C709.906 18.0297 709.623 18.0075 709.623 18.0075C708.554 18.55 708.484 18.2408 708.13 18.3132C707.554 18.3605 706.974 18.3452 706.402 18.2677C706.304 18.2175 705.705 18.291 705.705 18.291C705.603 18.2968 705.505 18.3307 705.422 18.389C705.338 18.4473 705.272 18.5277 705.232 18.6212L705.207 20.1343C705.244 20.2019 705.268 20.2759 705.278 20.3525C705.628 21.3617 705.919 22.3895 706.149 23.4325C706.236 23.5912 706.347 23.7347 706.48 23.8572C706.884 23.9983 706.48 24.1173 706.48 24.1173C706.305 24.1873 705.772 24.094 705.772 24.094C705.486 24.0438 705.597 23.9517 705.597 23.9517C705.717 23.8327 705.621 23.3567 705.621 23.3567C705.571 23.1799 705.492 23.0127 705.387 22.862C705.293 22.8153 705.125 23.0358 705.125 23.0358L705.088 23.0475L705.125 24.0042C705.18 24.738 705.18 25.4742 705.125 26.2092C705.125 26.516 705.243 26.5393 705.243 26.5393C705.585 26.383 705.956 26.3037 706.332 26.3037C709.604 26.397 709.082 26.327 709.082 26.327C709.909 26.2803 709.862 25.7577 709.862 25.7577L709.813 24.5735C709.888 24.3122 709.888 20.6185 709.888 20.6185C709.81 20.2335 709.906 18.2175 709.906 18.2175ZM708.791 23.835C708.247 24.4767 707.607 23.9552 707.607 23.9552L707.42 23.9062C707.071 24.2142 707.071 23.9062 707.071 23.9062C706.999 23.1222 707.165 23.0778 707.165 23.0778C707.307 23.0288 707.427 23.2902 707.427 23.2902C707.402 23.5037 707.775 23.6938 707.775 23.6938C708.557 24.0963 708.646 23.2902 708.646 23.2902C708.695 22.841 707.96 22.4875 707.96 22.4875C706.964 22.0605 707.062 21.3955 707.062 21.3955C707.054 21.2734 707.073 21.151 707.117 21.0367C707.16 20.9224 707.228 20.819 707.316 20.7335C707.404 20.6479 707.508 20.5823 707.624 20.5411C707.739 20.4999 707.862 20.4841 707.984 20.4948C708.054 20.6115 708.362 20.4948 708.362 20.4948C708.695 20.2323 708.743 20.4948 708.743 20.4948L708.788 20.8437C708.835 21.2718 708.646 21.2718 708.646 21.2718C708.501 21.184 708.372 21.0715 708.266 20.9393C707.629 20.559 707.463 21.2718 707.463 21.2718C707.58 21.6743 708.102 21.9135 708.102 21.9135C708.442 22.071 708.736 22.316 708.953 22.6228C709.385 23.2902 708.79 23.835 708.79 23.835H708.791ZM704.528 22.3417L704.67 22.5808C704.67 22.5808 705.051 22.6042 705.193 22.6042C705.335 22.6042 705.368 22.4875 705.368 22.365C705.298 22.0842 705.211 21.808 705.108 21.5378L704.988 21.3955L704.73 21.5588C704.695 21.679 704.528 22.3417 704.528 22.3417ZM704.889 23.0615C704.881 23.0588 704.875 23.0544 704.87 23.0487C704.864 23.043 704.86 23.0362 704.858 23.0288C704.836 22.9332 704.672 22.8422 704.672 22.8422C704.385 22.8422 704.268 23.5492 704.268 23.5492C704.434 24.1418 704.268 24.045 704.268 24.045C704.128 24.2375 703.675 24.0963 703.675 24.0963C703.462 24.045 703.606 23.8805 703.606 23.8805C703.686 23.86 703.759 23.8184 703.816 23.7601C703.874 23.7018 703.915 23.6289 703.935 23.5492C704.056 23.3742 704.807 20.3058 704.807 20.3058L704.843 20.2242L704.831 20.1868L704.854 18.7203C704.843 18.6515 704.819 18.5855 704.783 18.5261C704.746 18.4667 704.698 18.4152 704.642 18.3745C704.585 18.3339 704.521 18.305 704.454 18.2894C704.386 18.2739 704.315 18.272 704.247 18.284C703.938 18.1883 702.73 18.284 702.73 18.284C702.359 18.3238 701.985 18.3159 701.616 18.2607C700.833 18.3773 700.694 18.1148 700.694 18.1148C700.29 17.9737 700.29 18.2105 700.29 18.2105C700.335 18.3966 700.351 18.5887 700.339 18.7798C700.385 18.97 700.314 20.6045 700.314 20.6045C700.265 20.7678 700.314 22.5447 700.314 22.5447C700.385 22.666 700.265 25.9105 700.265 25.9105C700.339 26.3387 701.167 26.313 701.167 26.313C701.26 26.4087 704.302 26.3387 704.302 26.3387C704.801 26.551 704.824 26.313 704.824 26.313C704.945 25.6037 704.81 24.2235 704.848 23.9178C704.879 23.6343 704.892 23.3473 704.889 23.0615ZM703.377 21.0875C703.309 21.0549 703.249 21.0087 703.2 20.9516C703.151 20.8946 703.115 20.828 703.093 20.7562C703.093 20.7562 702.785 20.5812 702.761 21.1353C702.761 21.1353 702.832 22.8877 702.761 23.1245L702.737 23.5037C702.787 23.6377 702.868 23.7575 702.975 23.8525C702.975 23.8525 703.093 24.1827 702.8 24.1605C702.557 24.1378 702.312 24.1292 702.068 24.1348C702.068 24.1348 701.735 24.1348 702.068 23.7113C702.159 23.5273 702.192 23.3195 702.161 23.1163C702.161 23.1163 702.161 21.1283 702.21 21.0105C702.21 21.0105 702.257 20.7492 702.09 20.678L701.805 20.7013L701.456 21.0327C701.456 21.0327 701.385 21.3815 701.218 21.0105V20.8192L701.434 20.251L701.574 20.2277C701.699 20.3093 701.834 20.3735 701.977 20.4178H703.092L703.493 20.2265C703.493 20.2265 703.668 20.251 703.613 20.4633C703.606 20.4703 703.675 21.0175 703.377 21.0875Z" fill="#666666"/>
<path d="M705.192 22.6042C705.051 22.6042 704.669 22.5808 704.669 22.5808L704.526 22.3428C704.526 22.3428 704.701 21.679 704.718 21.5588L704.975 21.3955L705.095 21.5378C705.199 21.8085 705.285 22.085 705.355 22.3662C705.356 22.4875 705.332 22.6042 705.192 22.6042ZM694.204 4.50099C694.204 4.50099 694.251 4.97466 694.251 5.09366C694.251 5.21149 694.18 11.9397 694.18 11.9397C694.197 12.0926 694.17 12.2472 694.103 12.3856C694.035 12.5239 693.93 12.6404 693.799 12.7213C693.799 12.7213 693.682 12.768 693.657 12.4378L693.706 5.33283C693.706 5.33283 693.753 4.46133 694.204 4.50099Z" fill="#666666"/>
<path fill-rule="evenodd" clip-rule="evenodd" d="M694.204 4.50099C694.204 4.50099 694.252 4.97466 694.252 5.09366C694.252 5.21149 694.18 11.9397 694.18 11.9397C694.197 12.0926 694.171 12.2474 694.103 12.3859C694.036 12.5243 693.931 12.6407 693.799 12.7213C693.799 12.7213 693.682 12.7703 693.657 12.4402L693.704 5.33166C693.704 5.33166 693.753 4.45432 694.204 4.50099Z" stroke="black" stroke-width="0.0116667"/>
<path d="M693.421 12.7911C693.421 12.7911 693.468 6.11196 693.444 6.00113C693.421 5.88913 693.468 6.09563 693.468 6.09563C693.468 6.09563 693.399 4.93596 693.706 4.46113C693.706 4.46113 693.61 4.05863 693.064 4.55446L693.044 5.5263C693.044 5.5263 693.044 6.07113 692.544 6.04896C692.544 6.04896 691.977 6.02563 691.715 6.28813C691.715 6.28813 691.572 6.80963 692.118 6.71396C692.118 6.71396 692.97 6.71396 693.017 7.0628L692.971 10.641C692.971 10.641 693.161 11.2325 692.497 11.2325C692.497 11.2325 691.691 11.1881 691.715 11.6851C691.715 11.6851 691.881 12.1121 692.568 11.9698C692.568 11.9698 693.065 12.0631 693.044 12.5356V13.4375C693.044 13.4375 692.993 13.7945 693.467 13.8155H697.164C697.164 13.8155 697.354 13.8388 697.354 13.6008C697.354 13.6008 697.329 13.4141 697.045 13.4141L693.974 13.3605C693.974 13.3605 693.472 13.5261 693.427 12.7911" fill="#666666"/>
<path d="M694.061 12.8403C694.061 12.8403 693.974 13.1728 694.322 13.0993H696.76L697.423 13.2405C697.423 13.2405 698.12 13.0771 697.423 12.6956C697.423 12.6956 695.244 12.7213 695.054 12.6746L694.51 12.537C694.51 12.537 694.273 12.4436 694.061 12.845" fill="#666666"/>
<path fill-rule="evenodd" clip-rule="evenodd" d="M694.061 12.8403C694.061 12.8403 693.974 13.1752 694.322 13.0993H696.76L697.423 13.2428C697.423 13.2428 698.12 13.0772 697.423 12.6957C697.423 12.6957 695.244 12.7213 695.054 12.6723C695.054 12.6723 694.604 12.5557 694.509 12.5323C694.51 12.537 694.272 12.439 694.061 12.8403Z" stroke="black" stroke-width="0.0116667"/>
<path d="M698.112 13.1729C698.112 13.1729 697.662 13.1729 697.684 13.762C697.714 14.0245 697.941 14.2217 698.207 14.2147C698.329 14.1914 698.437 14.1213 698.508 14.0193C698.58 13.9173 698.608 13.7915 698.588 13.6687C698.588 13.6687 698.327 13.0772 698.114 13.1729M698.443 12.9349C698.443 12.9349 698.653 12.698 698.791 12.698C698.791 12.698 701.159 12.9115 701.562 12.628C701.562 12.628 701.911 12.5569 702.011 12.628C702.011 12.628 702.36 12.9115 702.36 13.0772C702.36 13.0772 702.337 13.2919 701.912 13.1729L699.093 13.1962C699.093 13.1962 698.358 13.37 698.429 12.9349" fill="#666666"/>
<path fill-rule="evenodd" clip-rule="evenodd" d="M698.441 12.9349C698.441 12.9349 698.655 12.6957 698.79 12.6957C698.79 12.6957 701.158 12.9115 701.561 12.628C701.561 12.628 701.909 12.5569 702.011 12.628C702.011 12.628 702.36 12.9115 702.36 13.0772C702.36 13.0772 702.337 13.293 701.911 13.1729L699.09 13.1962C699.09 13.1962 698.37 13.3607 698.441 12.9349Z" stroke="black" stroke-width="0.0116667"/>
<path d="M698.821 13.6454C698.821 13.6454 698.821 13.4564 699.152 13.4564L702.471 13.433C702.471 13.433 702.778 13.5964 702.778 13.0305C702.778 13.0305 702.899 10.4464 702.909 7.60203C702.909 6.75853 702.951 5.86953 702.919 5.04703C702.919 5.04703 702.848 4.69703 702.744 4.62003C702.744 4.62003 702.744 4.23969 703.149 4.38436C703.149 4.38436 703.496 4.40769 703.408 4.95019L703.431 5.78086C703.431 5.78086 703.361 6.12969 704 6.04103C704 6.04103 704.638 6.13669 704.662 6.37353C704.662 6.37353 704.853 6.84719 704.096 6.79936H703.552C703.481 6.84262 703.426 6.90736 703.395 6.98417C703.363 7.06098 703.357 7.14583 703.377 7.22636L703.307 10.6599C703.307 10.6599 703.258 11.2525 703.829 11.2292C703.829 11.2292 704.421 11.2059 704.538 11.4042C704.538 11.4042 704.942 11.9957 704.064 11.949C704.064 11.949 703.52 11.9245 703.401 12.019C703.401 12.019 703.307 12.138 703.227 13.251C703.227 13.251 703.273 13.9149 702.778 13.8437C702.778 13.8437 699.484 13.888 699.176 13.8192C699.176 13.8192 698.844 13.9149 698.797 13.6535M697.921 4.83236C697.921 4.83236 697.897 4.28753 697.493 4.26303C697.493 4.26303 695.694 4.40536 695.528 4.26303L694.817 4.07286C694.817 4.07286 694.533 4.09619 694.555 4.28753L694.497 11.8919C694.497 11.8919 694.471 12.2395 695.064 12.3165C695.064 12.3165 695.76 12.3865 695.916 12.3165C695.916 12.3165 696.364 12.2932 697.526 12.3399C697.526 12.3399 697.811 12.6245 697.834 12.2699C697.825 12.2699 698.015 6.10986 697.921 4.83236ZM697.355 7.27069C697.355 7.27069 696.832 9.56669 696.552 10.0369C696.552 10.0369 696.506 10.5129 696.101 10.1337C696.101 10.1337 695.177 7.22053 695.13 7.12603L694.821 6.91136C694.821 6.91136 694.634 6.65236 694.964 6.62786L695.835 6.65236C695.835 6.65236 696.117 6.88686 695.739 7.15169C695.739 7.15169 695.786 7.52969 696.284 8.97169C696.284 8.97169 696.425 9.51653 696.591 9.11403L697.066 7.43286L696.934 6.94286C696.934 6.94286 696.791 6.70603 697.005 6.68386C697.005 6.68386 697.503 6.63719 697.573 6.82386L697.355 7.26836V7.27069Z" fill="#666666"/>
<path d="M702.066 4.57106L702.043 12.0587C702.043 12.0587 702.234 12.7214 702.543 12.6526C702.579 12.5277 702.602 12.4006 702.613 12.2711L702.708 5.13106C702.708 5.13106 702.472 3.99473 702.067 4.56406" fill="#666666"/>
<path d="M702.066 4.57106L702.043 12.0587C702.043 12.0587 702.234 12.7214 702.543 12.6526C702.579 12.5277 702.602 12.4006 702.613 12.2711L702.708 5.13106C702.708 5.13106 702.472 3.99473 702.067 4.56406" stroke="black" stroke-width="0.0116667"/>
<path fill-rule="evenodd" clip-rule="evenodd" d="M702.066 4.57085L702.043 12.0585C702.043 12.0585 702.234 12.7212 702.543 12.6523C702.579 12.5275 702.602 12.4003 702.613 12.2708L702.708 5.13085C702.708 5.13085 702.47 4.00501 702.066 4.57085Z" stroke="black" stroke-width="0.0116667"/>
<path d="M701.828 4.18833C701.828 4.18833 701.806 3.97366 701.406 4.16149C701.406 4.16149 701.451 4.35283 699.201 4.28166C699.201 4.28166 698.348 4.25833 698.301 4.63049C698.301 4.63049 698.229 8.20633 698.252 8.32649L698.207 11.3365L698.111 12.3807C698.111 12.3807 698.251 12.5965 698.373 12.4542C698.373 12.4542 699.13 12.2652 699.603 12.3352C699.603 12.3352 701.12 12.4787 701.428 12.2395C701.428 12.2395 701.664 12.3585 701.736 11.9782C701.736 11.9782 701.829 5.34799 701.783 5.22899C701.783 5.22433 701.877 4.28166 701.829 4.18833H701.828ZM700.293 10.4043C698.566 10.381 698.779 10.2293 698.779 10.2293C698.604 10.206 698.851 9.89916 698.851 9.89916L698.919 9.71133L698.945 7.20066C698.946 7.17261 698.94 7.14482 698.928 7.11964C698.915 7.09446 698.897 7.07263 698.874 7.05599C698.838 7.0465 698.805 7.0298 698.775 7.0069C698.746 6.98401 698.721 6.95539 698.703 6.92278C698.685 6.89017 698.674 6.85424 698.671 6.81718C698.667 6.78012 698.671 6.74269 698.682 6.70716L699.321 6.63716C699.417 6.73166 700.223 6.61383 700.223 6.61383C700.343 6.56716 700.412 6.73166 700.412 6.73166L700.532 7.13533C700.412 7.46783 700.293 7.18199 700.293 7.18199C700.247 7.03966 699.77 6.94633 699.77 6.94633C699.367 6.89733 699.423 7.48883 699.423 7.48883C699.361 7.72191 699.386 7.96959 699.494 8.18533C699.896 8.35099 700.039 8.06866 700.039 8.06866C700.062 7.97299 700.275 7.99633 700.275 7.99633C700.45 8.23433 700.275 8.61116 700.275 8.61116C700.204 8.73133 699.753 8.44783 699.753 8.44783C699.349 8.42099 699.374 8.68116 699.374 8.68116V9.72649C699.393 9.86213 699.461 9.98611 699.565 10.0753C700.415 10.1932 700.487 9.81516 700.487 9.81516C700.725 9.36483 700.795 9.67283 700.795 9.67283C700.958 10.521 700.293 10.4043 700.293 10.4043Z" fill="#666666"/>
</g>
<path d="M938.329 26.8974H934.641C934.624 26.8974 934.614 26.8951 934.605 26.8834L931.425 23.0567L928.246 26.8834C928.239 26.8951 928.228 26.8974 928.211 26.8974H925.26C925.241 26.8974 925.227 26.8892 925.213 26.8706C925.209 26.8589 925.209 26.8379 925.221 26.8239L929.901 21.1586L925.275 15.5469C925.269 15.5393 925.265 15.5304 925.264 15.5211C925.263 15.5117 925.263 15.5022 925.267 15.4932C925.275 15.4839 925.293 15.4676 925.309 15.4676H928.998C929.009 15.4676 929.022 15.4734 929.033 15.4909L931.821 18.8952L934.657 15.4886C934.66 15.4822 934.665 15.4769 934.672 15.4732C934.678 15.4695 934.685 15.4676 934.692 15.4676H937.7C937.717 15.4676 937.735 15.4839 937.742 15.4932C937.746 15.5019 937.747 15.5114 937.746 15.5209C937.745 15.5303 937.742 15.5393 937.736 15.5469L933.345 20.7444L938.36 26.8251C938.373 26.8367 938.378 26.8589 938.368 26.8706C938.365 26.8785 938.359 26.8852 938.352 26.89C938.345 26.8948 938.337 26.8973 938.329 26.8974ZM958.289 17.4824C956.656 17.4824 955.54 18.4589 955.221 20.1564H960.778V20.0479C960.778 18.6887 959.763 17.4824 958.289 17.4824ZM963.643 21.8982C963.638 21.9046 963.632 21.9099 963.626 21.9135C963.619 21.9172 963.611 21.9191 963.603 21.9192H955.162C955.337 23.8559 956.614 24.9596 958.68 24.9596C959.952 24.9596 961.303 24.5314 963.211 23.5304C963.246 23.5117 963.281 23.5409 963.281 23.5771L963.278 26.1344C963.274 26.1566 963.265 26.1694 963.25 26.1741C961.474 26.9114 959.691 27.4142 958.289 27.4142C954.654 27.4142 952.019 24.8032 952.019 21.2076C952.019 17.6131 954.654 15.0021 958.289 15.0021C961.605 15.0021 963.735 17.2047 963.735 20.2334C963.735 20.7234 963.651 21.8621 963.643 21.8982ZM980.789 13.1074C979.755 13.1074 978.911 12.2907 978.911 11.2851C978.911 10.2491 979.755 9.4114 980.789 9.4114C981.287 9.41109 981.764 9.60821 982.117 9.95949C982.469 10.3108 982.668 10.7875 982.669 11.2851C982.669 12.2907 981.824 13.1074 980.789 13.1074ZM979.273 26.8974C979.244 26.8974 979.226 26.8799 979.226 26.8507V15.5142C979.226 15.4909 979.242 15.4746 979.261 15.4687H982.311C982.322 15.4702 982.332 15.4758 982.339 15.4845C982.346 15.4931 982.35 15.5042 982.349 15.5154V26.8496C982.349 26.8787 982.329 26.8962 982.304 26.8962H979.274L979.273 26.8974ZM943.904 25.1917C943.309 25.1866 942.717 25.103 942.144 24.9432L942.151 17.6714C942.909 17.4334 943.568 17.3214 944.22 17.3214C946.334 17.3214 947.753 18.8579 947.753 21.1399C947.753 23.6016 946.241 25.1917 943.904 25.1917ZM944.732 15.0032C943.873 15.0032 943.005 15.1584 942.092 15.4676H939.059C939.034 15.4676 939.016 15.4886 939.016 15.5142V34.1051C940.141 33.9589 941.215 33.5435 942.146 32.8941L942.144 27.2404C942.893 27.3442 943.51 27.4142 944.106 27.4142C948.262 27.4142 950.95 24.9596 950.95 21.1597C950.95 17.5361 948.39 15.0032 944.732 15.0032ZM973.722 24.2491C972.772 24.7414 971.924 24.9736 971.126 24.9736C969.245 24.9736 968.116 23.6634 968.116 21.4701C968.116 18.9302 969.557 17.2887 971.784 17.2887C972.398 17.2887 972.996 17.4369 973.722 17.7601V24.2491ZM973.722 9.46623V15.3999C972.832 15.1491 972.048 15.0336 971.257 15.0336C967.641 15.0336 964.911 17.7192 964.911 21.2869C964.911 24.8382 967.319 27.4131 970.632 27.4131C971.78 27.4131 972.854 27.1307 974.117 26.4891L974.115 27.5134C975.098 27.3318 976.032 26.9415 976.852 26.3689V8.25173C975.723 8.38833 974.647 8.80665 973.722 9.46623ZM992.911 24.2269C991.993 24.7496 991.205 25.0004 990.502 25.0004C988.487 25.0004 987.28 23.6937 987.28 21.4922C987.28 18.9909 988.702 17.3132 990.815 17.3132C991.382 17.3132 992.069 17.5267 992.911 17.9666V24.2257V24.2269ZM996.044 15.3311C996.043 15.2972 996.029 15.265 996.005 15.2414C995.98 15.2178 995.948 15.2048 995.914 15.2051L993.45 15.2086C993.415 15.2088 993.382 15.2226 993.357 15.2469C993.332 15.2713 993.317 15.3044 993.316 15.3392V15.7522H993.253C992.115 15.2611 991.146 15.0347 990.189 15.0347C986.781 15.0347 984.109 17.8196 984.109 21.3884C984.109 24.9969 986.5 27.4154 990.059 27.4154C991.012 27.4154 992.232 27.3501 993.375 26.0551V27.5134C994.333 27.3166 995.24 26.9255 996.041 26.3642L996.044 15.3311ZM916.823 24.0612L924.477 24.0577C924.34 25.0715 923.974 26.0409 923.408 26.8927H915.447C914.471 26.8927 913.671 26.1496 913.575 25.2092C913.571 25.1941 913.565 25.1812 913.564 25.1684V10.2934C913.565 10.2817 913.571 10.2654 913.575 10.2561C913.624 9.79325 913.842 9.36475 914.187 9.05291C914.533 8.74108 914.981 8.56793 915.447 8.56673C915.478 8.56673 915.507 8.57023 915.534 8.57023L924.459 8.5679C924.322 9.58827 923.957 10.5647 923.392 11.4251H916.823V15.4734H923.325C923.352 15.4734 923.372 15.4921 923.372 15.5177V18.3271C923.372 18.333 923.37 18.3389 923.368 18.3444C923.366 18.3499 923.362 18.3548 923.358 18.3589C923.353 18.363 923.348 18.3662 923.343 18.3684C923.337 18.3705 923.331 18.3716 923.325 18.3714H916.823V24.0601V24.0612ZM907.244 27.1296C906.487 27.1296 906.019 26.5462 906.019 25.8346C906.019 25.0704 906.556 24.5384 907.244 24.5384C907.925 24.5384 908.46 25.0704 908.46 25.8334C908.46 26.5987 907.925 27.1296 907.244 27.1296ZM907.244 24.3914C906.469 24.3914 905.807 24.9666 905.807 25.8334C905.807 26.6547 906.405 27.2707 907.244 27.2707C908.008 27.2707 908.674 26.6991 908.674 25.8334C908.674 24.9666 908.009 24.3914 907.244 24.3914Z" fill="#666666"/>
<path d="M906.9 25.7156V25.1906H907.26C907.442 25.1906 907.657 25.2174 907.657 25.4356C907.657 25.6946 907.459 25.7156 907.232 25.7156H906.9ZM907.923 25.4706C907.923 25.1264 907.708 24.9806 907.292 24.9806H906.636V26.6839H906.922V25.9547H907.186L907.634 26.6839H907.956L907.47 25.9349C907.733 25.9046 907.923 25.7797 907.923 25.4706ZM998.56 17.3541C997.804 17.3541 997.334 16.7719 997.334 16.0591C997.334 15.2961 997.871 14.7641 998.56 14.7641C999.241 14.7641 999.776 15.2961 999.776 16.0591C999.776 16.8244 999.241 17.3541 998.56 17.3541ZM998.56 14.6171C997.785 14.6171 997.124 15.1911 997.124 16.0591C997.124 16.8792 997.719 17.4964 998.56 17.4964C999.323 17.4964 999.987 16.9236 999.987 16.0591C999.987 15.1911 999.323 14.6171 998.56 14.6171Z" fill="#666666"/>
<path d="M998.216 15.9401V15.4151H998.575C998.757 15.4151 998.972 15.4419 998.972 15.6601C998.972 15.9202 998.772 15.9401 998.55 15.9401H998.216ZM999.238 15.6951C999.238 15.3509 999.023 15.2051 998.608 15.2051H997.951V16.9084H998.233V16.1804H998.502L998.949 16.9084H999.269L998.785 16.1594C999.047 16.1302 999.238 16.0042 999.238 15.6951ZM897.372 11.4111L896.816 9.8629L892.11 3.66323L892.956 3.45673L901.071 10.3704L905.847 9.02523C906.409 8.88173 907.047 8.85023 907.532 8.85373C906.757 7.20856 905.661 5.73472 904.309 4.51867C902.956 3.30262 901.375 2.36883 899.657 1.77206C892.488 -0.745604 884.606 2.94573 882.056 10.0146C881.29 12.1211 881.068 14.3866 881.41 16.6016L892.852 12.6839L897.372 11.4111ZM908.034 10.0752C907.615 10.3436 906.999 10.6959 906.389 10.8896L901.602 12.2359L898.408 22.3392L897.579 22.6052L898.252 14.8889L897.876 13.2847L893.391 14.5471L881.536 17.2969C882.474 21.7944 885.705 25.7109 890.412 27.3641C897.584 29.8817 905.462 26.1892 908.013 19.1251C909.113 16.0801 909.041 12.9032 908.034 10.0752Z" fill="#666666"/>
<g clip-path="url(#clip4_0_3)">
<path d="M1095.65 14.2357L1098.03 6.58001H1101.14L1103.52 14.2357L1106.15 6.58001H1109.37L1104.71 19.978H1102.57L1099.58 10.647L1096.72 19.978H1094.57L1089.8 6.58001H1093.02L1095.65 14.2357ZM1110.92 6.58001H1113.9V19.978H1110.92V6.58001ZM1117.12 6.58001H1120.11V12.0832L1125.12 6.58001H1128.82L1123.57 12.4413C1124.05 13.0398 1124.88 14.2357 1126.07 16.03C1127.27 17.7053 1128.22 19.0213 1128.82 19.859H1125.36L1121.42 14.595L1120.11 16.03V19.859H1117.12L1117.12 6.58001ZM1130.73 6.58001H1133.71V19.978H1130.73V6.58001ZM1148.86 11.4847L1145.28 18.7822H1143.49L1139.91 11.4847V19.859H1136.93V6.58001H1140.99L1144.45 13.8775L1147.91 6.58001H1151.96V19.978H1148.98L1148.86 11.4847ZM1164.73 6.58001V9.21201H1158.05V11.963H1164.02V14.4748H1158.05V17.227H1164.85V19.859H1155.07V6.58001H1164.73ZM1177.74 8.25417C1179.05 9.45117 1179.65 11.0063 1179.65 13.1588C1179.65 15.3125 1179.05 16.8688 1177.74 18.0647C1176.54 19.2605 1174.63 19.859 1172.01 19.859H1167.59V6.58001H1172.25C1174.63 6.58001 1176.43 7.17734 1177.74 8.25417ZM1175.59 16.2692C1176.3 15.5517 1176.66 14.595 1176.66 13.279C1176.66 11.963 1176.3 11.0063 1175.59 10.2888C1174.87 9.57017 1173.8 9.21201 1172.25 9.21201H1170.58V17.346H1172.49C1173.8 17.227 1174.87 16.9878 1175.59 16.2703V16.2692ZM1182.15 6.58001H1185.13V19.978H1182.15L1182.15 6.58001ZM1197.9 19.859L1196.71 16.9878H1191.1L1189.91 19.8578H1186.68L1192.41 6.45984H1195.28L1201 19.859H1197.9ZM1193.84 10.528L1192.17 14.3547H1195.51L1193.84 10.528Z" fill="#666666"/>
<path d="M1095.29 25.9596V27.5148H1097.92V28.4714H1095.29V30.8654H1094.34V25.0018H1098.27V25.9584L1095.29 25.9596ZM1109.13 30.0278C1108.53 30.6251 1107.82 30.8654 1106.98 30.8654C1106.15 30.8654 1105.43 30.6251 1104.83 30.0278C1104.24 29.4293 1104 28.7118 1104 27.8741C1104 27.0364 1104.24 26.3189 1104.83 25.7204C1105.43 25.1231 1106.15 24.8828 1106.98 24.8828C1107.82 24.8828 1108.53 25.1231 1109.13 25.7204C1109.73 26.3189 1109.97 27.0364 1109.97 27.8741C1110.08 28.8308 1109.73 29.5494 1109.13 30.0278ZM1108.41 26.4391C1108.23 26.2478 1108.01 26.0961 1107.76 25.9932C1107.51 25.8903 1107.25 25.8384 1106.98 25.8406C1106.39 25.8406 1105.91 26.0798 1105.55 26.4391C1105.19 26.7973 1104.95 27.3958 1104.95 27.8741C1104.95 28.4726 1105.19 28.9509 1105.55 29.3091C1105.91 29.6684 1106.39 29.9076 1106.98 29.9076C1107.58 29.9076 1108.06 29.6684 1108.41 29.3103C1108.77 28.9509 1109.01 28.3536 1109.01 27.8741C1109.01 27.2756 1108.89 26.7973 1108.41 26.4391ZM1117.6 29.5494C1117.84 29.9076 1118.2 30.0278 1118.67 30.0278C1119.15 30.0278 1119.51 29.9076 1119.75 29.5494C1119.99 29.1901 1120.11 28.8308 1120.11 28.2334V25.0018H1121.06V28.2334C1121.06 29.0699 1120.82 29.6684 1120.35 30.1468C1119.87 30.6251 1119.27 30.8654 1118.56 30.8654C1117.84 30.8654 1117.24 30.6251 1116.77 30.1468C1116.29 29.6684 1116.29 29.1901 1116.29 28.3524V25.1231H1117.24V28.3524C1117.24 28.8308 1117.36 29.1901 1117.6 29.5494ZM1132.04 25.0029H1132.99V30.8654H1131.92L1128.58 26.5581V30.8654H1127.62V25.0018H1128.58L1131.92 29.3091L1132.04 25.0029ZM1144.09 25.8406C1144.69 26.3189 1144.92 27.0364 1144.92 27.9943C1144.92 28.9509 1144.69 29.6684 1144.09 30.1468C1143.61 30.6251 1142.78 30.9844 1141.58 30.9844H1139.67V25.1231H1141.7C1142.66 25.0029 1143.49 25.2421 1144.09 25.8406ZM1143.97 27.9943C1143.97 26.6783 1143.25 25.9596 1141.7 25.9596H1140.75V29.9076H1141.82C1142.54 29.9076 1143.02 29.7886 1143.49 29.4293C1143.73 29.0699 1143.97 28.5916 1143.97 27.9943ZM1151.96 29.5494L1151.37 30.8654H1150.29L1152.8 25.0029H1153.87L1156.38 30.8654H1155.31L1154.71 29.5494H1151.96ZM1154.47 28.5928L1153.4 26.1988L1152.32 28.5916H1154.47L1154.47 28.5928ZM1164.13 25.9596V30.8654H1163.18V25.9584H1161.39V25.1219H1165.92V25.9584L1164.13 25.9596ZM1171.89 25.0029H1172.84V30.8654H1171.89V25.0029ZM1184.42 30.0278C1183.82 30.6251 1183.11 30.8654 1182.27 30.8654C1181.43 30.8654 1180.72 30.6251 1180.12 30.0278C1179.53 29.4293 1179.29 28.7118 1179.29 27.8741C1179.29 27.0364 1179.53 26.3189 1180.12 25.7204C1180.72 25.1231 1181.43 24.8828 1182.27 24.8828C1183.11 24.8828 1183.82 25.1231 1184.42 25.7204C1185.01 26.3189 1185.25 27.0364 1185.25 27.8741C1185.25 28.8308 1185.01 29.5494 1184.42 30.0278ZM1183.7 26.4391C1183.52 26.2476 1183.29 26.0959 1183.05 25.993C1182.8 25.8901 1182.54 25.8383 1182.27 25.8406C1181.67 25.8406 1181.2 26.0798 1180.84 26.4391C1180.48 26.7973 1180.24 27.3958 1180.24 27.8741C1180.24 28.4726 1180.48 28.9509 1180.84 29.3091C1181.2 29.6684 1181.67 29.9076 1182.27 29.9076C1182.87 29.9076 1183.34 29.6684 1183.7 29.3103C1184.06 28.9509 1184.3 28.3536 1184.3 27.8741C1184.3 27.6072 1184.25 27.3425 1184.15 27.0959C1184.04 26.8493 1183.89 26.6259 1183.7 26.4391ZM1195.87 25.0029H1196.83V30.8654H1195.75L1192.41 26.5581V30.8654H1191.46V25.0018H1192.41L1195.75 29.3091L1195.87 25.0029Z" fill="#666666"/>
<path d="M1068.92 27.3956C1073.93 26.6781 1077.75 22.3708 1077.75 17.1068C1077.75 13.8774 1076.32 11.1253 1074.05 9.21194L1068.8 14.4748V27.3956H1068.92ZM1066.06 27.3956V14.4748L1060.81 9.21194C1058.54 11.1253 1057.11 13.9964 1057.11 17.1068C1057.11 22.3708 1060.93 26.6781 1066.06 27.3956Z" fill="#666666"/>
<path d="M1076.44 8.13518C1078.81 10.5179 1080.14 13.7445 1080.14 17.1068C1080.14 20.4692 1078.81 23.6958 1076.44 26.0785C1075.26 27.2555 1073.87 28.1892 1072.33 28.8258C1070.8 29.4625 1069.15 29.7896 1067.49 29.7885C1065.83 29.7896 1064.18 29.4625 1062.65 28.8258C1061.11 28.1892 1059.72 27.2555 1058.54 26.0785C1056.17 23.6958 1054.84 20.4692 1054.84 17.1068C1054.84 13.7445 1056.17 10.5179 1058.54 8.13518L1059.14 7.53668L1056.27 4.66668C1056.04 4.78568 1055.8 5.02484 1055.56 5.26401C1054.02 6.80208 1052.8 8.63222 1051.98 10.647C1051.14 12.6817 1050.67 14.8353 1050.67 17.1068C1050.67 19.3807 1051.14 21.5332 1051.98 23.6868C1052.8 25.7016 1054.02 27.5318 1055.56 29.0698C1057.09 30.6128 1058.92 31.8334 1060.93 32.6597C1063.01 33.5198 1065.24 33.9667 1067.49 33.9757C1069.76 33.9757 1071.9 33.4973 1074.05 32.6597C1076.06 31.8334 1077.89 30.6128 1079.42 29.0698C1080.96 27.5318 1082.18 25.7016 1083 23.6868C1083.86 21.5988 1084.3 19.3643 1084.31 17.1068C1084.31 14.8342 1083.83 12.6805 1083 10.5268C1082.18 8.51205 1080.96 6.68191 1079.42 5.14384L1078.83 4.54651L1075.96 7.41651C1075.96 7.65684 1076.2 7.89484 1076.44 8.13518Z" fill="#666666"/>
<path d="M1067.49 10.647C1070.39 10.647 1072.74 8.29023 1072.74 5.383C1072.74 2.47578 1070.39 0.119003 1067.49 0.119003C1064.59 0.119003 1062.24 2.47578 1062.24 5.383C1062.24 8.29023 1064.59 10.647 1067.49 10.647Z" fill="#666666"/>
</g>
<defs>
<clipPath id="clip0_0_3">
<rect width="137.667" height="35" fill="white" transform="translate(241.833)"/>
</clipPath>
<clipPath id="clip1_0_3">
<rect width="42" height="35" fill="white" transform="translate(429.5)"/>
</clipPath>
<clipPath id="clip2_0_3">
<rect width="119" height="35" fill="white" transform="translate(521.5)"/>
</clipPath>
<clipPath id="clip3_0_3">
<rect width="140" height="35" fill="white" transform="translate(690.5)"/>
</clipPath>
<clipPath id="clip4_0_3">
<rect width="150.5" height="35" fill="white" transform="translate(1050.67)"/>
</clipPath>
</defs>
</svg>
