<svg xmlns="http://www.w3.org/2000/svg" xmlns:xlink="http://www.w3.org/1999/xlink" width="140" height="130" viewBox="0 0 133 129">
    <defs>
        <linearGradient id="prefix__a" x1="26.482%" x2="-198.191%" y1="50.336%" y2="50.1%">
            <stop offset="0%" stop-color="#243E56"/>
            <stop offset="100%" stop-color="#FFF"/>
        </linearGradient>
        <linearGradient id="prefix__b" x1="50%" x2="50%" y1="0%" y2="100%">
            <stop offset="0%" stop-color="#FAD961"/>
            <stop offset="100%" stop-color="#F76B1C"/>
        </linearGradient>
        <linearGradient id="prefix__c" x1="50%" x2="50%" y1="0%" y2="100%">
            <stop offset="0%" stop-color="#FAD961"/>
            <stop offset="100%" stop-color="#F76B1C"/>
        </linearGradient>
        <linearGradient id="prefix__d" x1="50%" x2="50%" y1="0%" y2="100%">
            <stop offset="0%" stop-color="#FAD961"/>
            <stop offset="100%" stop-color="#F76B1C"/>
        </linearGradient>
        <linearGradient id="prefix__e" x1="50%" x2="50%" y1="0%" y2="100%">
            <stop offset="0%" stop-color="#FAD961"/>
            <stop offset="100%" stop-color="#F76B1C"/>
        </linearGradient>
        <rect id="prefix__f" width="27.626" height="14.882" x="0" y="0" rx="2.815"/>
        <rect id="prefix__j" width="17.426" height="14.882" x="0" y="0" rx="2.815"/>
        <path id="prefix__h" d="M0 0H29.342V14.882H0z"/>
        <path id="prefix__l" d="M5.139.002L69.106 0c2.211 0 4.004 1.795 4.004 4.01l-.007 90.233c0 1.787-.186 2.436-.535 3.089-.35.653-.861 1.166-1.514 1.516-.652.35-1.299.535-3.083.536l-63.968.002c-2.21 0-4.003-1.795-4.003-4.01L.006 5.143c0-1.787.187-2.435.536-3.089C.89 1.401 1.402.888 2.055.54c.652-.35 1.3-.536 3.084-.537z"/>
    </defs>
    <g fill="none" fill-rule="evenodd">
        <g transform="translate(-7) rotate(-5 304.18 13.091)">
            <path fill="url(#prefix__a)" fill-rule="nonzero" d="M.72 88.266l28.77-.006c.362 0 .654.293.655.654v.03c0 .36-.293.653-.654.653l-28.77.005c-.361 0-.654-.292-.654-.653v-.03c0-.36.293-.653.654-.653z" transform="scale(-1 1) rotate(-5 0 434.91)"/>
            <path fill="url(#prefix__b)" fill-rule="nonzero" d="M4.331 83.588l28.993-.006c.583 0 1.055.472 1.056 1.055v.048c-.001.583-.474 1.056-1.057 1.056l-28.992.006c-.583 0-1.056-.472-1.056-1.055v-.048c.001-.583.474-1.056 1.056-1.056z" transform="scale(-1 1) rotate(-5 0 515.882)"/>
            <path fill="#FFF" fill-rule="nonzero" stroke="#142434" stroke-width=".503" d="M24.894 101.708l64.766.003c1.034 0 1.97-.42 2.649-1.099.678-.679 1.097-1.617 1.097-2.653L93.4 4.915c0-1.715-.17-2.34-.505-2.968-.325-.608-.801-1.085-1.408-1.41C90.86.2 90.236.03 88.524.03L23.758.029c-1.034 0-1.97.42-2.649 1.098-.678.68-1.097 1.618-1.097 2.654l.006 93.044c0 1.714.17 2.34.505 2.967.325.608.801 1.086 1.408 1.41.627.337 1.251.506 2.963.506z"/>
            <path fill="#DDD" fill-rule="nonzero" d="M78.704 39.664H32.97c-1.119 0-2.025.907-2.025 2.027s.906 2.028 2.025 2.028l45.735.002c1.118 0 2.025-.908 2.025-2.028s-.907-2.028-2.025-2.029zM78.704 55.086H32.97c-1.119 0-2.025.907-2.025 2.027s.906 2.028 2.025 2.028l45.735.002c1.118 0 2.025-.908 2.025-2.028s-.907-2.028-2.025-2.029zM78.704 70.508H32.97c-1.119 0-2.025.907-2.025 2.027s.906 2.028 2.025 2.028l45.735.002c1.118 0 2.025-.908 2.025-2.028s-.907-2.028-2.025-2.029z"/>
            <path fill="#FFF" fill-rule="nonzero" d="M74.768 62.663l7.248 17.83c.799.907 1.97 1.052 3.512.435 1.543-.617 4.053-1.463 7.53-2.536 1.1-.772 1.307-1.766.618-2.982-.69-1.216-2.911-6.45-6.666-15.702-.37-.735-1.075-.975-2.112-.72-1.038.253-4.042.91-9.014 1.969-.617.308-.99.558-1.116.752-.127.194-.127.512 0 .954z"/>
            <path fill="url(#prefix__c)" fill-rule="nonzero" d="M18.18 70.76l-1.417-.507c-.084-.295-.209-.548-.334-.8l.626-1.35c.083-.169.042-.337-.084-.464l-1-1.012c-.126-.126-.334-.168-.46-.084l-1.292.633c-.25-.127-.542-.253-.834-.338l-.459-1.349c-.041-.169-.208-.295-.417-.295h-1.418c-.166 0-.333.126-.417.295l-.458 1.35c-.292.084-.584.21-.834.337l-1.293-.633c-.167-.084-.334-.042-.459.084l-1 1.012c-.126.127-.167.338-.084.464l.626 1.35c-.126.252-.209.505-.334.8l-1.418.506c-.167.043-.292.211-.292.38v1.433c0 .17.125.338.292.38l1.46.506c.083.253.166.464.292.717l-.668 1.433c-.083.169-.041.337.084.464l1 1.012c.126.126.334.169.46.084l1.417-.674c.209.084.417.21.667.253l.542 1.517c.042.17.209.296.417.296h1.418c.167 0 .334-.127.417-.296l.542-1.517c.209-.085.46-.17.668-.253l1.418.674c.166.085.333.042.458-.084l1.001-1.012c.125-.127.167-.337.084-.464l-.668-1.433c.125-.253.209-.464.292-.717l1.46-.506c.167-.042.292-.21.292-.38V71.14c-.042-.169-.125-.337-.292-.38zm-6.38 3.276c-1.254 0-2.258-1.005-2.258-2.262 0-1.257 1.004-2.262 2.258-2.262 1.255 0 2.259 1.005 2.259 2.262 0 1.257-1.004 2.262-2.259 2.262z" transform="rotate(7 11.8 71.877)"/>
            <path fill="url(#prefix__d)" fill-rule="nonzero" d="M8.834 93.082l9.067-.002c.444 0 .804.36.804.804v.037c0 .444-.36.804-.805.804l-9.067.002c-.444 0-.804-.36-.804-.804v-.036c0-.445.36-.805.805-.805z" transform="scale(-1 1) rotate(-5 0 400.06)"/>
            <circle cx="4.677" cy="92.713" r="1" fill="url(#prefix__e)" fill-rule="nonzero" transform="scale(-1 1) rotate(-5 0 199.844)"/>
            <circle cx="75.699" cy="62.796" r="1" fill="#FFF" fill-rule="nonzero"/>
            <g transform="translate(14.52 13.446)">
                <mask id="prefix__g" fill="#fff">
                    <use xlink:href="#prefix__f"/>
                </mask>
                <g mask="url(#prefix__g)">
                    <g>
                        <path stroke="#142434" stroke-width=".5" d="M0.045 26.729L30.512 57.401" transform="translate(-.386 -25.92)"/>
                        <g>
                            <path stroke="#142434" stroke-width=".5" d="M.045 24.82L30.512 55.492M.045 22.911L30.512 53.582M.045 21.002L30.512 51.673M.045 19.092L30.512 49.764M.045 17.183L30.512 47.855M.045 15.274L30.512 45.946M.045 13.365L30.512 44.036M.045 11.455L30.512 42.127M.045 9.546L30.512 40.218M.045 7.637L30.512 38.309M.045 5.728L30.512 36.399M.045 3.818L30.512 34.49M.045 1.909L30.512 32.581M.045 0L30.512 30.672M.045 30.184L30.512 60.856M.045 31.912L30.512 62.583M.045 33.639L30.512 64.311M.045 35.366L30.512 66.038M.045 37.094L30.512 67.765M.045 38.821L30.512 69.493M.045 40.549L30.512 71.22M.045 42.276L30.512 72.948M.045 44.003L30.512 74.675M.045 45.731L30.512 76.402M.045 47.458L30.512 78.13M.045 49.186L30.512 79.857M.045 50.913L30.512 81.585M.045 52.64L30.512 83.312" transform="translate(-.386 -25.92)"/>
                        </g>
                        <path stroke="#142434" stroke-width=".5" d="M0.045 28.457L30.512 59.128" transform="translate(-.386 -25.92)"/>
                    </g>
                </g>
                <g transform="translate(27.164)">
                    <mask id="prefix__i" fill="#fff">
                        <use xlink:href="#prefix__h"/>
                    </mask>
                    <g mask="url(#prefix__i)">
                        <g>
                            <path stroke="#142434" stroke-width=".5" d="M0.045 26.729L30.512 57.401" transform="translate(-.386 -25.92)"/>
                            <g>
                                <path stroke="#142434" stroke-width=".5" d="M.045 24.82L30.512 55.492M.045 22.911L30.512 53.582M.045 21.002L30.512 51.673M.045 19.092L30.512 49.764M.045 17.183L30.512 47.855M.045 15.274L30.512 45.946M.045 13.365L30.512 44.036M.045 11.455L30.512 42.127M.045 9.546L30.512 40.218M.045 7.637L30.512 38.309M.045 5.728L30.512 36.399M.045 3.818L30.512 34.49M.045 1.909L30.512 32.581M.045 0L30.512 30.672M.045 30.184L30.512 60.856M.045 31.912L30.512 62.583M.045 33.639L30.512 64.311M.045 35.366L30.512 66.038M.045 37.094L30.512 67.765M.045 38.821L30.512 69.493M.045 40.549L30.512 71.22M.045 42.276L30.512 72.948M.045 44.003L30.512 74.675M.045 45.731L30.512 76.402M.045 47.458L30.512 78.13M.045 49.186L30.512 79.857M.045 50.913L30.512 81.585M.045 52.64L30.512 83.312" transform="translate(-.386 -25.92)"/>
                            </g>
                            <path stroke="#142434" stroke-width=".5" d="M0.045 28.457L30.512 59.128" transform="translate(-.386 -25.92)"/>
                        </g>
                    </g>
                </g>
                <g transform="translate(55.353 .128)">
                    <mask id="prefix__k" fill="#fff">
                        <use xlink:href="#prefix__j"/>
                    </mask>
                    <g mask="url(#prefix__k)">
                        <g>
                            <path stroke="#142434" stroke-width=".5" d="M0.045 26.729L30.512 57.401" transform="translate(-.643 -25.535)"/>
                            <g>
                                <path stroke="#142434" stroke-width=".5" d="M.045 24.82L30.512 55.492M.045 22.911L30.512 53.582M.045 21.002L30.512 51.673M.045 19.092L30.512 49.764M.045 17.183L30.512 47.855M.045 15.274L30.512 45.946M.045 13.365L30.512 44.036M.045 11.455L30.512 42.127M.045 9.546L30.512 40.218M.045 7.637L30.512 38.309M.045 5.728L30.512 36.399M.045 3.818L30.512 34.49M.045 1.909L30.512 32.581M.045 0L30.512 30.672M.045 30.184L30.512 60.856M.045 31.912L30.512 62.583M.045 33.639L30.512 64.311M.045 35.366L30.512 66.038M.045 37.094L30.512 67.765M.045 40.549L30.512 71.22M.045 42.276L30.512 72.948M.045 44.003L30.512 74.675M.045 45.731L30.512 76.402M.045 47.458L30.512 78.13M.045 49.186L30.512 79.857M.045 50.913L30.512 81.585M.045 52.64L30.512 83.312" transform="translate(-.643 -25.535)"/>
                            </g>
                            <path stroke="#142434" stroke-width=".5" d="M0.045 28.457L30.512 59.128" transform="translate(-.643 -25.535)"/>
                        </g>
                    </g>
                </g>
            </g>
            <path fill="#91D5FF" fill-rule="nonzero" d="M80.836 10.567H13.699c-1.588-.001-2.874 1.287-2.874 2.877v.002l.004 8.75c.002 1.282.135 1.747.386 2.216.251.47.619.838 1.087 1.089.468.25.933.384 2.214.385h67.137c1.587.001 2.874-1.287 2.874-2.877l-.001-.002-.003-8.75c-.002-1.282-.136-1.747-.387-2.216-.25-.47-.618-.837-1.087-1.088-.468-.251-.932-.385-2.213-.386z"/>
            <ellipse cx="20.114" cy="17.815" fill="#FFF" fill-rule="nonzero" rx="4.671" ry="4.678"/>
            <path fill="#000" fill-rule="nonzero" d="M13.862 15.251c0 .173-.115.287-.287.287s-.287-.114-.287-.287v-1.665c0-.862.717-1.58 1.577-1.58h1.663c.172 0 .287.115.287.287 0 .173-.115.288-.287.288h-1.663c-.545 0-1.003.46-1.003 1.005v1.665zm2.666 7.696c.172 0 .287.115.287.287 0 .173-.115.287-.287.287h-1.663c-.86 0-1.577-.717-1.577-1.579v-1.665c0-.173.115-.288.287-.288s.287.115.287.288v1.665c0 .546.458 1.005 1.003 1.005h1.663zm7.07-10.366c-.172 0-.287-.115-.287-.288 0-.172.115-.287.287-.287h1.663c.86 0 1.577.718 1.577 1.58v1.665c0 .173-.115.287-.287.287s-.287-.114-.287-.287v-1.665c0-.546-.458-1.005-1.003-1.005h-1.663zm2.666 7.696c0-.173.115-.288.287-.288s.287.115.287.288v1.665c0 .862-.717 1.58-1.577 1.58h-1.663c-.172 0-.287-.115-.287-.288 0-.172.115-.287.287-.287h1.663c.545 0 1.003-.46 1.003-1.005v-1.665z"/>
            <g fill="#000" fill-rule="nonzero">
                <path d="M6.567 1.213c-1.616-1.617-4.23-1.617-5.846 0l-.456.459c-.17.17-.265.4-.265.642 0 .24.095.471.265.641l.456.46c1.616 1.616 4.23 1.616 5.846 0l.456-.453c.17-.17.265-.401.265-.642 0-.24-.095-.472-.265-.642l-.456-.465zm.094 1.374l-.456.46c-.68.682-1.6 1.066-2.56 1.066-.961 0-1.883-.384-2.562-1.066l-.456-.46c-.152-.152-.152-.398 0-.55l.456-.46C2.5.16 4.79.16 6.205 1.577l.456.46c.152.152.152.398 0 .55z" transform="translate(16.47 15.4)"/>
                <path d="M3.644 1.028c-.709 0-1.283.576-1.283 1.285 0 .71.574 1.285 1.283 1.285s1.283-.575 1.283-1.285c0-.34-.135-.667-.376-.908-.24-.241-.567-.377-.907-.377zm0 2.056c-.425 0-.77-.345-.77-.77 0-.427.345-.772.77-.772.425 0 .77.345.77.771 0 .426-.345.771-.77.771z" transform="translate(16.47 15.4)"/>
            </g>
            <path fill="#FFF" fill-rule="nonzero" d="M78.19 15.709l-44.708-.001c-1.118 0-2.025.907-2.025 2.028 0 1.12.907 2.028 2.025 2.028l44.709.001c1.118 0 2.025-.908 2.025-2.028s-.907-2.028-2.025-2.028z"/>
        </g>
        <g stroke-dasharray="3.72" transform="translate(-7) scale(-1 1) rotate(-1 11.47 7424.509)">
            <mask id="prefix__m" fill="#fff">
                <use xlink:href="#prefix__l"/>
            </mask>
            <path fill="#D9F1FF" fill-opacity=".729" fill-rule="nonzero" stroke="#142434" stroke-width="1.005" d="M5.139.002L69.106 0c2.211 0 4.004 1.795 4.004 4.01 0 0 0 0 0 0l-.007 90.233c0 1.787-.186 2.436-.535 3.089-.35.653-.861 1.166-1.514 1.516-.652.35-1.299.535-3.083.536l-63.968.002c-2.21 0-4.003-1.795-4.003-4.01 0 0 0 0 0 0L.006 5.143c0-1.787.187-2.435.536-3.089C.89 1.401 1.402.888 2.055.54c.652-.35 1.3-.536 3.084-.537z" mask="url(#prefix__m)"/>
        </g>
        <g transform="translate(-7) translate(75.9 29.411)">
            <path fill="#142434" fill-rule="nonzero" d="M41.137 13.184v1.389c-1.235-.25-1.79.06-1.667.934.124.873.738 1.252 1.844 1.137.86 2.623 1.383 3.982 1.566 4.076.275.141-.393 8.304-1.566 8.889-1.173.584-1.706.426-2.213.959-.506.533-6.19-1.98-4.785-11.31.938-6.221 1.562-9.22 1.874-8.997.625 1.12 1.525 2.2 4.947 2.923z"/>
            <path fill="#FFC7AE" fill-rule="nonzero" d="M37.335 11.099c-.478 8.924 1.663 13.463 6.422 13.614 4.386 0 6.387-2.874 6.001-8.624 2.372-1.54 2.965-2.824 1.779-3.849-1.779-1.537-2.956-3.182-3.212-3.746-.243-.534-2.415-.342-6.516.576-1.33 1.446-2.75 2.464-4.474 2.029z"/>
            <path fill="#FFC7AE" fill-rule="nonzero" d="M40.09 23.311c.065 4.037-.474 6.13-1.62 6.277-1.717.221 9.321 5.85 13.546-1.357-.885-.688-1.69-3.493-2.413-8.415-.423 1.198-3.54 7.876-9.513 3.495z"/>
            <path fill="#142434" fill-rule="nonzero" d="M49.887 13.559c-.264-.366-.512-.281-.744.255-.279-.175-.405-.804-.418-1.888-.032-2.73-2.183-3.787-5.377-1.434-2.792 3.493-11.454 1.84-9.235-5.977 1.48-5.21 5.198-5.911 11.157-2.103 7.664 1.237 10.676 5.243 9.034 12.018-1.629 7.008-1.586 4.178 0 12.596-.245.015-.055 4.12-.276 4.171-.452.106-1.155-.922-2.11-3.085-3.643-4.35-4.983-7.302-4.019-8.854.52-1.258.796-2.309.826-3.154.401.02 1.853.27 1.162-2.545z"/>
            <path stroke="#4987AD" stroke-linecap="round" stroke-width=".2" d="M34.093 8.818c1.952 3.034 6.186 2.459 12.704-1.726 6.518-4.185 7.93.322 4.235 13.521"/>
            <ellipse cx="38.801" cy="15.261" stroke="#142434" stroke-width=".2" rx="1.531" ry="1.481"/>
            <ellipse cx="43.225" cy="15.261" stroke="#142434" stroke-width=".2" rx="1.531" ry="1.481"/>
            <path fill="#E19A7A" fill-rule="nonzero" d="M39.992 23.32c3.615 1.316 6.148.262 7.6-3.162-.031.935-.037 1.36-.018 1.277-.935 3.257-3.463 4.383-7.582 3.379.024-.773.024-1.271 0-1.495z"/>
            <path fill="#8FD4FF" fill-rule="nonzero" d="M33.753 68.446c.338 10.832.987 19.539 1.948 26.12.15 6.948 15.131 4.872 22.627-.705 2.941-2.188 3.147-8.28 3.238-9.507.215-2.903.51-8.206.886-15.908H33.753z"/>
            <path fill="#72C8FF" fill-rule="nonzero" d="M33.867 68.582c.316 11.024.956 19.827 1.92 26.409.58 3.959 2.694 4.539 9.196 3.832-1.85-6.957-2.73-17.082-2.639-30.377l-8.477.136z"/>
            <path fill="#FFF" fill-rule="nonzero" stroke="#142434" stroke-linecap="round" stroke-width=".2" d="M39.689 27.302c1.797 3.47 4.03 4.987 6.698 4.55 2.669-.435 4.427-1.85 5.275-4.244 6.891 1.282 10.463 5.654 10.714 13.116.251 7.461.251 16.372 0 26.732.757.417.946.808.568 1.172-.379.364-10.101.364-29.168 0-.202-.19-.303-.334-.304-.43 0-.095.1-.216.299-.364.305-.765.305-1.517 0-2.258-.305-.74-.303-2.889.005-6.443l-5.808-19.86c2.347-6.002 5.951-9.89 10.81-11.665.296-.545.599-.647.91-.306z"/>
            <path fill="#FFC7AE" fill-rule="nonzero" d="M26.198 45.03c-.458 3.634-1.936 5.45-4.435 5.45-2.498 0-8.068-2.742-16.71-8.228l1.845 4.114C14.008 56.74 20.17 61.25 25.382 59.898c5.213-1.35 8.117-4.49 8.711-9.417l-7.895-5.45z"/>
            <path fill="#FFC7AE" fill-rule="nonzero" d="M46.754 43.813c-2.006 7.416-6.524 7.18-13.551-.71s-12.184-11.298-15.47-10.225c-1.829 1.088-3.928 2.256-2.862 2.487l2.862-1.3c-.195 2.184 1.033 3.881 2.753 3.049 1.72-.833 15.46 29.932 24.952 27.556 6.329-1.584 10.714-6.262 13.158-14.036l-11.842-6.82z"/>
            <path stroke="#000" stroke-linecap="round" stroke-width=".2" d="M17.62 32.913c-1.83 1.087-3.928 2.253-2.863 2.484l2.862-1.298c-.195 2.18 1.033 3.877 2.753 3.045 1.72-.832 15.46 29.9 24.952 27.527"/>
            <path fill="#FFF" fill-rule="nonzero" stroke="#142434" stroke-linecap="round" stroke-width=".2" d="M56.415 34.853c-4.263-1.73-7.544 1.425-9.844 9.465 4.156 2.48 8.367 4.676 12.634 6.59l.979-2.042-3.769-1.934-5.968-3.152-1.155.538.383-1.044-.822-.624"/>
            <path fill="#142434" fill-rule="nonzero" d="M1.067 33.806c.118.33 2.576 6.4 7.374 18.21.813.927 2.004 1.075 3.573.444 1.57-.63 4.123-1.493 7.661-2.59 1.12-.788 1.33-1.803.628-3.045-.7-1.242-2.961-6.587-6.781-16.036-.377-.75-1.094-.996-2.15-.737-1.055.26-4.112.93-9.17 2.012-1.629.475-1.312 1.248-1.135 1.742z"/>
            <path fill="#FFC7AE" fill-rule="nonzero" d="M5.453 44.62c-1.514-.666-2.63-1.754-3.33-2.97-.7-1.216-.506-2.57.583-4.064 2.66-1.889 3.864-2.438 3.611-1.648-.253.79-1.304 1.697-3.152 2.72 2.38-1.106 3.57-1.464 3.57-1.072 0 .391-1.046 1.112-3.138 2.162 3.283-1.075 4.493-1.296 3.632-.665-.861.632-1.814 1.445-2.856 2.44l1.08 3.096z"/>
            <path stroke="#142434" stroke-width=".2" d="M42.49 68.673c-.022 6.858.088 12.02.329 15.489.241 3.468.963 8.327 2.164 14.577"/>
            <path fill="#41B6FF" fill-rule="nonzero" d="M62.452 70.61L59.39 70.61 59.39 80.781 61.655 81.998z" opacity=".367"/>
            <path stroke="#72C8FF" stroke-linecap="round" stroke-width=".559" d="M47.139 71.635c1.001 5.842 4.367 8.059 10.095 6.65"/>
            <path fill="#FFF" fill-rule="nonzero" stroke="#142434" stroke-linecap="round" stroke-width=".2" d="M38.63 27.56c.644 1.943 1.627 3.234 2.95 3.873M52.583 27.788c-.314 1.598-1.109 2.737-2.382 3.417"/>
            <path stroke="#529BD2" stroke-width=".2" d="M30.463 34.488c3.428.815 5.142 2.381 5.142 4.7 0 3.48 5.983 6.36 5.363 3.48-.62-2.882-5.839-3.843-3.664-5.659 2.175-1.816-1.59-6.525-2.577-5.562-.66.642-1.395.772-2.21.389M62.452 63.374c-3.037 1.62-4.556 1.427-4.556-.576 0-3.006-4.234-1.24-3.067-3.413 1.167-2.174 5.662-2.092 5.662-1.046 0 .697.654 1.046 1.961 1.046"/>
            <circle cx="56.317" cy="62.707" r="1" stroke="#529BD2" stroke-width=".2" transform="scale(1 -1) rotate(-68 -36.649 0)"/>
            <path stroke="#529BD2" stroke-linecap="round" stroke-width=".2" d="M60.26 34.626c-.027 2.925-.539 4.387-1.535 4.387-1.494 0-3.655 1.106-2.268 2.482 1.387 1.377 5-.949 5-2.482"/>
            <circle cx="35.906" cy="65.775" r="1" stroke="#529BD2" stroke-width=".2" transform="scale(1 -1) rotate(7 1111.31 0)"/>
            <path stroke="#529BD2" stroke-width=".2" d="M36.205 64.22c.763.2 1.854.171 1.665 1.113-.188.942 1.581 1.717 1.479.88-.102-.838-1.077-.97-.815-1.491.261-.52.148-1.33-1.049-1.899-1.197-.568-2.99-.52-2.18.06.808.58.034.629.334.855.3.226-.196.28.566.481z"/>
            <path fill="#4987AD" fill-rule="nonzero" d="M35.597 3.641c-.64 1.977-.668 3.444-.084 4.404.876 1.44.9-.18.536-.704-.364-.523-.273-3.315.04-3.528.314-.212.799-.938.161-.935-.302.222-.52.477-.653.763z"/>
            <circle cx="3.069" cy="33.426" r="1" fill="#FFF" fill-rule="nonzero"/>
        </g>
        <g fill="#FFF">
            <path d="M5.607 1.033C5.583.951 5.51.896 5.424.896c-.026 0-.05.005-.074.015-.06.026-.155.055-.272.06-.203-.19-.765-.616-1.158-.83 0 0 .048.14.114.402 0 0-.423-.33-.901-.543 0 0 .134.276.146.366 0 0-.44-.153-1.056-.21 0 0 .296.206.411.363 0 0-.435-.022-1.086 0 0 0 .37.15.533.288 0 0-.772.078-1.208.204 0 0 .492.173.628.302 0 0-.627.178-1.258.543 0 0 .35.061.625.181 0 0-.35.245-.868.912 0 0 .383-.073.646-.052 0 0-.333.389-.507.984 0 0 .193-.123.38-.167 0 0 .02.71.408.823.019.006.037.008.053.008.019 0 .039-.003.059-.009.123-.035.216-.157.324-.297.035-.046.072-.094.11-.14.043-.06.1-.124.167-.18.137-.113.327-.199.559-.165.26.022.42.282.55.49.067.109.156.3.305.3.165 0 .223-.197.296-.44.07-.229.173-.449.306-.647.257-.382.585-.59.98-.795.377-.196.734-.382.913-.664.09-.14.134-.313.132-.513-.002-.18-.041-.345-.074-.452zM3.665.872L3.189.567l.785.28-.31.025zm-1.308.139l.753.192.329-.109-1.082-.083zm1.343.43l.161-.174-.622.15.461.024zm-1.066-.053l-.258.175-.714-.069.972-.106zm.805.46l.261-.174-.972.125.71.05zm-.72.134l-.182.3-.912.223 1.094-.523zm-1.14.185l-.706.31.867-.621-.16.31zm-.386.372l-.028.311-.405.509.433-.82z" transform="translate(-7) rotate(-15 306.712 -283.686)"/>
            <path fill-rule="nonzero" d="M3.74 4.468c-.08-.002-.164-.07-.256-.207.055-.311.27-.709.528-.975-.066.247-.075.496-.082.696-.004.13-.008.24-.027.322-.024.109-.078.164-.16.164H3.74zM1.548 4.243c.067.152.14.226.22.226.006 0 .012 0 .019-.002.109-.017.21-.228.294-.432.022-.053.042-.106.06-.155-.24.003-.475.197-.593.363z" transform="translate(-7) rotate(-15 306.712 -283.686)"/>
        </g>
    </g>
</svg>
