<svg width="153" height="130" alt="App Automate - Interactive cross browser testing" viewBox="0 0 362 318" version="1.1" xmlns="http://www.w3.org/2000/svg" xmlns:xlink="http://www.w3.org/1999/xlink">
    <!-- Generator: Sketch 60 (88103) - https://sketch.com -->
    <title>Group 9</title>
    <desc>Created with Sketch.</desc>
    <defs>
        <linearGradient x1="50%" y1="0%" x2="50%" y2="100%" id="linearGradient-1">
            <stop stop-color="#FAD961" offset="0%"></stop>
            <stop stop-color="#F76B1C" offset="100%"></stop>
        </linearGradient>
        <linearGradient x1="50%" y1="0%" x2="50%" y2="100%" id="linearGradient-2">
            <stop stop-color="#FAD961" offset="0%"></stop>
            <stop stop-color="#F76B1C" offset="100%"></stop>
        </linearGradient>
        <linearGradient x1="50%" y1="0%" x2="50%" y2="100%" id="linearGradient-3">
            <stop stop-color="#FAD961" offset="0%"></stop>
            <stop stop-color="#F76B1C" offset="100%"></stop>
        </linearGradient>
        <linearGradient x1="26.4822257%" y1="50.3316356%" x2="-198.19113%" y2="50.0984286%" id="linearGradient-4">
            <stop stop-color="#243E56" offset="0%"></stop>
            <stop stop-color="#FFFFFF" offset="100%"></stop>
        </linearGradient>
        <linearGradient x1="50%" y1="0%" x2="50%" y2="100%" id="linearGradient-5">
            <stop stop-color="#FAD961" offset="0%"></stop>
            <stop stop-color="#F76B1C" offset="100%"></stop>
        </linearGradient>
        <rect id="path-6" x="0" y="0" width="65.0608572" height="65.0589329"></rect>
        <rect id="path-8" x="0" y="0" width="65.0608572" height="65.0589329"></rect>
        <path d="M0,15.6685566 C0.241210695,9.71869282 3.09553725,5.21609319 8.56297966,2.16075772 C12.6741959,-0.0305981195 19.4174609,-1.33679735 25.9301497,2.16075772 C31.4779957,5.45730388 34.2519187,9.95990352 34.2519187,15.6685566 L0,15.6685566 Z" id="path-10"></path>
        <path d="M34.372524,-2.84217094e-14 C34.3063717,1.10253765 34.2251009,2.14157718 34.1287114,3.1171186 C37.5009615,4.10741349 39.5924763,6.12425103 40.4027914,9.1660064 C41.6607945,13.8882904 39.1320403,17.9436779 35.8197882,19.6586716 C33.7253198,20.7431302 31.1580269,20.7989695 28.1179095,19.8261896 C27.9514389,20.0228001 27.7851972,20.2080431 27.6186246,20.3823037 C19.779277,28.5834673 13.0032908,25.7649918 8.8534497,22.5309237 C6.49395538,20.6921147 4.54027494,17.8323917 3.10852407,14.6846962 C2.27974858,13.0710425 1.52498636,10.7892596 0.844237432,7.83934758 C0.361816042,5.74885489 0.0804035649,3.13573903 0,-2.84217094e-14 L34.372524,-2.84217094e-14 Z M33.6893799,6.52387979 L33.6473844,6.76927664 C33.4715016,7.79221099 33.2709952,8.71172626 33.0458652,9.52782244 C32.2645311,12.3601585 31.2389713,14.8724472 30.1027118,16.9027085 L30.0307315,16.8847486 C31.8800135,17.36717 33.447883,17.2465647 34.73434,16.5229326 C36.6640256,15.4374845 37.9906844,12.7841668 37.146447,10.0102438 C36.5879275,8.17510819 35.4355718,7.01298685 33.6893799,6.52387979 Z" id="path-12"></path>
    </defs>
    <g id="Illustration" stroke="none" stroke-width="1" fill="none" fill-rule="evenodd">
        <g id="App-Live" transform="translate(-44.000000, -46.000000)">
            <g id="Group-9" transform="translate(44.000000, 46.000000)">
                <g id="Group-4">
                    <g id="Group-5" transform="translate(0.000000, 11.780229)">
                        <g id="Group-7" transform="translate(93.398204, 77.813763) rotate(11.000000) translate(-93.398204, -77.813763) translate(67.398204, 45.813763)">
                            <polygon id="Rectangle" fill="#B0E0FC" points="-3.54722626e-16 51.2807662 25.1263141 0 51.1209179 12.6203812 25.9946038 63.9011474"></polygon>
                            <polygon id="Rectangle" fill="#ECFBFF" points="5.11209179 46.4736617 25.93757 3.83406884 47.2868491 14.2324283 26.4613708 56.8720212"></polygon>
                            <polygon id="Path-121" fill="#FFFFFF" points="8.88786027 47.9258605 32.7986245 43.9127511 37.3821712 34.8261253 8.26755756 39.8897112 5.11209179 46.1452461"></polygon>
                            <polygon id="Path-122" fill="#FFFFFF" points="22.6849073 10.8631951 26.1660061 3.83406884 32.5895852 6.91956937"></polygon>
                            <polygon id="Path-123" fill="#FFFFFF" points="14.0582524 28.7555163 42.0123296 24.9822878 44.7308032 19.1703442 16.3976758 23.7539608"></polygon>
                            <ellipse id="Oval" fill="#FFFFFF" transform="translate(14.389592, 54.826428) rotate(-64.000000) translate(-14.389592, -54.826428) " cx="14.3895917" cy="54.8264282" rx="1.89110506" ry="1.89282942"></ellipse>
                        </g>
                        <g id="Group-7" transform="translate(144.530389, 39.251870) rotate(-18.000000) translate(-144.530389, -39.251870) translate(118.530389, 7.251870)">
                            <polygon id="Rectangle" fill="#B0E0FC" points="-3.54722626e-16 51.2807662 25.1263141 0 51.1209179 12.6203812 25.9946038 63.9011474"></polygon>
                            <polygon id="Rectangle" fill="#ECFBFF" points="5.11209179 46.4736617 25.93757 3.83406884 47.2868491 14.2324283 26.4613708 56.8720212"></polygon>
                            <polygon id="Path-121" fill="#FFFFFF" points="8.88786027 47.9258605 32.7986245 43.9127511 37.3821712 34.8261253 8.26755756 39.8897112 5.11209179 46.1452461"></polygon>
                            <polygon id="Path-122" fill="#FFFFFF" points="22.6849073 10.8631951 26.1660061 3.83406884 32.5895852 6.91956937"></polygon>
                            <polygon id="Path-123" fill="#FFFFFF" points="14.0582524 28.7555163 42.0123296 24.9822878 44.7308032 19.1703442 16.3976758 23.7539608"></polygon>
                            <ellipse id="Oval" fill="#FFFFFF" transform="translate(14.389592, 54.826428) rotate(-64.000000) translate(-14.389592, -54.826428) " cx="14.3895917" cy="54.8264282" rx="1.89110506" ry="1.89282942"></ellipse>
                        </g>
                        <g id="Group-3" transform="translate(214.388350, 161.711386)">
                            <rect id="Rectangle" fill="url(#linearGradient-1)" transform="translate(44.730803, 31.631068) scale(-1, 1) translate(-44.730803, -31.631068) " x="28.1165049" y="29.0750221" width="33.2285966" height="5.11209179" rx="2.5560459"></rect>
                            <rect id="Rectangle" fill="#243E56" transform="translate(97.449250, 31.471315) scale(-1, 1) translate(-97.449250, -31.471315) " x="70.2912621" y="29.7140335" width="54.3159753" height="3.51456311" rx="1.75728155"></rect>
                            <rect id="Rectangle" fill="#243E56" transform="translate(46.807590, 17.413063) scale(-1, 1) translate(-46.807590, -17.413063) " x="0" y="15.3362754" width="93.6151809" height="4.15357458" rx="2.07678729"></rect>
                            <rect id="Rectangle" fill="url(#linearGradient-2)" transform="translate(63.741395, 3.354810) scale(-1, 1) translate(-63.741395, -3.354810) " x="15.3362754" y="0" width="96.8102383" height="6.70962048" rx="3.35481024"></rect>
                            <ellipse id="Oval" fill="url(#linearGradient-3)" transform="translate(15.496028, 31.950574) scale(-1, 1) translate(-15.496028, -31.950574) " cx="15.4960282" cy="31.9505737" rx="3.0353045" ry="2.87555163"></ellipse>
                            <circle id="Oval" fill="#243E56" transform="translate(102.082083, 17.413063) scale(-1, 1) translate(-102.082083, -17.413063) " cx="102.082083" cy="17.4130627" r="2.07678729"></circle>
                        </g>
                        <g id="Group-3" transform="translate(0.000000, 228.168579)">
                            <rect id="Rectangle" fill="url(#linearGradient-1)" transform="translate(44.730803, 31.631068) scale(-1, 1) translate(-44.730803, -31.631068) " x="28.1165049" y="29.0750221" width="33.2285966" height="5.11209179" rx="2.5560459"></rect>
                            <rect id="Rectangle" fill="#FFFFFF" transform="translate(97.449250, 31.471315) scale(-1, 1) translate(-97.449250, -31.471315) " x="70.2912621" y="29.7140335" width="54.3159753" height="3.51456311" rx="1.75728155"></rect>
                            <rect id="Rectangle" fill="url(#linearGradient-4)" transform="translate(46.807590, 17.413063) scale(-1, 1) translate(-46.807590, -17.413063) " x="0" y="15.3362754" width="93.6151809" height="4.15357458" rx="2.07678729"></rect>
                            <rect id="Rectangle" fill="url(#linearGradient-2)" transform="translate(63.741395, 3.354810) scale(-1, 1) translate(-63.741395, -3.354810) " x="15.3362754" y="0" width="96.8102383" height="6.70962048" rx="3.35481024"></rect>
                            <ellipse id="Oval" fill="url(#linearGradient-3)" transform="translate(15.496028, 31.950574) scale(-1, 1) translate(-15.496028, -31.950574) " cx="15.4960282" cy="31.9505737" rx="3.0353045" ry="2.87555163"></ellipse>
                            <circle id="Oval" fill="#FFFFFF" transform="translate(102.082083, 17.413063) scale(-1, 1) translate(-102.082083, -17.413063) " cx="102.082083" cy="17.4130627" r="2.07678729"></circle>
                        </g>
                        <g id="Group-2" transform="translate(30.033539, 6.431598)">
                            <g id="Group" transform="translate(62.026874, 65.818182)">
                                <path d="M93.0251834,8.17118531 L93.0251834,12.0369358 C89.6007688,11.3396104 88.0598218,12.2068022 88.4023425,14.6385112 C88.7448631,17.0702202 90.4498438,18.1252374 93.5172846,17.8035628 C95.9044358,25.1094056 97.35213,28.8931995 97.8603673,29.1549446 C98.6227233,29.5475622 96.7720152,52.2748489 93.5172846,53.9035751 C90.262554,55.5323014 88.7856509,55.0907764 87.3796474,56.5747182 C85.973644,58.0586599 52.0054088,65.3204479 50.33568,98.3690846 C49.2225275,120.401509 40.4991255,136.268984 24.165474,145.97151 C-5.03607626,146.773032 -7.46567466,122.930807 16.8766788,74.4448367 C50.0565542,23.7206791 70.2063487,51.0640022 74.1064669,25.0817935 C76.7065456,7.76032098 78.4386535,-0.589502125 79.3027905,0.0323241495 C81.0386025,3.14855453 83.5324848,6.15707608 93.0251834,8.17118531 Z" id="Path-32" fill="#142434"></path>
                                <path d="M7.27503653,133.074139 C3.34773234,123.882381 5.69554149,109.22726 14.318464,89.1087773 C27.3758573,67.196135 49.5068721,56.785385 64.2835142,50.1599677 C79.8067941,40.7128236 84.7239257,24.9779409 79.0349091,2.95531949" id="Path-59" stroke="#4987AD" stroke-width="0.5"></path>
                            </g>
                            <path d="M144.459354,68.1962042 C144.167345,93.2630209 150.128831,105.796429 162.343813,105.796429 C174.558795,105.796429 180.129669,97.8574579 179.056435,81.9795152 C185.660737,77.7231275 187.311813,74.1799316 184.009662,71.3499276 C179.056435,67.1049215 175.7772,62.5609288 175.063965,61.0042963 C174.388263,59.5295784 168.340301,60.0596462 156.920078,62.5944998 C153.214875,66.587387 149.260393,69.3984836 144.459354,68.1962042 Z" id="Path-98" fill="#FFC7AE"></path>
                            <path d="M144.459354,68.1962042 C144.167345,93.2630209 150.128831,105.796429 162.343813,105.796429 C174.558795,105.796429 180.129669,97.8574579 179.056435,81.9795152 C185.660737,77.7231275 187.311813,74.1799316 184.009662,71.3499276 C179.056435,67.1049215 175.7772,62.5609288 175.063965,61.0042963 C174.388263,59.5295784 168.340301,60.0596462 156.920078,62.5944998 C153.214875,66.587387 149.260393,69.3984836 144.459354,68.1962042 Z" id="Path-98" fill="#FFC7AE"></path>
                            <path d="M151.972077,101.739909 C151.807015,112.6862 150.282605,118.481739 147.398849,119.126525 C143.073214,120.093705 169.25901,128.994887 185.660737,115.367398 C183.160627,113.462418 180.888694,105.69309 178.844938,92.0594163 C177.65046,95.3784422 168.843509,113.875685 151.972077,101.739909 Z" id="Path-100" fill="#FFC7AE"></path>
                            <path d="M218.262427,84.789136 L248.497295,100.972748 C261.463321,53.9108394 243.403621,22.2899606 194.318194,6.11011215 C171.595085,1.35035754 155.080342,-0.628523735 144.773963,0.17346833 C144.818316,3.09555895 148.607533,5.07444022 156.141615,6.11011215 C151.010622,8.79707827 124.378046,15.0169072 122.15647,19.4827444 C121.341112,21.1217848 137.926481,14.9856683 138.486052,15.9638964 C136.853343,18.0021359 127.742544,21.3848429 125.755969,24.1275982 C125.092911,25.0430456 127.491162,26.5360073 128.930362,26.8667442 C127.611128,27.5777719 131.810105,26.3995234 129.456735,28.0763083 C127.148027,29.7395395 131.783631,28.9749286 130.564858,30.7114105 C129.346084,32.4478923 132.376125,32.5560587 133.410702,32.2055876 C136.637861,31.1123611 161.413103,20.857244 161.413103,23.2065926 C161.413103,25.5559413 152.975347,36.7636246 156.141615,38.2995565 C159.307884,39.8354883 165.339706,23.4263713 173.842287,25.7394159 C182.344869,28.0524606 220.603923,42.5714814 222.253275,72.6725266 C222.470359,76.026356 221.140077,80.0652257 218.262427,84.789136 Z" id="Path-103" fill="#FFC7AE"></path>
                            <path d="M150.257607,115.343367 C143.974776,115.158422 141.321338,117.13216 142.297294,121.26458 C137.402695,125.266275 108.314967,142.654139 105.737215,180.169133 C103.754876,179.583999 100.53743,180.805664 103.772272,187.700756 C105.928833,192.297484 117.038734,199.112449 137.101976,208.145652 L145.822844,185.758744 L134.250055,221.665409 C166.435971,237.86255 197.42955,236.251059 227.230791,216.830938 C227.568693,214.666997 224.579238,210.748708 218.262427,205.076071 C221.287201,198.030742 222.043394,194.508078 220.531007,194.508078 C218.262427,194.508078 212.737656,191.576082 214.823579,184.5608 C216.909503,177.545519 216.208133,147.131996 214.823579,147.131996 C213.439026,147.131996 237.922928,124.960339 242.920288,107.466327 C249.337257,105.157362 249.337257,101.53451 242.920288,96.5977717 L218.262427,84.789136 C213.260429,86.4956384 212.114146,88.9190652 214.823579,92.0594163 C211.754789,98.1926571 198.973263,113.059013 192.757703,113.059013 C191.160446,111.436452 188.39292,107.786482 183.522866,113.059013 C184.829207,114.341126 185.54183,115.102577 185.660737,115.343367 C173.776047,123.781246 160.863617,125.154968 146.923445,119.464534 C149.14622,118.458817 150.257607,117.085094 150.257607,115.343367 Z" id="Path-101" stroke="#142434" stroke-width="0.958517211" fill="#FFFFFF"></path>
                            <path d="M227.230791,216.830938 C272.42472,217.527997 289.71058,227.577419 279.08837,246.979204 C263.155055,276.081883 209.770157,299.038693 166.292091,299.038693 C122.814025,299.038693 91.706727,235.525273 94.2563606,229.523906 C95.9561163,225.522994 104.055374,220.047642 118.554135,213.097848 C145.638173,224.24902 175.397016,250.324154 227.230791,216.830938 Z" id="Path-105" fill="#8FD4FF"></path>
                            <path d="M197.550709,270.5503 C200.755281,282.370997 201.843337,289.104374 200.814876,290.750434 C203.973627,290.228523 207.314715,288.955001 210.83814,286.92987 C212.274687,274.140495 211.625915,267.745808 208.891823,267.745808 C207.274564,267.556491 206.220126,267.556491 201.448367,268.158851 C200.50152,268.278376 199.202301,269.075526 197.550709,270.5503 Z" id="Path-118" fill="#FFC7AE"></path>
                            <path d="M120.430387,214.590361 C79.0328426,190.714397 50.9938716,187.396683 36.313474,204.637219 C14.2928776,230.498023 30.1440662,297.740779 132.015701,299.038693 C167.5994,299.492053 190.015743,291.97769 201.483336,290.849338 C201.806404,288.871553 203.006283,287.689967 205.007183,285.264215 C205.961072,283.433298 206.171569,281.592149 205.987716,279.559811 C205.562838,274.863158 203.884792,271.181296 200.953577,268.514226 C140.598074,256.963694 107.523009,247.535312 101.728379,240.229082 C95.9337493,232.922852 102.167752,224.376612 120.430387,214.590361 Z" id="Path-104" fill="#8FD4FF"></path>
                            <path d="M179.75312,74.9578186 C178.706549,74.230747 178.011792,74.4669634 177.66885,75.6664677 C176.887278,75.1811446 176.531925,73.4360206 176.496492,70.4322442 C176.407236,62.8656857 170.381864,59.9354654 161.434118,66.4579755 C153.612722,76.1395772 129.3454,71.5552428 135.56233,49.8925949 C139.70695,35.4508295 150.125092,33.5079993 166.816757,44.0641043 C188.288676,47.4927117 196.725468,58.5955556 192.127133,77.3726362 C187.563491,96.7969361 187.683345,88.9526796 192.127133,112.284252 C189.331169,112.459914 187.102091,113.463681 185.439901,115.295553 C175.235928,103.236607 171.483683,95.0560993 174.183167,90.75403 C175.641954,87.2685412 176.413062,84.3546586 176.496492,82.0123824 C177.620148,82.0680361 181.687507,82.7625772 179.75312,74.9578186 Z" id="Path-31" fill="#142434"></path>
                            <path d="M146.108181,64.4643544 C146.785682,64.4643544 147.334906,63.9437843 147.334906,63.3016285 C147.334906,62.6594727 147.216347,63.1821055 146.108181,62.1389025 C145.000015,61.0956996 144.560191,61.8812695 144.881457,63.3016285 C145.202722,64.7219875 145.565503,64.5863116 146.108181,64.4643544 Z" id="Oval" fill="#4987AD"></path>
                            <path d="M135.513193,61.7282998 C140.976578,70.176497 152.832606,68.5743162 171.081275,56.9217572 C189.329944,45.2691983 193.281974,57.8183394 182.937363,94.5691805" id="Path-57" stroke="#4987AD" stroke-width="0.5" stroke-linecap="round"></path>
                            <path d="M139.729359,46.5011415 C137.059011,52.3207702 136.430973,56.8130463 137.845245,59.9779698 C139.966652,64.7253551 140.638195,59.7657235 139.729359,58.0217364 C138.820523,56.2777493 140.129077,47.7474171 141.157443,47.2146328 C142.185809,46.6818485 143.92294,44.6385402 141.989383,44.4067798 C140.991605,44.9743801 140.238264,45.6725007 139.729359,46.5011415 Z" id="Path-53" fill="#4987AD"></path>
                            <path d="M104.186217,188.853 L137.248203,207.356587 C133.289944,233.771665 126.790048,246.979204 117.748516,246.979204 C108.706983,246.979204 97.9924116,237.291504 85.6048005,217.916102 L52.1717652,174.708486 C29.5319358,169.621594 19.1333089,166.015278 20.9758846,163.889538 C22.8184604,161.763799 42.601312,161.763799 80.3244395,163.889538 L102.394916,189.923311 L104.186217,188.853 Z" id="Path-102" fill="#FFC7AE"></path>
                            <circle id="Oval" fill="#FFFFFF" cx="81.7921715" cy="59.2683142" r="2.23654016"></circle>
                            <circle id="Oval" fill="#FFFFFF" transform="translate(70.201038, 97.039520) rotate(-56.000000) translate(-70.201038, -97.039520) " cx="70.201038" cy="97.0395199" r="2.23654016"></circle>
                            <rect id="Rectangle" fill="#243E56" x="0" y="94.4184629" width="113.105031" height="69.9717564" rx="2.5560459"></rect>
                            <rect id="Rectangle" fill="url(#linearGradient-5)" transform="translate(35.465137, 129.399823) rotate(-1.000000) translate(-35.465137, -129.399823) " x="9.26566637" y="103.200353" width="52.3989409" height="52.3989409" rx="4.15357458"></rect>
                            <path d="M21.7347899,116.478116 L21.9036745,126.031693 L31.5790669,125.864934 L31.4101822,116.311358 L21.7347899,116.478116 Z M21.8420052,113.912363 L31.4196663,113.74729 C32.7420653,113.724498 33.8331756,114.786143 33.8567292,116.11854 L34.0273198,125.768617 C34.0508733,127.101015 32.9979511,128.199613 31.6755521,128.222405 L22.0978909,128.387479 C20.7754919,128.410271 19.6843817,127.348626 19.660828,126.016228 L19.4902375,116.366151 C19.4666839,115.033754 20.5196061,113.935155 21.8420052,113.912363 Z M22.2424672,133.465394 L22.4113518,143.018971 L32.0867441,142.852212 L31.9178595,133.298636 L22.2424672,133.465394 Z M22.3496824,130.899641 L31.9273436,130.734567 C32.562382,130.723622 33.1759041,130.967301 33.6329421,131.411997 C34.08998,131.856693 34.3530956,132.465978 34.3644065,133.105818 L34.534997,142.755895 C34.5461655,143.395738 34.3048874,144.013717 33.8638454,144.473891 C33.4228034,144.934066 32.8182653,145.198599 32.1832293,145.209683 L22.6055682,145.374757 C21.9705298,145.385702 21.3570077,145.142023 20.8999697,144.697328 C20.4429318,144.252632 20.1798161,143.643346 20.1685053,143.003506 L19.9979147,133.353429 C19.9867463,132.713587 20.2280244,132.095608 20.6690663,131.635433 C21.1101083,131.175259 21.7146464,130.910726 22.3496824,130.899641 Z M43.5726654,116.101734 C40.9008795,116.147783 38.7727752,118.323754 38.8194113,120.961901 C38.8660476,123.600049 41.0697641,125.701359 43.74155,125.655311 C46.4133358,125.609261 48.54144,123.43329 48.4948039,120.795143 C48.4481676,118.156996 46.2444512,116.055685 43.5726654,116.101734 L43.5726654,116.101734 Z M43.4273143,113.745105 C45.9936409,113.700874 48.3894103,115.039473 49.7121593,117.256666 C51.0349082,119.473858 51.0836798,122.2328 49.8401021,124.494224 C48.5965245,126.755648 46.2495267,128.17599 43.6832001,128.220221 C39.716003,128.288597 36.4426724,125.103662 36.3720113,121.106469 C36.3013506,117.109276 39.4601172,113.813481 43.4273143,113.745105 L43.4273143,113.745105 Z M38.8280079,133.179537 L38.9968925,142.733114 L48.6722848,142.566356 L48.5034002,133.012779 L38.8280079,133.179537 Z M38.9352232,130.613784 L48.5128842,130.448711 C49.1479226,130.437766 49.7614448,130.681444 50.2184827,131.12614 C50.6755207,131.570836 50.9386363,132.180122 50.9499472,132.819961 L51.1205377,142.470039 C51.1317062,143.109881 50.8904281,143.72786 50.4493861,144.188035 C50.0083441,144.648209 49.403806,144.912742 48.76877,144.923826 L39.1911089,145.0889 C38.5560705,145.099845 37.9425484,144.856167 37.4855104,144.411471 C37.0284725,143.966775 36.7653568,143.357489 36.754046,142.717649 L36.5834554,133.067572 C36.5722869,132.42773 36.8135651,131.809751 37.2546071,131.349576 C37.6956491,130.889402 38.3001872,130.624869 38.9352232,130.613784 Z" id="Shape" fill="#FFFFFF" fill-rule="nonzero"></path>
                            <g id="noun_Automated-Solution_2092307" transform="translate(71.249779, 100.005296)" fill="#FFFFFF" fill-rule="nonzero">
                                <g id="Group">
                                    <path d="M21.4572651,19.6906122 L20.116469,19.2168623 C20.0648999,18.9536679 19.9617618,18.7431124 19.8586236,18.479918 L20.4774526,17.1639461 C20.5805907,16.9533906 20.5290217,16.7428351 20.3743144,16.5849185 L19.3429328,15.532141 C19.1882255,15.3742243 18.9303801,15.3215855 18.7756729,15.4268632 L17.5380149,16.0585297 C17.2801695,15.953252 17.0223241,15.7953353 16.7644787,15.7426965 L16.3003569,14.4267246 C16.2487878,14.2161691 16.0425115,14.0582524 15.8362352,14.0582524 L14.3923009,14.0582524 C14.1860245,14.0582524 13.9797482,14.2161691 13.9281791,14.4267246 L13.3609192,15.7426965 C13.1030738,15.8479742 12.8452284,15.953252 12.587383,16.0585297 L11.349725,15.4268632 C11.1434487,15.3215855 10.9371724,15.3742243 10.7824651,15.532141 L9.80265255,16.5849185 C9.6479453,16.7428351 9.59637622,17.0060295 9.69951438,17.1639461 L10.3183434,18.479918 C10.2152052,18.6904735 10.112067,18.9536679 10.0089289,19.2168623 L8.66813274,19.6906122 C8.46185641,19.7432511 8.30714916,19.9538066 8.30714916,20.2170009 L8.30714916,21.6908895 C8.30714916,21.901445 8.46185641,22.1120005 8.66813274,22.2172782 L10.060498,22.743667 C10.112067,22.9542225 10.2152052,23.164778 10.3183434,23.3753335 L9.6479453,24.6913054 C9.54480714,24.9018609 9.59637622,25.1124164 9.75108347,25.2703331 L10.730896,26.2704717 C10.8856033,26.4283883 11.1434487,26.4810272 11.2981559,26.3757495 L12.6905212,25.6914441 C12.8967975,25.7967218 13.0515047,25.8493607 13.2577811,25.9546385 L13.7734719,27.428527 C13.825041,27.6390825 14.0313173,27.7969991 14.2375936,27.7969991 L15.6815279,27.7969991 C15.8878043,27.7969991 16.0940806,27.6390825 16.1456497,27.428527 L16.6613405,25.9546385 C16.8676168,25.9019996 17.0738931,25.7967218 17.2286004,25.6914441 L18.6209656,26.3757495 C18.8272419,26.4810272 19.0335183,26.4283883 19.1882255,26.2704717 L20.2196072,25.2703331 C20.3743144,25.1124164 20.4258835,24.849222 20.3227453,24.6913054 L19.6523473,23.3226946 C19.7554854,23.1121391 19.8586236,22.9015836 19.9101927,22.6910281 L21.3025579,22.1646394 C21.5088342,22.0593616 21.6635415,21.901445 21.6635415,21.6382506 L21.6635415,20.1643621 C21.8182487,19.9538066 21.6635415,19.7958899 21.4572651,19.6906122 Z M15.1765225,23.3239188 C13.8741893,23.3239188 12.7802295,22.2820523 12.7802295,20.9276258 C12.7802295,19.6252926 13.822096,18.5313327 15.1765225,18.5313327 C16.530949,18.5313327 17.5728155,19.6252926 17.5728155,20.9276258 C17.5207222,22.2299589 16.4788557,23.3239188 15.1765225,23.3239188 Z" id="Shape"></path>
                                    <path d="M13.150116,7.09890333 L11.8093198,6.63617088 C11.7577508,6.3790973 11.6546126,6.17343844 11.5514744,5.91636485 L12.1703034,4.63099695 C12.2734416,4.42533808 12.2218725,4.21967922 12.0671653,4.06543507 L11.0357836,3.03714074 C10.8810764,2.88289659 10.623231,2.83148188 10.4685237,2.93431131 L9.23086573,3.5512879 C8.97302032,3.44845847 8.71517491,3.29421432 8.45732949,3.24279961 L7.99320775,1.9574317 C7.94163867,1.75177283 7.73536234,1.59752868 7.52908601,1.59752868 L6.08515171,1.59752868 C5.87887538,1.59752868 5.67259905,1.75177283 5.62102997,1.9574317 L5.05377006,3.24279961 C4.79592465,3.34562904 4.53807924,3.44845847 4.28023383,3.5512879 L3.04257585,2.93431131 C2.83629953,2.83148188 2.6300232,2.88289659 2.47531595,3.03714074 L1.49550339,4.06543507 C1.34079614,4.21967922 1.28922706,4.4767528 1.39236522,4.63099695 L2.01119421,5.91636485 C1.90805604,6.12202372 1.80491788,6.3790973 1.70177972,6.63617088 L0.360983576,7.09890333 C0.154707247,7.15031804 0,7.35597691 0,7.61305049 L0,9.05266255 C0,9.25832141 0.154707247,9.46398028 0.360983576,9.56680971 L1.7533488,10.0809569 C1.80491788,10.2866157 1.90805604,10.4922746 2.01119421,10.6979335 L1.34079614,11.9833014 C1.23765797,12.1889602 1.28922706,12.3946191 1.4439343,12.5488633 L2.42374687,13.5257429 C2.57845411,13.679987 2.83629953,13.7314017 2.99100677,13.6285723 L4.38337199,12.960181 C4.58964832,13.0630104 4.74435557,13.1144251 4.9506319,13.2172546 L5.46632272,14.6568666 C5.5178918,14.8625255 5.72416813,15.0167696 5.93044446,15.0167696 L7.37437877,15.0167696 C7.5806551,15.0167696 7.78693142,14.8625255 7.83850051,14.6568666 L8.35419133,13.2172546 C8.56046766,13.1658399 8.76674399,13.0630104 8.92145124,12.960181 L10.3138165,13.6285723 C10.5200928,13.7314017 10.7263691,13.679987 10.8810764,13.5257429 L11.912458,12.5488633 C12.0671653,12.3946191 12.1187343,12.1375455 12.0155962,11.9833014 L11.3451981,10.6465188 C11.4483363,10.4408599 11.5514744,10.235201 11.6030435,10.0295422 L12.9954087,9.51539499 C13.2016851,9.41256556 13.3563923,9.25832141 13.3563923,9.00124783 L13.3563923,7.56163578 C13.5110996,7.35597691 13.3563923,7.20173276 13.150116,7.09890333 Z M6.86937335,10.5436893 C5.56704018,10.5436893 4.47308032,9.50182279 4.47308032,8.14739629 C4.47308032,6.84506313 5.51494685,5.75110327 6.86937335,5.75110327 C8.22379984,5.75110327 9.26566637,6.84506313 9.26566637,8.14739629 C9.21357305,9.44972946 8.17170651,10.5436893 6.86937335,10.5436893 Z" id="Shape"></path>
                                    <path d="M30.9481244,6.91825671 L29.1828553,6.28932429 C29.0790159,5.92244704 28.9232568,5.60798082 28.7674978,5.29351461 L29.546293,3.61636146 C29.6501324,3.40671732 29.5982127,3.19707318 29.4424537,3.03984007 L28.1963813,1.78197521 C28.0406222,1.62474211 27.7810238,1.57233107 27.6252648,1.67715314 L26.0157546,2.46331868 C25.7042365,2.30608557 25.3407988,2.14885246 24.977361,2.04403039 L24.4062445,0.36687725 C24.3543248,0.157233107 24.1466461,0 23.8870477,0 L22.1217785,0 C21.9140997,0 21.706421,0.157233107 21.6025816,0.36687725 L21.0314651,2.04403039 C20.6680274,2.14885246 20.3045896,2.30608557 19.9930715,2.46331868 L18.3835613,1.67715314 C18.1758826,1.57233107 17.9682039,1.62474211 17.8124448,1.78197521 L16.5663725,3.03984007 C16.4106134,3.19707318 16.3586937,3.45912836 16.4625331,3.61636146 L17.2413283,5.29351461 C17.0855693,5.60798082 16.9817299,5.92244704 16.8259709,6.28932429 L15.0607017,6.91825671 C14.8530229,6.97066775 14.6972639,7.18031189 14.6972639,7.38995604 L14.6972639,9.17193125 C14.6972639,9.38157539 14.8530229,9.59121954 15.0607017,9.64363057 L16.8778906,10.272563 C16.9817299,10.5870292 17.0855693,10.8490844 17.2413283,11.1635506 L16.4106134,12.9455258 C16.3067741,13.15517 16.3586937,13.3648141 16.5144528,13.5220472 L17.7605252,14.7799121 C17.9162842,14.9371452 18.1758826,14.9895562 18.3316417,14.8847341 L20.0969109,14.0461576 C20.3565093,14.1509796 20.6161077,14.3082128 20.9276258,14.3606238 L21.6025816,16.2474211 C21.6545013,16.4570652 21.8621801,16.6142983 22.1217785,16.6142983 L23.8870477,16.6142983 C24.0947264,16.6142983 24.3024051,16.4570652 24.4062445,16.2474211 L25.0812004,14.3606238 C25.3407988,14.2558017 25.6523169,14.1509796 25.9119153,14.0461576 L27.6771845,14.8847341 C27.8848632,14.9895562 28.0925419,14.9371452 28.248301,14.7799121 L29.4943733,13.5220472 C29.6501324,13.3648141 29.7020521,13.1027589 29.5982127,12.9455258 L28.7674978,11.1635506 C28.9232568,10.8490844 29.0270962,10.5870292 29.1309356,10.272563 L30.9481244,9.64363057 C31.1558032,9.59121954 31.3115622,9.38157539 31.3115622,9.17193125 L31.3115622,7.38995604 C31.2596425,7.18031189 31.1558032,6.97066775 30.9481244,6.91825671 Z M23.0044131,11.1827008 C21.4068844,11.1827008 20.1288614,9.90467785 20.1288614,8.30714916 C20.1288614,6.70962048 21.4068844,5.43159753 23.0044131,5.43159753 C24.6019417,5.43159753 25.8799647,6.70962048 25.8799647,8.30714916 C25.8799647,9.90467785 24.6019417,11.1827008 23.0044131,11.1827008 Z" id="Shape"></path>
                                </g>
                            </g>
                            <path d="M135.994194,126.204766 C151.633434,128.434864 156.407567,132.498354 150.316594,138.395235 C141.180134,147.240557 132.019106,134.014425 128.902754,145.485696 C125.786402,156.956966 148.645683,141.664644 154.964346,156.956966 C161.28301,172.249288 118.414397,146.77749 116.145937,154.385297 C115.348899,154.929751 114.228762,157.996965 112.785525,163.586937" id="Path-79" stroke="#529BD2" stroke-width="0.5"></path>
                            <path d="M207.4845,220.662409 C192.385768,224.651218 184.274704,224.651218 183.15131,220.662409 C181.466219,214.679196 195.03462,208.982554 192.155673,206.911393 C189.276725,204.840232 165.229512,204.405225 170.815516,196.525934 C176.401521,188.646643 198.104416,201.316732 203.773974,187.647118 C209.443531,173.977503 198.70238,174.175721 200.141741,169.581758 C201.581102,164.987795 206.554538,163.771464 212.151809,164.987795 C214.284999,165.638787 215.682615,166.253979 216.344657,166.833369" id="Path-80" stroke="#529BD2" stroke-width="0.5"></path>
                            <path d="M207.998235,121.092674 C208.271899,114.31512 212.808523,107.51695 215.10799,108.951456 C217.407457,110.385962 214.406515,100.892451 207.998235,108.951456 C204.469072,108.951456 201.60812,111.669361 201.60812,115.022065 C201.60812,118.37477 207.724571,127.870228 207.998235,121.092674 Z" id="Oval" stroke="#529BD2" stroke-width="0.5"></path>
                            <path d="M205.122683,144.736099 C205.122683,140.552988 197.454545,148.240765 197.454545,152.563989 C197.454545,155.466255 204.998478,160.301195 207.270185,156.988611 C208.38242,155.366759 205.122683,146.111005 205.122683,144.736099 Z" id="Oval" stroke="#529BD2" stroke-width="0.5"></path>
                            <ellipse id="Oval" stroke="#529BD2" stroke-width="0.5" transform="translate(128.121801, 179.082966) scale(1, -1) translate(-128.121801, -179.082966) " cx="128.121801" cy="179.082966" rx="6.39011474" ry="6.54986761"></ellipse>
                            <path d="M138.522855,209.270147 C147.680043,219.552097 152.258637,222.342872 152.258637,217.642472 C152.258637,212.942073 150.564316,210.151297 147.175674,209.270147 C155.810152,209.579148 157.504473,207.665935 152.258637,203.530508 C144.389883,197.327367 156.01376,198.676006 151.445719,195.252078 C148.400359,192.96946 145.790448,192.331009 143.615985,193.336725" id="Path-107" stroke="#529BD2" stroke-width="0.5"></path>
                            <path d="M149.351785,168.985111 L149.948155,172.533098 L151.445719,168.985111 C147.248634,181.968347 142.618378,194.795647 137.248203,207.356587 L104.186217,188.853 C101.16765,182.555594 101.684649,179.660972 105.737215,180.169133 C109.78978,180.677294 110.645474,182.498528 108.304297,185.632833 L110.904069,184.031555 L110.904069,186.330859 L113.105031,186.330859 L135.526377,199.578333 L134.511915,202.994062" id="Path-108" stroke="#529BD2" stroke-width="0.5"></path>
                            <path d="M218.262427,84.789136 C228.035288,88.8896146 241.601799,94.9947205 246.297217,99.9058164 C248.810522,103.31888 247.684879,105.83905 242.920288,107.466327 C238.155698,109.093605 230.683223,105.103409 220.502863,95.4957416 L223.192861,90.4487939 L219.295167,94.5691805 L221.434755,88.3632453 L218.262427,93.3117198 L215.87671,92.0594163" id="Path-109" stroke="#529BD2" stroke-width="0.5"></path>
                            <g id="Group-6" transform="translate(66.457193, 136.748455)" fill="#FFFFFF">
                                <rect id="Rectangle" transform="translate(23.643425, 14.218005) scale(-1, 1) translate(-23.643425, -14.218005) " x="15.6557811" y="13.0997352" width="15.9752868" height="2.23654016" rx="1.11827008"></rect>
                                <rect id="Rectangle" transform="translate(22.205649, 8.626655) scale(-1, 1) translate(-22.205649, -8.626655) " x="0" y="7.66813769" width="44.4112974" height="1.91703442" rx="0.958517211"></rect>
                                <rect id="Rectangle" transform="translate(28.436011, 1.597529) scale(-1, 1) translate(-28.436011, -1.597529) " x="5.43159753" y="0" width="46.0088261" height="3.19505737" rx="1.59752868"></rect>
                                <ellipse id="Oval" transform="translate(5.591350, 14.377758) scale(-1, 1) translate(-5.591350, -14.377758) " cx="5.5913504" cy="14.3777582" rx="1.43777582" ry="1.27802295"></ellipse>
                            </g>
                            <path d="M210.373357,129.098536 C214.666188,140.030104 216.656621,152.608382 216.344657,166.833369 C216.032692,181.058356 214.681229,189.384985 212.290268,191.813256 C218.298624,197.98846 220.964219,199.495958 220.287051,196.335749 C219.820303,194.157524 221.230225,198.449507 219.032577,201.106437 C216.447643,204.231592 210.363115,206.023782 212.290268,206.023782" id="Path-110" stroke="#529BD2" stroke-width="0.5"></path>
                            <path d="M150.466536,115.295553 C143.774757,115.502478 141.09891,117.453777 142.438997,121.149451 C144.449127,126.692961 166.051052,129.304687 178.440135,124.796161" id="Path-111" stroke="#142434" stroke-width="0.5"></path>
                            <path d="M37.4983145,203.205649 C20.8458551,224.836271 24.9480126,248.404382 49.8047868,273.909981" id="Path-99" stroke="#142434" stroke-width="0.5" stroke-linecap="round"></path>
                            <path d="M53.8571767,277.246047 C86.6615987,301.019932 135.858662,305.4585 201.448367,290.561752 C201.498606,288.598648 207.34225,284.908865 206.027473,278.211739 C205.150956,273.746988 203.915077,271.207659 202.319838,270.593751 L198.114625,270.593751 L201.448367,268.158851 L189.66216,265.958342" id="Path-112" stroke="#142434" stroke-width="0.5"></path>
                            <path d="M76.4778029,232.714014 C108.332768,246.423113 133.25839,254.345297 151.254667,256.480566 C177.242954,262.894315 169.485468,288.052812 184.494138,286.554966" id="Path-113" stroke="#142434" stroke-width="0.5"></path>
                            <path d="M32.2700794,245.389216 C42.3023682,262.225772 55.3210437,260.146049 71.326106,239.150044 C73.0454965,237.565336 71.286763,236.478981 70.201038,234.098367 C64.7515951,222.149653 66.8438501,221.688202 76.4778029,232.714014" id="Path-114" stroke="#142434" stroke-width="0.5"></path>
                            <path d="M71.326106,218.164481 C75.1092111,223.284425 77.3195777,228.198743 76.4778029,232.714014" id="Path-115" stroke="#142434" stroke-width="0.5"></path>
                            <path d="M175.913276,261.374424 C208.249439,238.448893 228.941722,226.986128 237.990124,226.986128" id="Path-116" stroke="#142434" stroke-width="0.5"></path>
                            <line x1="153.041169" y1="256.802723" x2="190.407328" y2="266.125407" id="Path-117" stroke="#142434" stroke-width="0.5"></line>
                            <path d="M205.45595,268.469312 C202.128888,267.937696 210.324336,265.00345 230.042295,259.666574 C237.070279,257.730794 243.154635,258.678127 244.757724,263.323374 C246.466527,268.274946 244.714989,269.863399 243.646485,273.37436 C243.165543,274.954673 238.311055,283.503229 211.580353,289.584016 C207.991962,288.908881 208.015359,288.927054 205.688726,289.584016 C212.411726,285.230305 212.334134,278.192071 205.45595,268.469312 Z" id="Path-119" fill="#DDDDDD"></path>
                            <ellipse id="Oval" stroke="#142434" stroke-width="0.639011474" cx="162.788173" cy="78.9236225" rx="4.31332745" ry="4.15928004"></ellipse>
                            <ellipse id="Oval" stroke="#142434" stroke-width="0.639011474" cx="150.007944" cy="79.8821397" rx="4.31332745" ry="4.15928004"></ellipse>
                            <path d="M151.972077,101.739909 C162.090614,105.366861 169.196991,102.532415 173.291207,93.2365718 C173.202622,95.7757256 173.18546,96.93154 173.239721,96.7040151 C170.677741,105.493733 163.588526,108.524538 151.972077,105.796429 C152.157268,103.625179 152.157268,102.273006 151.972077,101.739909 Z" id="Path-120" fill="#E19A7A"></path>
                        </g>
                    </g>
                    <path d="M176.956985,39.9262905 L160.276839,48.3827743 C160.091042,50.5243744 161.847673,50.8648204 165.546733,49.4041124 C169.245792,47.9434045 176.500585,45.3549282 187.311111,41.6386836" id="Path-106" stroke="#142434" stroke-width="0.5"></path>
                    <path d="M161.341841,47.9514218 C159.478418,47.7151417 158.675471,47.3154785 158.933001,46.7524321 C159.190531,46.1893857 164.084974,43.2200408 173.616332,37.8443973" id="Path-129" stroke="#142434" stroke-width="0.5"></path>
                    <path d="M160.393437,45.4010392 C159.140778,45.7570073 158.184647,45.1370434 157.226239,44.5245714 L171.095322,36.0268331" id="Path-130" stroke="#142434" stroke-width="0.5"></path>
                    <path d="M157.889155,44.0337742 C156.086199,43.9530809 155.386316,43.3882979 155.789508,42.3394252" id="Path-131" stroke="#142434" stroke-width="0.5"></path>
                    <path d="M177.368445,18.211827 C177.618684,18.9281485 178.570676,19.2863093 180.224419,19.2863093" id="Path-132" stroke="#FFFFFF" stroke-width="0.5"></path>
                    <path d="M157.226239,41.7879583 C156.502456,42.7203859 156.723429,43.1865997 157.889155,43.1865997" id="Path-133" stroke="#FFFFFF" stroke-width="0.5" stroke-linecap="round"></path>
                    <g id="Group-6" transform="translate(296.820830, 4.792586)">
                        <g id="Group-8" transform="translate(0.000000, 84.669020)">
                            <mask id="mask-7" fill="white">
                                <use xlink:href="#path-6"></use>
                            </mask>
                            <g id="Mask"></g>
                            <g mask="url(#mask-7)" stroke-linecap="square">
                                <g transform="translate(-0.909942, -60.964315)">
                                    <line x1="0.106339383" y1="62.867496" x2="71.8562099" y2="135.007444" id="Line-3" stroke="#142434" stroke-width="0.5"></line>
                                    <g id="Group-7" stroke="none" stroke-width="1" fill-rule="evenodd">
                                        <line x1="0.106339383" y1="58.3769606" x2="71.8562099" y2="130.516908" id="Line-3-Copy-16" stroke="#142434" stroke-width="0.5"></line>
                                        <line x1="0.106339383" y1="53.8864251" x2="71.8562099" y2="126.026373" id="Line-3-Copy-17" stroke="#142434" stroke-width="0.5"></line>
                                        <line x1="0.106339383" y1="49.3958897" x2="71.8562099" y2="121.535838" id="Line-3-Copy-18" stroke="#142434" stroke-width="0.5"></line>
                                        <line x1="0.106339383" y1="44.9053543" x2="71.8562099" y2="117.045302" id="Line-3-Copy-19" stroke="#142434" stroke-width="0.5"></line>
                                        <line x1="0.106339383" y1="40.4148189" x2="71.8562099" y2="112.554767" id="Line-3-Copy-20" stroke="#142434" stroke-width="0.5"></line>
                                        <line x1="0.106339383" y1="35.9242834" x2="71.8562099" y2="108.064231" id="Line-3-Copy-21" stroke="#142434" stroke-width="0.5"></line>
                                        <line x1="0.106339383" y1="31.433748" x2="71.8562099" y2="103.573696" id="Line-3-Copy-22" stroke="#142434" stroke-width="0.5"></line>
                                        <line x1="0.106339383" y1="26.9432126" x2="71.8562099" y2="99.0831604" id="Line-3-Copy-23" stroke="#142434" stroke-width="0.5"></line>
                                        <line x1="0.106339383" y1="22.4526771" x2="71.8562099" y2="94.592625" id="Line-3-Copy-24" stroke="#142434" stroke-width="0.5"></line>
                                        <line x1="0.106339383" y1="17.9621417" x2="71.8562099" y2="90.1020896" id="Line-3-Copy-25" stroke="#142434" stroke-width="0.5"></line>
                                        <line x1="0.106339383" y1="13.4716063" x2="71.8562099" y2="85.6115542" id="Line-3-Copy-26" stroke="#142434" stroke-width="0.5"></line>
                                        <line x1="0.106339383" y1="8.98107086" x2="71.8562099" y2="81.1210187" id="Line-3-Copy-27" stroke="#142434" stroke-width="0.5"></line>
                                        <line x1="0.106339383" y1="4.49053543" x2="71.8562099" y2="76.6304833" id="Line-3-Copy-28" stroke="#142434" stroke-width="0.5"></line>
                                        <line x1="0.106339383" y1="0" x2="71.8562099" y2="72.1399479" id="Line-3-Copy-29" stroke="#142434" stroke-width="0.5"></line>
                                        <line x1="0.106339383" y1="70.9932268" x2="71.8562099" y2="143.133175" id="Line-3-Copy-2" stroke="#142434" stroke-width="0.5"></line>
                                        <line x1="0.106339383" y1="75.0560922" x2="71.8562099" y2="147.19604" id="Line-3-Copy-3" stroke="#142434" stroke-width="0.5"></line>
                                        <line x1="0.106339383" y1="79.1189576" x2="71.8562099" y2="151.258905" id="Line-3-Copy-4" stroke="#142434" stroke-width="0.5"></line>
                                        <line x1="0.106339383" y1="83.1818229" x2="71.8562099" y2="155.321771" id="Line-3-Copy-5" stroke="#142434" stroke-width="0.5"></line>
                                        <line x1="0.106339383" y1="87.2446883" x2="71.8562099" y2="159.384636" id="Line-3-Copy-6" stroke="#142434" stroke-width="0.5"></line>
                                        <line x1="0.106339383" y1="91.3075537" x2="71.8562099" y2="163.447502" id="Line-3-Copy-7" stroke="#142434" stroke-width="0.5"></line>
                                        <line x1="0.106339383" y1="95.3704191" x2="71.8562099" y2="167.510367" id="Line-3-Copy-8" stroke="#142434" stroke-width="0.5"></line>
                                        <line x1="0.106339383" y1="99.4332845" x2="71.8562099" y2="171.573232" id="Line-3-Copy-9" stroke="#142434" stroke-width="0.5"></line>
                                        <line x1="0.106339383" y1="103.49615" x2="71.8562099" y2="175.636098" id="Line-3-Copy-10" stroke="#142434" stroke-width="0.5"></line>
                                        <line x1="0.106339383" y1="107.559015" x2="71.8562099" y2="179.698963" id="Line-3-Copy-11" stroke="#142434" stroke-width="0.5"></line>
                                        <line x1="0.106339383" y1="111.621881" x2="71.8562099" y2="183.761829" id="Line-3-Copy-12" stroke="#142434" stroke-width="0.5"></line>
                                        <line x1="0.106339383" y1="115.684746" x2="71.8562099" y2="187.824694" id="Line-3-Copy-13" stroke="#142434" stroke-width="0.5"></line>
                                        <line x1="0.106339383" y1="119.747611" x2="71.8562099" y2="191.887559" id="Line-3-Copy-14" stroke="#142434" stroke-width="0.5"></line>
                                        <line x1="0.106339383" y1="123.810477" x2="71.8562099" y2="195.950425" id="Line-3-Copy-15" stroke="#142434" stroke-width="0.5"></line>
                                    </g>
                                    <line x1="0.106339383" y1="66.9303614" x2="71.8562099" y2="139.070309" id="Line-3-Copy" stroke="#142434" stroke-width="0.5"></line>
                                </g>
                            </g>
                        </g>
                        <g id="Group-8">
                            <mask id="mask-9" fill="white">
                                <use xlink:href="#path-8"></use>
                            </mask>
                            <g id="Mask"></g>
                            <g mask="url(#mask-9)" stroke-linecap="square">
                                <g transform="translate(-0.909942, -60.964315)">
                                    <line x1="0.106339383" y1="62.867496" x2="71.8562099" y2="135.007444" id="Line-3" stroke="#142434" stroke-width="0.5"></line>
                                    <g id="Group-7" stroke="none" stroke-width="1" fill-rule="evenodd">
                                        <line x1="0.106339383" y1="58.3769606" x2="71.8562099" y2="130.516908" id="Line-3-Copy-16" stroke="#142434" stroke-width="0.5"></line>
                                        <line x1="0.106339383" y1="53.8864251" x2="71.8562099" y2="126.026373" id="Line-3-Copy-17" stroke="#142434" stroke-width="0.5"></line>
                                        <line x1="0.106339383" y1="49.3958897" x2="71.8562099" y2="121.535838" id="Line-3-Copy-18" stroke="#142434" stroke-width="0.5"></line>
                                        <line x1="0.106339383" y1="44.9053543" x2="71.8562099" y2="117.045302" id="Line-3-Copy-19" stroke="#142434" stroke-width="0.5"></line>
                                        <line x1="0.106339383" y1="40.4148189" x2="71.8562099" y2="112.554767" id="Line-3-Copy-20" stroke="#142434" stroke-width="0.5"></line>
                                        <line x1="0.106339383" y1="35.9242834" x2="71.8562099" y2="108.064231" id="Line-3-Copy-21" stroke="#142434" stroke-width="0.5"></line>
                                        <line x1="0.106339383" y1="31.433748" x2="71.8562099" y2="103.573696" id="Line-3-Copy-22" stroke="#142434" stroke-width="0.5"></line>
                                        <line x1="0.106339383" y1="26.9432126" x2="71.8562099" y2="99.0831604" id="Line-3-Copy-23" stroke="#142434" stroke-width="0.5"></line>
                                        <line x1="0.106339383" y1="22.4526771" x2="71.8562099" y2="94.592625" id="Line-3-Copy-24" stroke="#142434" stroke-width="0.5"></line>
                                        <line x1="0.106339383" y1="17.9621417" x2="71.8562099" y2="90.1020896" id="Line-3-Copy-25" stroke="#142434" stroke-width="0.5"></line>
                                        <line x1="0.106339383" y1="13.4716063" x2="71.8562099" y2="85.6115542" id="Line-3-Copy-26" stroke="#142434" stroke-width="0.5"></line>
                                        <line x1="0.106339383" y1="8.98107086" x2="71.8562099" y2="81.1210187" id="Line-3-Copy-27" stroke="#142434" stroke-width="0.5"></line>
                                        <line x1="0.106339383" y1="4.49053543" x2="71.8562099" y2="76.6304833" id="Line-3-Copy-28" stroke="#142434" stroke-width="0.5"></line>
                                        <line x1="0.106339383" y1="0" x2="71.8562099" y2="72.1399479" id="Line-3-Copy-29" stroke="#142434" stroke-width="0.5"></line>
                                        <line x1="0.106339383" y1="70.9932268" x2="71.8562099" y2="143.133175" id="Line-3-Copy-2" stroke="#142434" stroke-width="0.5"></line>
                                        <line x1="0.106339383" y1="75.0560922" x2="71.8562099" y2="147.19604" id="Line-3-Copy-3" stroke="#142434" stroke-width="0.5"></line>
                                        <line x1="0.106339383" y1="79.1189576" x2="71.8562099" y2="151.258905" id="Line-3-Copy-4" stroke="#142434" stroke-width="0.5"></line>
                                        <line x1="0.106339383" y1="83.1818229" x2="71.8562099" y2="155.321771" id="Line-3-Copy-5" stroke="#142434" stroke-width="0.5"></line>
                                        <line x1="0.106339383" y1="87.2446883" x2="71.8562099" y2="159.384636" id="Line-3-Copy-6" stroke="#142434" stroke-width="0.5"></line>
                                        <line x1="0.106339383" y1="91.3075537" x2="71.8562099" y2="163.447502" id="Line-3-Copy-7" stroke="#142434" stroke-width="0.5"></line>
                                        <line x1="0.106339383" y1="95.3704191" x2="71.8562099" y2="167.510367" id="Line-3-Copy-8" stroke="#142434" stroke-width="0.5"></line>
                                        <line x1="0.106339383" y1="99.4332845" x2="71.8562099" y2="171.573232" id="Line-3-Copy-9" stroke="#142434" stroke-width="0.5"></line>
                                        <line x1="0.106339383" y1="103.49615" x2="71.8562099" y2="175.636098" id="Line-3-Copy-10" stroke="#142434" stroke-width="0.5"></line>
                                        <line x1="0.106339383" y1="107.559015" x2="71.8562099" y2="179.698963" id="Line-3-Copy-11" stroke="#142434" stroke-width="0.5"></line>
                                        <line x1="0.106339383" y1="111.621881" x2="71.8562099" y2="183.761829" id="Line-3-Copy-12" stroke="#142434" stroke-width="0.5"></line>
                                        <line x1="0.106339383" y1="115.684746" x2="71.8562099" y2="187.824694" id="Line-3-Copy-13" stroke="#142434" stroke-width="0.5"></line>
                                        <line x1="0.106339383" y1="119.747611" x2="71.8562099" y2="191.887559" id="Line-3-Copy-14" stroke="#142434" stroke-width="0.5"></line>
                                        <line x1="0.106339383" y1="123.810477" x2="71.8562099" y2="195.950425" id="Line-3-Copy-15" stroke="#142434" stroke-width="0.5"></line>
                                    </g>
                                    <line x1="0.106339383" y1="66.9303614" x2="71.8562099" y2="139.070309" id="Line-3-Copy" stroke="#142434" stroke-width="0.5"></line>
                                </g>
                            </g>
                        </g>
                    </g>
                    <rect id="Rectangle" fill="#91D5FF" x="290.430715" y="0" width="65.1791703" height="65.1791703"></rect>
                    <rect id="Rectangle" fill="#91D5FF" x="290.430715" y="83.0714916" width="65.1791703" height="65.1791703"></rect>
                </g>
                <g id="Logo" transform="translate(304.169462, 92.337158)">
                    <path d="M27.3532928,5.9498638 L24.5793698,0.884439214 C24.4185627,0.562824954 24.4587644,0.32161426 24.6999751,0.16080713 C25.0215894,-9.65894031e-15 25.2628001,0.0804035649 25.4236072,0.402017825 L28.1975302,5.34683707 L27.3532928,5.9498638 Z" id="Antenna-2" fill="#FFFFFF" transform="translate(26.340208, 3.015134) scale(-1, 1) translate(-26.340208, -3.015134) "></path>
                    <g id="Head-Base-+-Shadow" transform="translate(0.000000, 3.698564)">
                        <mask id="mask-11" fill="white">
                            <use xlink:href="#path-10"></use>
                        </mask>
                        <use id="Mask" fill="#FFFFFF" xlink:href="#path-10"></use>
                        <path d="M19.6586716,0.120605347 C21.8295679,0.683430302 23.5984463,1.48746595 24.9653069,2.5327123 C29.0129785,5.62799054 31.0632694,10.0099848 31.1161796,15.6786952 L34.2519187,15.6786952 L34.2519187,5.18602994 L23.6386481,0.120605347 L19.6586716,0.120605347 Z" id="Path" fill="#FFFFFF" mask="url(#mask-11)"></path>
                    </g>
                    <path d="M8.92479571,5.86946024 L6.15087272,0.804035649 C5.99006559,0.48242139 6.03026737,0.241210695 6.27147806,0.0804035649 C6.59309232,-0.0804035649 6.83430302,3.33066907e-15 6.99511015,0.32161426 L9.76903314,5.2664335 L8.92479571,5.86946024 Z" id="Antenna-1" fill="#FFFFFF"></path>
                    <g id="Eyes" transform="translate(7.839348, 10.211253)" fill="#91D5FF">
                        <circle id="Oval" cx="1.50756684" cy="1.50756684" r="1.50756684"></circle>
                        <circle id="Oval-Copy" cx="17.0656567" cy="1.50756684" r="1.50756684"></circle>
                    </g>
                    <g id="Bottom-with-Shadow" transform="translate(0.000000, 21.306945)">
                        <mask id="mask-13" fill="white">
                            <use xlink:href="#path-12"></use>
                        </mask>
                        <use id="Mask" fill="#FFFFFF" xlink:href="#path-12"></use>
                        <path d="M30.7543636,-6.77236045e-15 C30.7543636,5.86946024 29.7091172,11.2564991 27.6186246,16.1611165 C25.5281319,21.065734 22.7140071,24.1612713 19.1762502,25.4477283 C20.2355853,26.0469507 21.6828494,25.9665471 23.5180427,25.2065176 C25.353236,24.4464881 27.8859483,22.8786185 31.1161796,20.5029091 C31.1417767,19.627501 31.1819784,18.9842725 31.236785,18.5732235 C31.2915915,18.1621745 31.4121969,17.6797531 31.598601,17.1259593 L34.9755507,7.23632084 C35.3020675,6.54553673 35.58348,6.02291356 35.8197882,5.66845133 C36.0560963,5.31398909 36.3777106,4.87176949 36.784631,4.34179251 L34.9755507,-0.361816042 L30.7543636,-6.77236045e-15 Z" id="Path-4" fill="#FFFFFF" mask="url(#mask-13)"></path>
                    </g>
                </g>
                <g id="appium-logo" transform="translate(300.654898, 10.543689)" fill="#FFFFFF" fill-rule="nonzero" stroke="#91D5FF" stroke-width="0.639011474">
                    <path d="M34.9858782,4.33722511 C29.6798326,-0.205135374 17.9394116,-2.4553756 9.1413354,4.06611595 C0.887429219,9.55325596 0.479258605,19.5824146 0.479258605,19.5824146 C1.885103,25.0695546 7.46331981,30.331568 18.2114104,27.7679967 C16.9417378,20.3919814 19.4304065,1.72886781 34.9858782,4.33739605 L34.9858782,4.33722511 Z" id="Path"></path>
                    <path d="M29.4404477,22.0862694 C23.6255599,26.869958 5.92575598,34.169468 0.417796171,19.48985 C-0.897954908,26.3254508 2.75324571,37.7024328 12.8621913,42.0025333 C21.7941766,46.3524301 31.1024854,41.3146268 31.1024854,41.3146268 C35.1971608,37.3595063 37.0646228,30.0439109 29.4404477,22.0862694" id="Path"></path>
                    <path d="M31.0247476,41.2162401 C37.6431694,38.9365004 45.4041543,30.2138922 44.1085601,19.4266816 C43.4440468,9.62105636 34.8915396,4.27041035 34.8915396,4.27041035 C29.3982754,2.73853712 22.1453158,4.95936549 19.0105914,15.4434745 C26.0851767,18.0338166 41.078269,29.1934389 31.0247476,41.2162401 Z" id="Path"></path>
                </g>
            </g>
        </g>
    </g>
</svg>