<svg width="143" height="130" alt="Automate - Selenium testing at scale" viewBox="0 0 353 320" version="1.1" xmlns="http://www.w3.org/2000/svg" xmlns:xlink="http://www.w3.org/1999/xlink">
    <!-- Generator: Sketch 60 (88103) - https://sketch.com -->
    <title>Group 3</title>
    <desc>Created with Sketch.</desc>
    <defs>
        <rect id="path-1" x="0" y="0" width="61.4778633" height="61.4760449"></rect>
        <rect id="path-3" x="0" y="0" width="61.4778633" height="61.4760449"></rect>
        <linearGradient x1="50%" y1="0%" x2="50%" y2="100%" id="linearGradient-5">
            <stop stop-color="#FAD961" offset="0%"></stop>
            <stop stop-color="#F76B1C" offset="100%"></stop>
        </linearGradient>
        <linearGradient x1="26.4822257%" y1="50.3254776%" x2="-198.19113%" y2="50.096601%" id="linearGradient-6">
            <stop stop-color="#FFFFFF" offset="0%"></stop>
            <stop stop-color="#FFFFFF" offset="100%"></stop>
        </linearGradient>
        <linearGradient x1="50%" y1="0%" x2="50%" y2="100%" id="linearGradient-7">
            <stop stop-color="#FAD961" offset="0%"></stop>
            <stop stop-color="#F76B1C" offset="100%"></stop>
        </linearGradient>
        <linearGradient x1="50%" y1="0%" x2="50%" y2="100%" id="linearGradient-8">
            <stop stop-color="#FAD961" offset="0%"></stop>
            <stop stop-color="#F76B1C" offset="100%"></stop>
        </linearGradient>
        <linearGradient x1="50%" y1="0%" x2="50%" y2="100%" id="linearGradient-9">
            <stop stop-color="#FAD961" offset="0%"></stop>
            <stop stop-color="#F76B1C" offset="100%"></stop>
        </linearGradient>
    </defs>
    <g id="Illustration" stroke="none" stroke-width="1" fill="none" fill-rule="evenodd">
        <g id="Automate" transform="translate(-56.000000, -74.000000)">
            <g id="Group-3" transform="translate(56.000000, 74.000000)">
                <g id="Group-12">
                    <g id="Group-11">
                        <g id="Group-10">
                            <g id="Group-9">
                                <g id="Group-2" transform="translate(10.030599, 41.664078)">
                                    <g id="Group-6" transform="translate(8.736328, 6.794721)">
                                        <g id="Group-8" transform="translate(0.000000, 85.904684)">
                                            <mask id="mask-2" fill="white">
                                                <use xlink:href="#path-1"></use>
                                            </mask>
                                            <g id="Mask"></g>
                                            <g mask="url(#mask-2)" stroke-linecap="square">
                                                <g transform="translate(-0.859830, -57.606923)">
                                                    <line x1="0.100483122" y1="59.4052936" x2="67.8989863" y2="127.572392" id="Line-3" stroke="#142434" stroke-width="0.5"></line>
                                                    <g id="Group-7" stroke="none" stroke-width="1" fill-rule="evenodd">
                                                        <line x1="0.100483122" y1="55.1620583" x2="67.8989863" y2="123.329157" id="Line-3-Copy-16" stroke="#142434" stroke-width="0.5"></line>
                                                        <line x1="0.100483122" y1="50.9188231" x2="67.8989863" y2="119.085921" id="Line-3-Copy-17" stroke="#142434" stroke-width="0.5"></line>
                                                        <line x1="0.100483122" y1="46.6755878" x2="67.8989863" y2="114.842686" id="Line-3-Copy-18" stroke="#142434" stroke-width="0.5"></line>
                                                        <line x1="0.100483122" y1="42.4323526" x2="67.8989863" y2="110.599451" id="Line-3-Copy-19" stroke="#142434" stroke-width="0.5"></line>
                                                        <line x1="0.100483122" y1="38.1891173" x2="67.8989863" y2="106.356216" id="Line-3-Copy-20" stroke="#142434" stroke-width="0.5"></line>
                                                        <line x1="0.100483122" y1="33.9458821" x2="67.8989863" y2="102.11298" id="Line-3-Copy-21" stroke="#142434" stroke-width="0.5"></line>
                                                        <line x1="0.100483122" y1="29.7026468" x2="67.8989863" y2="97.8697451" id="Line-3-Copy-22" stroke="#142434" stroke-width="0.5"></line>
                                                        <line x1="0.100483122" y1="25.4594115" x2="67.8989863" y2="93.6265099" id="Line-3-Copy-23" stroke="#142434" stroke-width="0.5"></line>
                                                        <line x1="0.100483122" y1="21.2161763" x2="67.8989863" y2="89.3832746" id="Line-3-Copy-24" stroke="#142434" stroke-width="0.5"></line>
                                                        <line x1="0.100483122" y1="16.972941" x2="67.8989863" y2="85.1400394" id="Line-3-Copy-25" stroke="#142434" stroke-width="0.5"></line>
                                                        <line x1="0.100483122" y1="12.7297058" x2="67.8989863" y2="80.8968041" id="Line-3-Copy-26" stroke="#142434" stroke-width="0.5"></line>
                                                        <line x1="0.100483122" y1="8.48647051" x2="67.8989863" y2="76.6535689" id="Line-3-Copy-27" stroke="#142434" stroke-width="0.5"></line>
                                                        <line x1="0.100483122" y1="4.24323526" x2="67.8989863" y2="72.4103336" id="Line-3-Copy-28" stroke="#142434" stroke-width="0.5"></line>
                                                        <line x1="0.100483122" y1="0" x2="67.8989863" y2="68.1670983" id="Line-3-Copy-29" stroke="#142434" stroke-width="0.5"></line>
                                                        <line x1="0.100483122" y1="67.0835288" x2="67.8989863" y2="135.250627" id="Line-3-Copy-2" stroke="#142434" stroke-width="0.5"></line>
                                                        <line x1="0.100483122" y1="70.9226464" x2="67.8989863" y2="139.089745" id="Line-3-Copy-3" stroke="#142434" stroke-width="0.5"></line>
                                                        <line x1="0.100483122" y1="74.7617641" x2="67.8989863" y2="142.928862" id="Line-3-Copy-4" stroke="#142434" stroke-width="0.5"></line>
                                                        <line x1="0.100483122" y1="78.6008817" x2="67.8989863" y2="146.76798" id="Line-3-Copy-5" stroke="#142434" stroke-width="0.5"></line>
                                                        <line x1="0.100483122" y1="82.4399993" x2="67.8989863" y2="150.607098" id="Line-3-Copy-6" stroke="#142434" stroke-width="0.5"></line>
                                                        <line x1="0.100483122" y1="86.2791169" x2="67.8989863" y2="154.446215" id="Line-3-Copy-7" stroke="#142434" stroke-width="0.5"></line>
                                                        <line x1="0.100483122" y1="90.1182345" x2="67.8989863" y2="158.285333" id="Line-3-Copy-8" stroke="#142434" stroke-width="0.5"></line>
                                                        <line x1="0.100483122" y1="93.9573521" x2="67.8989863" y2="162.12445" id="Line-3-Copy-9" stroke="#142434" stroke-width="0.5"></line>
                                                        <line x1="0.100483122" y1="97.7964697" x2="67.8989863" y2="165.963568" id="Line-3-Copy-10" stroke="#142434" stroke-width="0.5"></line>
                                                        <line x1="0.100483122" y1="101.635587" x2="67.8989863" y2="169.802686" id="Line-3-Copy-11" stroke="#142434" stroke-width="0.5"></line>
                                                        <line x1="0.100483122" y1="105.474705" x2="67.8989863" y2="173.641803" id="Line-3-Copy-12" stroke="#142434" stroke-width="0.5"></line>
                                                        <line x1="0.100483122" y1="109.313823" x2="67.8989863" y2="177.480921" id="Line-3-Copy-13" stroke="#142434" stroke-width="0.5"></line>
                                                        <line x1="0.100483122" y1="113.15294" x2="67.8989863" y2="181.320039" id="Line-3-Copy-14" stroke="#142434" stroke-width="0.5"></line>
                                                        <line x1="0.100483122" y1="116.992058" x2="67.8989863" y2="185.159156" id="Line-3-Copy-15" stroke="#142434" stroke-width="0.5"></line>
                                                    </g>
                                                    <line x1="0.100483122" y1="63.2444112" x2="67.8989863" y2="131.41151" id="Line-3-Copy" stroke="#142434" stroke-width="0.5"></line>
                                                </g>
                                            </g>
                                        </g>
                                        <g id="Group-8" transform="translate(0.000000, 0.161779)">
                                            <mask id="mask-4" fill="white">
                                                <use xlink:href="#path-3"></use>
                                            </mask>
                                            <g id="Mask"></g>
                                            <g mask="url(#mask-4)" stroke-linecap="square">
                                                <g transform="translate(-0.859830, -57.606923)">
                                                    <line x1="0.100483122" y1="59.4052936" x2="67.8989863" y2="127.572392" id="Line-3" stroke="#142434" stroke-width="0.5"></line>
                                                    <g id="Group-7" stroke="none" stroke-width="1" fill-rule="evenodd">
                                                        <line x1="0.100483122" y1="55.1620583" x2="67.8989863" y2="123.329157" id="Line-3-Copy-16" stroke="#142434" stroke-width="0.5"></line>
                                                        <line x1="0.100483122" y1="50.9188231" x2="67.8989863" y2="119.085921" id="Line-3-Copy-17" stroke="#142434" stroke-width="0.5"></line>
                                                        <line x1="0.100483122" y1="46.6755878" x2="67.8989863" y2="114.842686" id="Line-3-Copy-18" stroke="#142434" stroke-width="0.5"></line>
                                                        <line x1="0.100483122" y1="42.4323526" x2="67.8989863" y2="110.599451" id="Line-3-Copy-19" stroke="#142434" stroke-width="0.5"></line>
                                                        <line x1="0.100483122" y1="38.1891173" x2="67.8989863" y2="106.356216" id="Line-3-Copy-20" stroke="#142434" stroke-width="0.5"></line>
                                                        <line x1="0.100483122" y1="33.9458821" x2="67.8989863" y2="102.11298" id="Line-3-Copy-21" stroke="#142434" stroke-width="0.5"></line>
                                                        <line x1="0.100483122" y1="29.7026468" x2="67.8989863" y2="97.8697451" id="Line-3-Copy-22" stroke="#142434" stroke-width="0.5"></line>
                                                        <line x1="0.100483122" y1="25.4594115" x2="67.8989863" y2="93.6265099" id="Line-3-Copy-23" stroke="#142434" stroke-width="0.5"></line>
                                                        <line x1="0.100483122" y1="21.2161763" x2="67.8989863" y2="89.3832746" id="Line-3-Copy-24" stroke="#142434" stroke-width="0.5"></line>
                                                        <line x1="0.100483122" y1="16.972941" x2="67.8989863" y2="85.1400394" id="Line-3-Copy-25" stroke="#142434" stroke-width="0.5"></line>
                                                        <line x1="0.100483122" y1="12.7297058" x2="67.8989863" y2="80.8968041" id="Line-3-Copy-26" stroke="#142434" stroke-width="0.5"></line>
                                                        <line x1="0.100483122" y1="8.48647051" x2="67.8989863" y2="76.6535689" id="Line-3-Copy-27" stroke="#142434" stroke-width="0.5"></line>
                                                        <line x1="0.100483122" y1="4.24323526" x2="67.8989863" y2="72.4103336" id="Line-3-Copy-28" stroke="#142434" stroke-width="0.5"></line>
                                                        <line x1="0.100483122" y1="0" x2="67.8989863" y2="68.1670983" id="Line-3-Copy-29" stroke="#142434" stroke-width="0.5"></line>
                                                        <line x1="0.100483122" y1="67.0835288" x2="67.8989863" y2="135.250627" id="Line-3-Copy-2" stroke="#142434" stroke-width="0.5"></line>
                                                        <line x1="0.100483122" y1="70.9226464" x2="67.8989863" y2="139.089745" id="Line-3-Copy-3" stroke="#142434" stroke-width="0.5"></line>
                                                        <line x1="0.100483122" y1="74.7617641" x2="67.8989863" y2="142.928862" id="Line-3-Copy-4" stroke="#142434" stroke-width="0.5"></line>
                                                        <line x1="0.100483122" y1="78.6008817" x2="67.8989863" y2="146.76798" id="Line-3-Copy-5" stroke="#142434" stroke-width="0.5"></line>
                                                        <line x1="0.100483122" y1="82.4399993" x2="67.8989863" y2="150.607098" id="Line-3-Copy-6" stroke="#142434" stroke-width="0.5"></line>
                                                        <line x1="0.100483122" y1="86.2791169" x2="67.8989863" y2="154.446215" id="Line-3-Copy-7" stroke="#142434" stroke-width="0.5"></line>
                                                        <line x1="0.100483122" y1="90.1182345" x2="67.8989863" y2="158.285333" id="Line-3-Copy-8" stroke="#142434" stroke-width="0.5"></line>
                                                        <line x1="0.100483122" y1="93.9573521" x2="67.8989863" y2="162.12445" id="Line-3-Copy-9" stroke="#142434" stroke-width="0.5"></line>
                                                        <line x1="0.100483122" y1="97.7964697" x2="67.8989863" y2="165.963568" id="Line-3-Copy-10" stroke="#142434" stroke-width="0.5"></line>
                                                        <line x1="0.100483122" y1="101.635587" x2="67.8989863" y2="169.802686" id="Line-3-Copy-11" stroke="#142434" stroke-width="0.5"></line>
                                                        <line x1="0.100483122" y1="105.474705" x2="67.8989863" y2="173.641803" id="Line-3-Copy-12" stroke="#142434" stroke-width="0.5"></line>
                                                        <line x1="0.100483122" y1="109.313823" x2="67.8989863" y2="177.480921" id="Line-3-Copy-13" stroke="#142434" stroke-width="0.5"></line>
                                                        <line x1="0.100483122" y1="113.15294" x2="67.8989863" y2="181.320039" id="Line-3-Copy-14" stroke="#142434" stroke-width="0.5"></line>
                                                        <line x1="0.100483122" y1="116.992058" x2="67.8989863" y2="185.159156" id="Line-3-Copy-15" stroke="#142434" stroke-width="0.5"></line>
                                                    </g>
                                                    <line x1="0.100483122" y1="63.2444112" x2="67.8989863" y2="131.41151" id="Line-3-Copy" stroke="#142434" stroke-width="0.5"></line>
                                                </g>
                                            </g>
                                        </g>
                                    </g>
                                    <rect id="Rectangle" fill="#91D5FF" x="0" y="0" width="66.0078111" height="66.0058587"></rect>
                                    <rect id="Rectangle" fill="#91D5FF" x="0" y="84.1251141" width="66.0078111" height="66.0058587"></rect>
                                </g>
                                <rect id="Rectangle" stroke="#142434" stroke-width="1.14054927" x="0.570274637" y="0.818912183" width="272.876414" height="217.261189"></rect>
                                <path d="M174.631735,109.580297 C173.33547,122.783333 171.404751,131.410343 168.839578,135.461329 C166.274404,139.512314 172.15433,144.485075 186.479357,150.37961 L201.906246,136.813812 L196.38189,97.639635 L174.631735,109.580297 Z" id="Path-47" fill="#FFC7AE"></path>
                                <path d="M174.451067,110.960445 C174.386966,112.733641 174.386966,114.270695 174.451067,115.571608 C176.07726,122.314076 182.221445,121.296134 192.883623,112.517784 C199.389265,96.5185047 195.354184,99.7035748 192.883623,97.639635 C173.615382,129.988997 180.573865,102.862529 174.451067,110.960445 Z" id="Path-48" fill="#E19A7A"></path>
                                <path d="M199.79129,92.986768 C200.047731,94.2053848 199.344142,94.4445972 197.680522,93.7044052 C196.889014,93.2129266 196.529143,91.4456686 196.49326,88.4037943 C196.402869,80.7412667 190.300895,77.7738815 181.239393,84.3791187 C173.318562,94.1835153 148.742723,89.5410363 155.038691,67.603634 C159.236002,52.9786991 169.786593,51.0112274 186.690463,61.7012188 C208.435361,65.1733123 216.979412,76.4169772 212.322618,95.4322136 C207.700957,115.102878 199.753041,111.868442 204.253325,135.495936 C201.372663,134.273899 199.371964,133.764932 198.251229,133.969033 C192.783623,121.66853 191.416722,113.339962 194.150524,108.983328 C195.627857,105.453632 196.408769,102.502791 196.49326,100.130807 C197.315024,96.9466882 201.75027,100.890517 199.79129,92.986768 Z" id="Path-31" fill="#142434"></path>
                                <path d="M175.481183,90.7072259 L175.481183,94.622007 C172.013233,93.9158372 170.452695,94.7940279 170.79957,97.256579 C171.146446,99.7191301 172.873102,100.787528 175.97954,100.461774 C176.049981,108.823938 176.049981,113.27586 175.97954,113.817542 C175.459286,119.824764 172.845584,133.846552 169.549476,135.495936 C166.253367,137.14532 171.187752,138.221913 169.763873,139.724676 C168.339995,141.227439 133.939912,148.581331 132.248956,182.049134 C131.121652,204.361003 122.287347,220.42973 105.746041,230.255316 C76.1732433,231.067004 73.7127567,206.922381 98.3645812,157.821447 C131.966281,106.453939 152.372246,134.144066 156.321947,107.832317 C158.955082,90.2911505 160.70921,81.8354239 161.584333,82.465137 C163.342213,85.6208915 165.867801,88.6675711 175.481183,90.7072259 Z" id="Path-32" fill="#142434"></path>
                                <path d="M169.456669,88.5241112 L169.35493,92.9568872 C165.196736,92.1652862 163.821975,93.6075994 165.230649,97.2838268 C166.343958,99.2773741 167.88591,99.797041 169.856505,98.8428272 C172.679879,110.786528 177.031135,116.405531 182.910275,115.699835 C189.988672,115.241988 194.918349,109.728829 197.699308,99.1603576 C201.021919,99.6524619 201.903636,97.5796809 200.344461,92.9420143 C199.549869,91.9375326 198.651659,92.1688796 197.649831,93.6360555 C197.443939,84.4413104 195.223389,79.8439378 190.988181,79.8439378 C186.752972,79.8439378 179.575802,82.7373289 169.456669,88.5241112 Z" id="Path-33" fill="#FFC7AE"></path>
                                <path d="M169.456669,88.5241112 L169.35493,92.9568872 C165.196736,92.1652862 163.821975,93.6075994 165.230649,97.2838268 C166.343958,99.2773741 167.88591,99.797041 169.856505,98.8428272 C172.679879,110.786528 177.031135,116.405531 182.910275,115.699835 C189.988672,115.241988 194.918349,109.728829 197.699308,99.1603576 C201.021919,99.6524619 201.903636,97.5796809 200.344461,92.9420143 C199.549869,91.9375326 198.651659,92.1688796 197.649831,93.6360555 C197.443939,84.4413104 195.223389,79.8439378 190.988181,79.8439378 C186.752972,79.8439378 179.575802,82.7373289 169.456669,88.5241112 Z" id="Path-33" stroke="#142434" stroke-width="0.5"></path>
                                <path d="M124.849015,192.370705 C121.293834,208.977987 108.500609,216.53051 86.4693399,215.028273 C81.5631918,214.666626 77.9238998,214.355674 75.5514639,214.095417 C73.8821104,212.832539 69.8691098,210.122126 68.6522942,209.222872 C54.1123229,198.4775 68.5434161,213.367211 67.616721,213.182294 C62.255135,212.112418 62.3810762,212.112418 56.7784684,209.920365 C52.1509664,207.664032 48.1288743,205.437516 47.7788994,207.118355 C47.5455827,208.238915 53.0386396,211.374354 64.2580701,216.524672 C55.3315453,213.538764 50.2682665,211.821105 49.0682335,211.371693 C47.1584151,210.656467 45.5963139,211.130243 45.1027025,211.371693 C43.3009908,212.252999 61.2775789,218.830814 62.4439863,218.830814 C62.1937532,219.088522 62.8919347,219.045283 62.4439863,219.117607 C57.9612103,219.841379 46.3286097,213.789399 45.1027025,215.514316 C48.4727093,220.638049 60.3297417,221.771103 59.8366196,222.000325 C59.3434976,222.229546 54.9902151,222.791084 47.2099767,219.117607 C46.462204,219.117607 47.1504609,221.786409 52.3807156,223.497015 C57.6109703,225.207622 108.083802,247.405114 132.156706,228.617409 C141.338529,225.431062 147.870711,213.156942 151.753252,191.795051 L124.849015,192.370705 Z" id="Path-41" fill="#FFC7AE"></path>
                                <path d="M180.747773,257.958442 C214.323459,262.025202 230.058461,264.715803 227.952778,266.030246 C224.794254,268.001911 191.917511,277.478416 189.997926,279.26416 C188.078342,281.049904 178.564007,293.075238 174.896054,293.075238 C172.668006,293.082842 174.021702,301.667717 178.957141,318.829861 L183.686904,318.829861 C188.434419,320.288808 192.285779,320.288808 195.240985,318.829861 C199.673794,316.64144 303.745566,290.41667 307.301058,264.561928 C309.671386,247.325433 306.311668,235.804451 297.221906,229.998982 C263.741904,236.315592 244.674422,235.853073 240.019459,228.611426 C235.364496,221.369778 199.365565,221.369778 132.022667,228.611426 C120.403449,236.77255 103.191501,238.104933 80.3868233,232.608574 C62.0776542,241.500755 62.0776542,257.422683 80.3868233,280.374357 C97.5415537,293.871766 111.668765,301.49597 122.768458,303.246968 C134.439227,298.417545 147.040594,293.667966 160.572559,288.998233 C163.360868,293.166459 165.897676,295.250572 168.182984,295.250572 C170.468291,295.250572 172.379843,295.170413 173.917639,295.010095 C174.361142,293.845159 174.44429,293.200207 174.167084,293.075238 C176.640569,293.768153 183.320639,286.714077 183.977028,285.904278 C184.024622,285.972233 183.16951,285.153373 181.411691,283.447698 L139.92808,266.659682 C131.77339,262.42481 126.129804,259.597524 122.997322,258.177825 C131.977249,258.7596 151.2274,258.686472 180.747773,257.958442 Z" id="Path-42" fill="#8FD4FF"></path>
                                <path d="M167.766318,134.507087 L166.836183,134.886254 C163.595835,136.143053 164.402085,136.547784 164.938979,137.188926 C139.196887,142.349009 125.741749,160.920173 124.573565,192.902417 C124.579796,192.731821 133.542264,192.2381 151.460969,191.421255 C147.985529,211.574696 141.888849,223.483935 133.17093,227.14897 C124.45301,230.814006 158.395009,230.914081 234.996928,227.449197 C226.497334,220.029351 221.306939,208.144704 219.425744,191.795255 C219.281887,189.764414 218.705529,186.529262 218.705529,184.362041 C218.999476,185.462028 219.29254,187.473134 219.58472,190.395359 L244.216134,190.395359 C245.125182,166.658601 238.035118,151.384652 222.945943,144.57351 C213.028108,140.29016 207.33491,138.129971 205.86635,138.092945 L204.946984,134.614705 C201.151023,133.432422 199.016792,133.007791 198.544291,133.340812 C198.07179,133.673833 198.594711,134.804624 200.113053,136.733185 C193.718231,143.62604 188.853559,147.072468 185.519035,147.072468 C182.184512,147.072468 176.26694,142.884008 167.766318,134.507087 Z" id="Path-34" fill="#FFFFFF"></path>
                                <path d="M173.917639,295.264427 L168.255205,295.010095 C163.58642,302.785819 161.919838,308.34564 163.255459,311.689558 C165.338296,312.63159 169.916987,313.219374 176.991533,313.452908 C175.441357,306.019243 174.362798,300.506747 173.755856,296.915421 C173.799758,296.408103 173.853686,295.857772 173.917639,295.264427 Z" id="Path-49" fill="#FFC7AE"></path>
                                <path d="M163.460775,312.04776 C135.189929,314.710169 120.396282,316.041374 119.079836,316.041374 C117.105166,316.041374 110.660154,310.884229 110.660154,308.762626 C110.660154,307.348224 127.135566,300.606993 160.086389,288.538932 C161.22366,289.98235 163.922525,292.219563 168.182984,295.250572 C164.568789,302.168131 162.99472,307.767194 163.460775,312.04776 Z" id="Path-52" fill="#DDDDDD"></path>
                                <path d="M299.478661,190.500819 C295.225403,208.250183 282.083654,216.367497 260.053413,214.852762 C255.147494,214.488105 251.508371,214.174566 249.136046,213.912144 C247.466771,212.638758 243.453957,209.905794 242.237199,208.999057 C227.697906,198.164281 242.128326,213.177879 241.201674,212.991423 C235.840338,211.912645 235.966273,211.912645 230.363927,209.702354 C225.736641,207.427247 221.714737,205.182206 221.364778,206.87703 C221.131472,208.006913 226.624273,211.16844 237.84318,216.361611 C228.917071,213.35086 223.854029,211.618908 222.654052,211.165757 C220.744323,210.444581 219.182294,210.922299 218.688706,211.165757 C216.887078,212.054396 234.862828,218.686941 236.02918,218.686941 C235.778959,218.946793 236.477108,218.903195 236.02918,218.97612 C231.546614,219.705914 219.914556,213.60358 218.688706,215.342848 C222.058556,220.509213 233.915034,221.651695 233.421935,221.882823 C232.928836,222.113952 228.575757,222.680162 220.795882,218.97612 C220.048144,218.97612 220.736369,221.667127 225.966379,223.391966 C231.19639,225.116806 281.666866,247.498989 305.738646,228.554964 C314.92004,225.342105 321.022155,212.65739 324.044991,190.500819 L299.478661,190.500819 Z" id="Path-41" fill="#FFC7AE" transform="translate(271.303455, 213.311667) scale(-1, 1) translate(-271.303455, -213.311667) "></path>
                                <rect id="Rectangle" fill="#142434" x="129.103513" y="207.6494" width="96.423175" height="56.6226729" rx="4.84733441"></rect>
                                <path d="M158.935128,63.5220495 C156.230832,69.4154905 155.594809,73.9647435 157.027061,77.1698088 C159.175438,81.9774066 159.855518,76.9548705 158.935128,75.1887638 C158.014738,73.4226572 159.339928,64.784132 160.381368,64.2445902 C161.422808,63.7050485 163.182024,61.6358243 161.223885,61.4011243 C160.213422,61.9759237 159.450503,62.6828988 158.935128,63.5220495 Z" id="Path-53" fill="#4987AD"></path>
                                <path d="M161.512234,83.0073282 C162.198348,83.0073282 162.754554,82.4801555 162.754554,81.829855 C162.754554,81.1795545 162.634489,81.708816 161.512234,80.6523818 C160.389979,79.5959476 159.944564,80.3914811 160.269913,81.829855 C160.595263,83.2682289 160.962657,83.1308322 161.512234,83.0073282 Z" id="Oval" fill="#4987AD"></path>
                                <path d="M155.636064,80.5601294 C161.168907,89.1154778 173.175663,87.492976 191.656333,75.6926239 C210.137002,63.8922718 214.139275,76.6005777 203.663151,113.817542" id="Path-57" stroke="#4987AD" stroke-width="0.5" stroke-linecap="round"></path>
                                <path d="M155.193998,80.5778493 C157.212788,84.6458237 162.074856,87.3004097 169.7802,88.5416071 C169.713531,90.5687552 169.633758,92.146525 169.540882,93.2749165 C167.417596,92.6009127 165.872451,92.9299011 164.905444,94.2618817 C158.901621,90.594293 155.664473,86.0329489 155.193998,80.5778493 Z" id="Path-58" fill="#4987AD"></path>
                                <path d="M88.8321132,214.769407 C84.8548801,205.461067 87.2325376,190.620071 95.9650857,170.246418 C109.188481,148.055851 131.600854,137.513058 146.565355,130.803609 C164.196098,117.09694 167.153344,100.55218 155.437092,81.1693289" id="Path-59" stroke="#4987AD" stroke-width="0.5"></path>
                                <path d="M110.660154,158.468564 C100.737411,168.426311 95.7760396,175.63872 95.7760396,180.10579 C95.7760396,186.806395 113.03324,165.832182 105.718803,171.27238 C100.842511,174.899178 102.489628,170.63124 110.660154,158.468564 Z" id="Path-60" fill="#4987AD"></path>
                                <polyline id="Path-45" stroke="#142434" stroke-width="0.5" points="174.726559 147.467587 165.019528 137.441206 168.3218 136.143053"></polyline>
                                <path d="M198.356859,132.907471 L202.553381,133.754608 C203.342973,133.66666 204.035803,134.031796 204.631873,134.850017 C205.227942,135.668237 205.505815,136.76491 205.46549,138.140035 C195.459389,146.515457 189.419458,150.703169 187.345699,150.703169" id="Path-61" stroke="#142434" stroke-width="0.5"></path>
                                <polyline id="Path-62" stroke="#142434" stroke-width="0.5" points="201.25911 135.495936 202.939401 136.355342 203.847652 139.702192"></polyline>
                                <polyline id="Path-63" stroke="#142434" stroke-width="0.5" points="200.288407 136.790169 201.013278 137.452718 202.229813 140.996425"></polyline>
                                <polyline id="Path-64" stroke="#142434" stroke-width="0.5" points="166.313799 139.284141 168.540011 138.084401 167.426905 139.702192 168.90234 139.284141"></polyline>
                                <polyline id="Path-65" stroke="#142434" stroke-width="0.570274637" points="153.047523 182.088307 151.65469 191.928391 124.573565 193.412842 124.573565 189.627911 146.424155 188.688039 148.135075 190.900217 148.135075 188.688039"></polyline>
                                <polyline id="Path-66" stroke="#142434" stroke-width="0.570274637" points="218.408198 184.353214 218.408198 190.500819 243.646479 190.500819 243.646479 187.427016 223.155425 187.427016 222.056893 189.263751 221.435891 187.427016"></polyline>
                                <path d="M99.9824197,256.991262 C106.380237,252.16696 117.885045,254.537998 134.496844,264.104377 C151.415961,272.396556 166.84292,278.841713 180.777723,283.43985 L183.462887,285.689231 C181.556183,288.422227 179.65315,290.454358 177.753789,291.785624 C175.854428,293.116891 174.629639,293.544598 174.079423,293.068746 L174.079423,295.010095 L166.233215,295.010095 L171.431896,288.244952 L174.882086,289.934479 L172.247236,286.997815 L176.714034,286.997815 L173.082944,285.138131 L177.595818,284.035439" id="Path-67" stroke="#142434" stroke-width="0.5"></path>
                                <line x1="173.755856" y1="297.460108" x2="174.079423" y2="293.068746" id="Path-68" stroke="#142434" stroke-width="0.5"></line>
                                <polygon id="Path-70" stroke="#142434" stroke-width="0.5" fill="#D8D8D8" points="111.194994 309.008169 110.228551 307.529268 159.001482 285.912047 160.127582 288.63152"></polygon>
                                <path d="M168.255205,295.010095 C164.471648,301.284791 162.805066,306.844612 163.255459,311.689558 L159.842444,312.158676 C162.050159,302.941213 164.17007,297.225019 166.202176,295.010095 C166.990266,295.032328 167.674609,295.032328 168.255205,295.010095 Z" id="Path-71" stroke="#142434" stroke-width="0.5"></path>
                                <path d="M183.462887,285.626909 L189.712582,279.358711 C218.852606,269.631055 239.203401,262.768679 250.764969,258.771584" id="Path-72" stroke="#142434" stroke-width="0.5"></path>
                                <path d="M240.145623,262.330724 C238.784231,260.930044 241.062108,258.119284 246.979256,253.898444 C252.896404,249.677603 257.393985,246.987875 260.472,245.829259" id="Path-75" stroke="#142434" stroke-width="0.5"></path>
                                <path d="M100.953123,253.271096 C105.947445,253.514499 109.614546,254.053763 111.954425,254.888887" id="Path-76" stroke="#142434" stroke-width="0.5"></path>
                                <path d="M177.104689,295.333653 L178.074371,299.47293 L177.104689,301.394842 L178.074371,301.394842 L182.12875,299.47293 L178.9167,303.607099 L182.12875,303.607099 L179.616719,306.780387 L183.462887,318.953397 L178.9167,318.953397 C176.510646,311.63656 174.790365,304.290568 173.755856,296.915421" id="Path-77" stroke="#142434" stroke-width="0.5"></path>
                                <path d="M274.061843,253.271096 C285.757874,279.03556 296.243124,283.244211 305.517593,265.89705 C305.758125,265.447154 305.989112,265.011602 306.210798,264.590077 C307.634369,255.886943 301.366456,261.983511 298.895466,270.149523 C297.219156,275.689312 288.941282,270.06317 274.061843,253.271096 Z" id="Path-78" fill="#41B6FF" opacity="0.366815476"></path>
                                <path d="M71.9147788,258.904685 C76.509826,289.547876 86.9950761,293.756528 103.370529,271.530639 C103.687842,271.09996 103.842048,270.645191 104.063734,270.223665 C105.487305,261.520532 111.529707,254.649964 96.7484017,275.783111 C86.8941979,289.871877 78.6163236,284.245734 71.9147788,258.904685 Z" id="Path-78" fill="#41B6FF" opacity="0.366815476" transform="translate(89.203626, 272.225399) scale(-1, 1) translate(-89.203626, -272.225399) "></path>
                                <path d="M149.047995,143.908448 C164.886061,146.166831 169.720889,150.281859 163.552479,156.253532 C154.299865,165.211042 145.022371,151.817159 141.8664,163.433923 C138.710429,175.050688 161.860326,159.564409 168.25932,175.050688 C174.658314,190.536967 131.244701,164.742102 128.947402,172.446402 C128.140231,172.997761 127.005853,176.103877 125.544268,181.764749" id="Path-79" stroke="#529BD2" stroke-width="0.5"></path>
                                <path d="M221.12361,203.649175 C205.832923,207.688575 197.618741,207.688575 196.481065,203.649175 C194.774551,197.590074 208.515451,191.82118 205.599902,189.72375 C202.684354,187.62632 178.331422,187.185796 183.988443,179.206569 C189.645464,171.227342 211.624274,184.058131 217.36591,170.21514 C223.107546,156.37215 212.22984,156.572881 213.6875,151.920652 C215.14516,147.268422 220.181824,146.036664 225.850256,147.268422 C228.010565,147.927671 229.42595,148.550665 230.096408,149.137404" id="Path-80" stroke="#529BD2" stroke-width="0.5"></path>
                                <ellipse id="Oval" stroke="#529BD2" stroke-width="0.5" cx="206.436193" cy="160.89525" rx="2.58854161" ry="2.42668598"></ellipse>
                                <path d="M239.116531,163.321936 C239.116531,159.085769 231.350906,166.871052 231.350906,171.24911 C231.350906,174.188186 238.990747,179.084449 241.291335,175.72985 C242.41771,174.087428 239.116531,164.71428 239.116531,163.321936 Z" id="Oval" stroke="#529BD2" stroke-width="0.5"></path>
                                <ellipse id="Oval" stroke="#529BD2" stroke-width="0.5" transform="translate(161.136715, 198.104435) scale(1, -1) translate(-161.136715, -198.104435) " cx="161.136715" cy="198.104435" rx="6.47135403" ry="6.63294169"></ellipse>
                                <ellipse id="Oval" stroke="#142434" stroke-width="0.570274637" cx="189.610673" cy="95.212949" rx="4.52994782" ry="4.36803477"></ellipse>
                                <ellipse id="Oval" stroke="#142434" stroke-width="0.570274637" cx="176.667965" cy="95.212949" rx="4.52994782" ry="4.36803477"></ellipse>
                                <rect id="Rectangle" fill="url(#linearGradient-5)" transform="translate(145.443682, 249.226619) scale(-1, 1) translate(-145.443682, -249.226619) " x="129.750648" y="246.799933" width="31.386067" height="4.85337197" rx="2.42668598"></rect>
                                <rect id="Rectangle" fill="#FFFFFF" transform="translate(195.273108, 249.064840) scale(-1, 1) translate(-195.273108, -249.064840) " x="169.549476" y="247.44705" width="51.4472645" height="3.23558131" rx="1.61779066"></rect>
                                <rect id="Rectangle" fill="url(#linearGradient-6)" transform="translate(147.385088, 235.798957) scale(-1, 1) translate(-147.385088, -235.798957) " x="103.218097" y="233.857608" width="88.3339825" height="3.88269757" rx="1.94134879"></rect>
                                <rect id="Rectangle" fill="url(#linearGradient-7)" transform="translate(163.563473, 222.533074) scale(-1, 1) translate(-163.563473, -222.533074) " x="117.778643" y="219.297492" width="91.5696595" height="6.47116262" rx="3.23558131"></rect>
                                <ellipse id="Oval" fill="url(#linearGradient-8)" transform="translate(117.778643, 249.550178) scale(-1, 1) translate(-117.778643, -249.550178) " cx="117.778643" cy="249.550178" rx="2.91210931" ry="2.75024411"></ellipse>
                                <ellipse id="Oval" fill="#FFFFFF" transform="translate(199.641272, 235.798957) scale(-1, 1) translate(-199.641272, -235.798957) " cx="199.641272" cy="235.798957" rx="1.94140621" ry="1.94134879"></ellipse>
                                <path d="M64.2158216,216.061911 C62.5688496,218.335649 61.440485,220.626832 60.8307279,222.93546" id="Path-81" stroke="#FFFFFF" stroke-width="0.570274637" stroke-linecap="round"></path>
                                <path d="M47.1991864,219.046144 C50.8586732,221.110321 55.4814278,222.100125 61.0674504,222.015557" id="Path-82" stroke="#FFFFFF" stroke-width="0.5"></path>
                                <path d="M45.4192691,211.208539 C44.7464778,211.364924 44.839401,211.669577 45.6980386,212.1225 C46.9859951,212.801884 57.2331304,217.450162 62.4132143,218.707925" id="Path-83" stroke="#FFFFFF" stroke-width="0.5"></path>
                                <path d="M45.2008893,215.076459 C45.5355972,217.762523 50.7503942,220.037966 60.8452805,221.902786" id="Path-84" stroke="#FFFFFF" stroke-width="0.5"></path>
                                <path d="M63.2111538,205.708051 C62.8781388,206.414534 63.2655462,206.767776 64.373376,206.767776" id="Path-85" stroke="#FFFFFF" stroke-width="0.5" stroke-linecap="round"></path>
                                <path d="M303.100969,214.993538 C305.831088,217.385976 307.777844,220.155836 308.941238,223.303118" id="Path-86" stroke="#FFFFFF" stroke-width="0.570274637" stroke-linecap="round"></path>
                                <path d="M187.345699,150.703169 C189.460007,150.335956 192.225756,148.726236 195.651971,145.856796 C193.367828,149.767527 191.323886,151.611472 189.520144,151.388631 C187.716403,151.165789 186.991588,150.937302 187.345699,150.703169 Z" id="Path-87" fill="#142434"></path>
                                <g id="noun_Automated-Solution_2092307" transform="translate(281.586942, 138.519105)" fill="url(#linearGradient-9)" fill-rule="nonzero">
                                    <g id="Group" transform="translate(0.161784, 0.000000)">
                                        <path d="M44.9667497,43.861937 L41.9468346,42.819711 C41.830684,42.2406965 41.5983829,41.7774849 41.3660817,41.1984704 L42.7598887,38.3033981 C42.9921898,37.8401865 42.8760392,37.3769749 42.5275875,37.0295662 L40.2045759,34.7135083 C39.8561242,34.3660996 39.2753713,34.2502967 38.9269196,34.4819025 L36.1393057,35.8715372 C35.5585528,35.6399315 34.9777999,35.2925228 34.397047,35.1767199 L33.3516918,32.2816475 C33.2355412,31.8184359 32.7709389,31.4710272 32.3063366,31.4710272 L29.0541204,31.4710272 C28.5895181,31.4710272 28.1249157,31.8184359 28.0087652,32.2816475 L26.7311088,35.1767199 C26.1503559,35.4083257 25.569603,35.6399315 24.9888501,35.8715372 L22.2012362,34.4819025 C21.7366339,34.2502967 21.2720316,34.3660996 20.9235799,34.7135083 L18.7167189,37.0295662 C18.3682671,37.3769749 18.2521166,37.9559894 18.4844177,38.3033981 L19.8782247,41.1984704 C19.6459235,41.661682 19.4136224,42.2406965 19.1813212,42.819711 L16.1614061,43.861937 C15.6968038,43.9777399 15.3483521,44.4409515 15.3483521,45.019966 L15.3483521,48.2624471 C15.3483521,48.7256587 15.6968038,49.1888702 16.1614061,49.420476 L19.2974718,50.578505 C19.4136224,51.0417166 19.6459235,51.5049281 19.8782247,51.9681397 L18.3682671,54.8632121 C18.135966,55.3264237 18.2521166,55.7896353 18.6005683,56.137044 L20.8074293,58.337299 C21.155881,58.6847077 21.7366339,58.8005106 22.0850857,58.5689048 L25.2211513,57.0634671 C25.6857536,57.2950729 26.0342053,57.4108758 26.4988076,57.6424816 L27.6603134,60.8849627 C27.776464,61.3481743 28.2410663,61.695583 28.7056686,61.695583 L31.9578848,61.695583 C32.4224872,61.695583 32.8870895,61.3481743 33.0032401,60.8849627 L34.1647458,57.6424816 C34.6293482,57.5266787 35.0939505,57.2950729 35.4424022,57.0634671 L38.5784678,58.5689048 C39.0430701,58.8005106 39.5076725,58.6847077 39.8561242,58.337299 L42.1791358,56.137044 C42.5275875,55.7896353 42.6437381,55.2106208 42.4114369,54.8632121 L40.9014794,51.8523368 C41.1337806,51.3891252 41.3660817,50.9259137 41.4822323,50.4627021 L44.6182979,49.3046731 C45.0829002,49.0730673 45.431352,48.7256587 45.431352,48.1466442 L45.431352,44.9041631 C45.7798037,44.4409515 45.431352,44.0935428 44.9667497,43.861937 Z M30.6031986,51.7157768 C27.7363288,51.7157768 25.3281582,49.422281 25.3281582,46.4407364 C25.3281582,43.5738666 27.6216541,41.165696 30.6031986,41.165696 C33.5847432,41.165696 35.878239,43.5738666 35.878239,46.4407364 C35.7635642,49.3076062 33.4700684,51.7157768 30.6031986,51.7157768 Z" id="Shape"></path>
                                        <path d="M29.8544718,15.9184798 L26.8345567,14.8762538 C26.7184062,14.2972393 26.486105,13.8340277 26.2538038,13.2550133 L27.6476108,10.3599409 C27.8799119,9.89672928 27.7637614,9.4335177 27.4153096,9.08610901 L25.0922981,6.7700511 C24.7438463,6.42264242 24.1630934,6.30683952 23.8146417,6.53844531 L21.0270278,7.92808006 C20.4462749,7.69647427 19.865522,7.34906558 19.2847691,7.23326268 L18.2394139,4.3381903 C18.1232633,3.87497871 17.658661,3.52757003 17.1940587,3.52757003 L13.9418425,3.52757003 C13.4772402,3.52757003 13.0126379,3.87497871 12.8964873,4.3381903 L11.6188309,7.23326268 C11.038078,7.46486848 10.4573252,7.69647427 9.87657226,7.92808006 L7.08895837,6.53844531 C6.62435606,6.30683952 6.15975374,6.42264242 5.81130201,6.7700511 L3.60444101,9.08610901 C3.25598928,9.4335177 3.1398387,10.0125322 3.37213985,10.3599409 L4.7659468,13.2550133 C4.53364564,13.7182248 4.30134448,14.2972393 4.06904333,14.8762538 L1.04912828,15.9184798 C0.584525966,16.0342827 0.236074231,16.4974943 0.236074231,17.0765088 L0.236074231,20.3189899 C0.236074231,20.7822015 0.584525966,21.245413 1.04912828,21.4770188 L4.1851939,22.6350478 C4.30134448,23.0982594 4.53364564,23.561471 4.7659468,24.0246825 L3.25598928,26.9197549 C3.02368812,27.3829665 3.1398387,27.8461781 3.48829043,28.1935868 L5.69515143,30.3938418 C6.04360316,30.7412505 6.62435606,30.8570534 6.97280779,30.6254476 L10.1088734,29.1200099 C10.5734757,29.3516157 10.9219275,29.4674186 11.3865298,29.6990244 L12.5480356,32.9415055 C12.6641861,33.4047171 13.1287885,33.7521258 13.5933908,33.7521258 L16.845607,33.7521258 C17.3102093,33.7521258 17.7748116,33.4047171 17.8909622,32.9415055 L19.052468,29.6990244 C19.5170703,29.5832215 19.9816726,29.3516157 20.3301243,29.1200099 L23.46619,30.6254476 C23.9307923,30.8570534 24.3953946,30.7412505 24.7438463,30.3938418 L27.0668579,28.1935868 C27.4153096,27.8461781 27.5314602,27.2671636 27.2991591,26.9197549 L25.7892015,23.9088796 C26.0215027,23.4456681 26.2538038,22.9824565 26.3699544,22.5192449 L29.50602,21.3612159 C29.9706224,21.1296101 30.3190741,20.7822015 30.3190741,20.203187 L30.3190741,16.9607059 C30.6675258,16.4974943 30.3190741,16.1500856 29.8544718,15.9184798 Z M15.4909208,23.7723196 C12.624051,23.7723196 10.2158804,21.4788238 10.2158804,18.4972792 C10.2158804,15.6304095 12.5093762,13.2222388 15.4909208,13.2222388 C18.4724653,13.2222388 20.7659611,15.6304095 20.7659611,18.4972792 C20.6512864,21.364149 18.3577905,23.7723196 15.4909208,23.7723196 Z" id="Shape"></path>
                                        <path d="M70.1392699,15.5411158 L66.2008107,14.1379164 C65.9691366,13.3193834 65.6216255,12.6177837 65.2741144,11.916184 L67.0116699,8.17431888 C67.243344,7.70658574 67.127507,7.2388526 66.7799959,6.88805274 L63.999907,4.0816539 C63.6523959,3.73085405 63.0732107,3.61392076 62.7256996,3.84778733 L59.1347515,5.60178661 C58.4397293,5.25098675 57.6288701,4.9001869 56.8180108,4.66632033 L55.5438034,0.924455204 C55.4279664,0.456722063 54.9646183,0.105922208 54.3854331,0.105922208 L50.4469739,0.105922208 C49.9836257,0.105922208 49.5202776,0.456722063 49.2886035,0.924455204 L48.0143961,4.66632033 C47.2035369,4.9001869 46.3926776,5.25098675 45.6976554,5.60178661 L42.1067073,3.84778733 C41.6433592,3.61392076 41.180011,3.73085405 40.8324999,4.0816539 L38.0524111,6.88805274 C37.7049,7.2388526 37.5890629,7.82351902 37.820737,8.17431888 L39.5582925,11.916184 C39.2107814,12.6177837 38.9791073,13.3193834 38.6315962,14.1379164 L34.693137,15.5411158 C34.2297889,15.6580491 33.8822778,16.1257823 33.8822778,16.5935154 L33.8822778,20.5692471 C33.8822778,21.0369802 34.2297889,21.5047134 34.693137,21.6216467 L38.7474333,23.0248461 C38.9791073,23.7264458 39.2107814,24.3111122 39.5582925,25.0127119 L37.7049,28.9884436 C37.4732259,29.4561768 37.5890629,29.9239099 37.936574,30.2747098 L40.7166629,33.0811086 C41.064174,33.4319085 41.6433592,33.5488417 41.9908703,33.3149752 L45.9293295,31.4440426 C46.5085147,31.6779092 47.0876998,32.028709 47.782722,32.1456423 L49.2886035,36.3552406 C49.4044405,36.8229737 49.8677887,37.1737736 50.4469739,37.1737736 L54.3854331,37.1737736 C54.8487812,37.1737736 55.3121294,36.8229737 55.5438034,36.3552406 L57.0496849,32.1456423 C57.6288701,31.9117758 58.3238923,31.6779092 58.9030775,31.4440426 L62.8415367,33.3149752 C63.3048848,33.5488417 63.768233,33.4319085 64.1157441,33.0811086 L66.8958329,30.2747098 C67.243344,29.9239099 67.3591811,29.3392435 67.127507,28.9884436 L65.2741144,25.0127119 C65.6216255,24.3111122 65.8532996,23.7264458 66.0849737,23.0248461 L70.1392699,21.6216467 C70.6026181,21.5047134 70.9501292,21.0369802 70.9501292,20.5692471 L70.9501292,16.5935154 C70.8342921,16.1257823 70.6026181,15.6580491 70.1392699,15.5411158 Z M52.4162035,24.6277316 C48.9311918,24.6277316 46.1431825,21.8397222 46.1431825,18.3547106 C46.1431825,14.8696989 48.9311918,12.0816896 52.4162035,12.0816896 C55.9012151,12.0816896 58.6892245,14.8696989 58.6892245,18.3547106 C58.6892245,21.8397222 55.9012151,24.6277316 52.4162035,24.6277316 Z" id="Shape"></path>
                                    </g>
                                </g>
                                <g id="php-logo" transform="translate(16.501953, 144.879122)" fill="#FFFFFF">
                                    <path d="M4.24316582,6.47116262 L12.1953927,6.47116262 C14.5294418,6.49053303 16.2207736,7.15576807 17.2693882,8.46576086 C18.3180027,9.77575366 18.6639951,11.5650256 18.3079253,13.8335767 C18.1696403,14.8701701 17.8628379,15.8868396 17.3880781,16.8841387 C16.9329134,17.8814379 16.3002735,18.7807781 15.4890389,19.5827128 C14.4997693,20.5993824 13.4416372,21.2446936 12.3140826,21.5186464 C11.1865281,21.7925993 10.0192236,21.929299 8.81272902,21.929299 L5.25203042,21.929299 L4.12447587,27.5024411 L0,27.5024411 L4.24316582,6.47116262 L4.24316582,6.47116262 M7.64977238,10.0320406 L5.82421863,19.0584322 C5.94592221,19.0783016 6.06762579,19.0885202 6.18932938,19.0885202 C6.33112553,19.0885202 6.47349576,19.0885202 6.61529192,19.0885202 C8.56254926,19.1083896 10.1854551,18.9182109 11.4834353,18.5168487 C12.7814155,18.0956171 13.6540072,16.6315251 14.1000623,14.1240048 C14.4651731,12.0178468 14.1000623,10.8041094 13.0047301,10.4833602 C11.9294904,10.1626111 10.5809917,10.0121712 8.95808591,10.0320406 C8.71467874,10.0519101 8.4816049,10.0621286 8.2582903,10.0621286 C8.05564235,10.0621286 7.84266108,10.0621286 7.61934649,10.0621286 L7.64977238,10.0320406" id="Shape" fill-rule="nonzero"></path>
                                    <path d="M23.6107519,0 L27.6325797,0 L26.4959762,5.93895907 L30.1097925,5.93895907 C32.0915627,5.98061333 33.5679925,6.4159297 34.5396317,7.24490818 C35.5305168,8.07388666 35.8219536,9.64970846 35.4139421,11.9712002 L33.4613156,22.325511 L29.3812005,22.325511 L31.246396,12.4376106 C31.4405039,11.4009475 31.3822165,10.6652511 31.0715339,10.2299347 C30.7608513,9.79461836 30.0905466,9.57696017 29.06062,9.57696017 L25.8256716,9.54586614 L23.4358899,22.325511 L19.4140621,22.325511 L23.6107519,0 L23.6107519,0" id="Path"></path>
                                    <path d="M39.835613,6.47116262 L47.7878398,6.47116262 C50.121889,6.49053303 51.8132208,7.15576807 52.8618353,8.46576086 C53.9104499,9.77575366 54.2564423,11.5650256 53.9003724,13.8335767 C53.7620874,14.8701701 53.4552851,15.8868396 52.9805253,16.8841387 C52.5253605,17.8814379 51.8927207,18.7807781 51.081486,19.5827128 C50.0922165,20.5993824 49.0340843,21.2446936 47.9065298,21.5186464 C46.7789752,21.7925993 45.6116707,21.929299 44.4051762,21.929299 L40.8444776,21.929299 L39.716923,27.5024411 L35.5924472,27.5024411 L39.835613,6.47116262 L39.835613,6.47116262 M43.2422195,10.0320406 L41.4166658,19.0584322 C41.5383694,19.0783016 41.6600729,19.0885202 41.7817765,19.0885202 C41.9235727,19.0885202 42.0659429,19.0885202 42.2077391,19.0885202 C44.1549964,19.1083896 45.7779022,18.9182109 47.0758824,18.5168487 C48.3738626,18.0956171 49.2464544,16.6315251 49.6925095,14.1240048 C50.0576202,12.0178468 49.6925095,10.8041094 48.5971772,10.4833602 C47.5219375,10.1626111 46.1734389,10.0121712 44.5505331,10.0320406 C44.3071259,10.0519101 44.0740521,10.0621286 43.8507375,10.0621286 C43.6480895,10.0621286 43.4351082,10.0621286 43.2117936,10.0621286 L43.2422195,10.0320406" id="Shape" fill-rule="nonzero"></path>
                                </g>
                                <g id="Python-logo-notext" transform="translate(18.119791, 50.723706)" fill="#FFFFFF" fill-rule="nonzero">
                                    <path d="M25.3413686,0 C12.3815063,0 13.1908036,5.559579 13.1908036,5.559579 L13.2052513,11.3192457 L25.5725327,11.3192457 L25.5725327,13.0485749 L8.29301343,13.0485749 C8.29301343,13.0485749 0,12.1182125 0,25.0538354 C0,37.9894557 7.23832705,37.5307312 7.23832705,37.5307312 L11.5582069,37.5307312 L11.5582069,31.5281009 C11.5582069,31.5281009 11.3253543,24.3678205 18.6809519,24.3678205 C26.0365485,24.3678205 30.9470989,24.3678205 30.9470989,24.3678205 C30.9470989,24.3678205 37.8386797,24.478022 37.8386797,17.7792192 C37.8386797,11.0804183 37.8386797,6.70293715 37.8386797,6.70293715 C37.8386797,6.70293623 38.8850118,0 25.3413686,0 Z M18.7669267,3.88269757 C20.0195121,3.88269757 21.0319006,4.82274481 21.0319006,5.98582543 C21.0319006,7.14890604 20.0195121,8.08895328 18.7669267,8.08895328 C17.5143413,8.08895328 16.5019528,7.14890604 16.5019528,5.98582543 C16.5019528,4.82274481 17.5143413,3.88269757 18.7669267,3.88269757 Z" id="path8615"></path>
                                    <path d="M25.6753541,50.7986266 C38.5244517,50.7986266 37.7220678,45.1911207 37.7220678,45.1911207 L37.7077435,39.3818022 L25.4461657,39.3818022 L25.4461657,37.6375651 L42.5779963,37.6375651 C42.5779963,37.6375651 50.8001291,38.5759451 50.8001291,25.5288074 C50.8001291,12.4816757 43.6236683,12.9443546 43.6236683,12.9443546 L39.3407106,12.9443546 L39.3407106,18.9987298 C39.3407106,18.9987298 39.5715766,26.2207361 32.278844,26.2207361 C24.986115,26.2207361 20.1175352,26.2207361 20.1175352,26.2207361 C20.1175352,26.2207361 13.2848569,26.1095847 13.2848569,32.8661398 C13.2848569,39.6226856 13.2848569,44.0379061 13.2848569,44.0379061 C13.2848569,44.0379061 12.2474678,50.7986266 25.6753541,50.7986266 Z M32.1949863,46.915929 C31.0318708,46.915929 30.0917962,45.9035709 30.0917962,44.6510221 C30.0917962,43.3984733 31.0318708,42.3861152 32.1949863,42.3861152 C33.3581017,42.3861152 34.2981763,43.3984733 34.2981763,44.6510221 C34.2981763,45.9035709 33.3581017,46.915929 32.1949863,46.915929 Z" id="path8620"></path>
                                </g>
                                <path d="M205.635728,138.061779 C227.943719,144.735554 239.750611,153.839419 241.056404,165.373375 C242.362196,176.907331 243.06405,184.258544 243.161966,187.427016" id="Path-2" stroke="#142434" stroke-width="0.570274637" stroke-linecap="round"></path>
                                <path d="M216.385163,163.321936 C217.733853,168.175308 218.408198,175.185734 218.408198,184.353214" id="Path-3" stroke="#142434" stroke-width="0.570274637"></path>
                            </g>
                        </g>
                        <rect id="Rectangle" fill="#B0E0FC" opacity="0.548618862" transform="translate(245.075525, 99.655493) rotate(-90.000000) translate(-245.075525, -99.655493) " x="212.997577" y="83.5452342" width="64.1558966" height="32.220517"></rect>
                        <rect id="Rectangle" fill="#ECFBFF" opacity="0.548618862" transform="translate(245.075525, 97.516963) rotate(-90.000000) translate(-245.075525, -97.516963) " x="218.557754" y="84.5432149" width="53.0355412" height="25.947496"></rect>
                        <polygon id="Path-121" fill="#FFFFFF" opacity="0.548618862" transform="translate(245.075525, 110.490711) rotate(-90.000000) translate(-245.075525, -110.490711) " points="231.531502 102.083067 247.137955 123.464459 258.619548 123.464459 239.435812 97.5169628 231.531502 97.5169628"></polygon>
                        <polygon id="Path-122" fill="#FFFFFF" opacity="0.548618862" transform="translate(235.951131, 75.561389) rotate(-90.000000) translate(-235.951131, -75.561389) " points="231.388934 71.7120355 240.513328 71.7120355 240.513328 79.4107431"></polygon>
                        <polygon id="Path-123" fill="#FFFFFF" opacity="0.548618862" transform="translate(245.075525, 89.675687) rotate(-90.000000) translate(-245.075525, -89.675687) " points="232.957189 76.7019386 250.27016 102.649435 257.193861 102.649435 238.915484 76.7019386"></polygon>
                        <ellipse id="Oval" fill="#FFFFFF" opacity="0.548618862" transform="translate(245.075525, 128.311793) rotate(-90.000000) translate(-245.075525, -128.311793) " cx="245.075525" cy="128.311793" rx="2.13852989" ry="1.99596123"></ellipse>
                        <rect id="Rectangle" fill="#B0E0FC" transform="translate(96.946688, 170.369548) rotate(-90.000000) translate(-96.946688, -170.369548) " x="78.8404685" y="161.245153" width="36.2124394" height="18.2487884"></rect>
                        <rect id="Rectangle" fill="#ECFBFF" transform="translate(96.946688, 169.228998) rotate(-90.000000) translate(-96.946688, -169.228998) " x="81.976979" y="161.815428" width="29.9394184" height="14.8271405"></rect>
                        <polygon id="Path-121" fill="#FFFFFF" transform="translate(96.946688, 176.480671) rotate(-90.000000) translate(-96.946688, -176.480671) " points="89.2286511 171.676303 98.1219603 183.894241 104.664725 183.894241 93.7329078 169.0671 89.2286511 169.0671"></polygon>
                        <polygon id="Path-122" fill="#FFFFFF" transform="translate(91.750872, 156.776561) rotate(-90.000000) translate(-91.750872, -156.776561) " points="89.2335995 154.558808 94.2681439 154.558808 94.2681439 158.994315"></polygon>
                        <polygon id="Path-123" fill="#FFFFFF" transform="translate(96.946688, 164.805131) rotate(-90.000000) translate(-96.946688, -164.805131) " points="90.1104774 157.391561 99.8770922 172.218702 103.782899 172.218702 93.4716782 157.391561"></polygon>
                        <rect id="Rectangle" fill="#ECECEC" x="3.99192246" y="4.56219709" width="277.438611" height="21.1001616"></rect>
                        <circle id="Oval" fill="#FFFFFF" transform="translate(96.946688, 186.479806) rotate(-90.000000) translate(-96.946688, -186.479806) " cx="96.9466882" cy="186.479806" r="1.14054927"></circle>
                        <ellipse id="Oval" stroke="#142434" stroke-width="1.14054927" cx="14.3994346" cy="12.8311793" rx="4.70476575" ry="4.84733441"></ellipse>
                        <ellipse id="Oval" stroke="#142434" stroke-width="1.14054927" cx="28.6563005" cy="12.8311793" rx="4.70476575" ry="4.84733441"></ellipse>
                        <ellipse id="Oval" stroke="#142434" stroke-width="1.14054927" cx="44.0537157" cy="12.8311793" rx="4.70476575" ry="4.84733441"></ellipse>
                    </g>
                </g>
                <path d="M130.766202,314.807585 L153.850905,312.36477 C152.02902,302.162542 147.374171,299.263199 139.886357,303.666739 C132.398542,308.07028 129.358491,311.783895 130.766202,314.807585 Z" id="Path-134" fill="#FFFFFF"></path>
                <line x1="135.574867" y1="310.864443" x2="137.516273" y2="317.012048" id="Path-69" stroke="#000000" stroke-width="0.570274637" stroke-linecap="round"></line>
                <line x1="138.486976" y1="309.570211" x2="140.428382" y2="315.717815" id="Path-69" stroke="#000000" stroke-width="0.570274637" stroke-linecap="round"></line>
                <line x1="141.722653" y1="309.570211" x2="143.664059" y2="315.717815" id="Path-69" stroke="#000000" stroke-width="0.570274637" stroke-linecap="round"></line>
                <line x1="168.088449" y1="95.0932956" x2="167.061342" y2="96.7591079" id="Path-135" stroke="#142434" stroke-width="0.5" stroke-linecap="round"></line>
                <line x1="168.020912" y1="95.1715705" x2="166.993805" y2="96.8373827" id="Path-135" stroke="#142434" stroke-width="0.5" stroke-linecap="round" transform="translate(167.564080, 95.890949) rotate(-85.000000) translate(-167.564080, -95.890949) "></line>
                <line x1="198.883279" y1="95.2293294" x2="197.856173" y2="96.8951417" id="Path-135" stroke="#142434" stroke-width="0.5" stroke-linecap="round"></line>
                <line x1="198.815742" y1="95.3076043" x2="197.788635" y2="96.9734165" id="Path-135" stroke="#142434" stroke-width="0.5" stroke-linecap="round" transform="translate(198.358910, 96.026982) rotate(-85.000000) translate(-198.358910, -96.026982) "></line>
            </g>
        </g>
    </g>
</svg>