<svg width="137" height="130" viewBox="0 0 336 320" version="1.1" xmlns="http://www.w3.org/2000/svg" xmlns:xlink="http://www.w3.org/1999/xlink">
    <!-- Generator: Sketch 60 (88103) - https://sketch.com -->
    <title>Group 6</title>
    <desc>Created with Sketch.</desc>
    <defs>
        <rect id="path-1" x="0.0964623343" y="0.26994765" width="77.4743802" height="72.1983471"></rect>
        <rect id="path-3" x="0" y="0" width="79.1404959" height="79.1404959"></rect>
        <rect id="path-5" x="0" y="0" width="77.4743802" height="77.4743802"></rect>
        <linearGradient x1="50%" y1="0%" x2="50%" y2="100%" id="linearGradient-7">
            <stop stop-color="#FAD961" offset="0%"></stop>
            <stop stop-color="#F76B1C" offset="100%"></stop>
        </linearGradient>
    </defs>
    <g id="Illustration" stroke="none" stroke-width="1" fill="none" fill-rule="evenodd">
        <g id="Live" transform="translate(-32.000000, -50.000000)">
            <g id="Group-6" transform="translate(32.000000, 50.000000)">
                <g id="Group-5">
                    <g id="Group-3">
                        <g id="Group-2">
                            <rect id="Rectangle" stroke="#142434" stroke-width="1.1107438" x="0.555371901" y="8.05289256" width="285.20459" height="217.895076"></rect>
                            <ellipse id="Oval" stroke="#142434" stroke-width="0.833057851" cx="9.96943932" cy="16.0760224" rx="3.30497651" ry="3.30246871"></ellipse>
                            <ellipse id="Oval" stroke="#142434" stroke-width="0.833057851" cx="22.8414531" cy="16.0760224" rx="3.30497651" ry="3.30246871"></ellipse>
                            <ellipse id="Oval" stroke="#142434" stroke-width="0.833057851" cx="35.7134669" cy="16.0760224" rx="3.30497651" ry="3.30246871"></ellipse>
                            <rect id="Rectangle" fill="#EEEEEE" x="19.1403532" y="23.856884" width="293.968964" height="232.910951"></rect>
                            <rect id="Rectangle" fill="#D9F1FF" x="96.7203282" y="51.595121" width="189.601284" height="189.457415"></rect>
                            <g id="Group-4" transform="translate(135.788430, 78.307438)">
                                <polygon id="Rectangle" fill="#B0E0FC" transform="translate(36.654545, 72.892562) rotate(-90.000000) translate(-36.654545, -72.892562) " points="-36.0991736 36.3768595 109.408264 36.3768595 109.408264 109.408264 -36.0991736 109.408264"></polygon>
                                <polygon id="Rectangle" fill="#ECFBFF" transform="translate(36.654545, 68.171901) rotate(-90.000000) translate(-36.654545, -68.171901) " points="-23.6033058 38.0429752 96.9123967 38.0429752 96.9123967 98.3008264 -23.6033058 98.3008264"></polygon>
                                <polygon id="Path-121" fill="#FFFFFF" transform="translate(36.654545, 97.328926) rotate(-90.000000) translate(-36.654545, -97.328926) " points="5.55371901 77.8038606 41.390456 127.457851 67.7553719 127.457851 23.7042025 67.2 5.55371901 67.2"></polygon>
                                <polygon id="Path-122" fill="#FFFFFF" transform="translate(15.272727, 18.327273) rotate(-90.000000) translate(-15.272727, -18.327273) " points="4.99834711 9.44132231 25.5471074 9.44132231 25.5471074 27.2132231"></polygon>
                                <polygon id="Path-123" fill="#FFFFFF" transform="translate(36.654545, 50.400000) rotate(-90.000000) translate(-36.654545, -50.400000) " points="9.16363636 20.2710744 48.438774 80.5289256 64.1454545 80.5289256 22.6802566 20.2710744"></polygon>
                                <ellipse id="Oval" fill="#FFFFFF" transform="translate(36.515702, 137.732231) rotate(-90.000000) translate(-36.515702, -137.732231) " cx="36.5157025" cy="137.732231" rx="4.30413223" ry="4.44297521"></ellipse>
                            </g>
                            <g id="Group" transform="translate(134.222486, 0.146135)">
                                <path d="" id="Path-2" stroke="#979797" stroke-width="0.5"></path>
                                <path d="M102.319247,31.634174 C102.410948,52.3513151 101.346766,65.1269395 99.1267002,69.9610473 C96.9066344,74.7951551 98.5740598,75.9763031 104.128976,73.5044913 C106.910526,88.3860637 112.387845,93.7671419 120.560933,89.6477261 C121.658592,90.7294986 129.97812,111.647622 118.621981,121.526554 C131.034308,122.770166 142.425285,115.921982 152.794911,100.982001 L150.670061,80.5123723 C138.6362,79.6941421 131.668381,71.7113129 129.766604,56.5638846 C137.904343,54.4768218 139.72545,50.2808584 135.229926,43.9759942 C131.539155,40.5237103 127.112498,41.5554651 121.949956,47.0712588 C114.637597,37.125452 108.094028,31.9797571 102.319247,31.634174 Z" id="Path-7" fill="#FFC7AE"></path>
                                <path d="M121.644025,47.6129844 C113.056674,36.8918714 106.471125,31.5313149 101.88738,31.5313149 C95.011762,31.5313149 79.5432867,7.61727374 104.790243,1.35585812 C121.621547,-2.81841895 134.782747,2.6458064 144.273842,17.7485342 C153.411081,16.8760692 157.979701,20.6168914 157.979701,28.9710009 C157.979701,41.5021651 160.919615,72.8625744 150.476718,80.6497622 C137.59666,80.4597698 130.613871,72.224689 129.528351,55.9445198 C136.593517,55.195248 138.647955,51.5654649 135.691667,45.0551703 C132.064303,40.6509025 127.381755,41.5035072 121.644025,47.6129844 Z" id="Path-3" fill="#142434"></path>
                                <path d="M118.701469,43.1858866 C124.240278,31.1481408 130.710491,29.4522233 138.112107,38.0981341 C149.214532,51.0670003 138.074107,75.6035053 155.925941,71.5026218" id="Path-4" stroke="#4987AD" stroke-width="0.5"></path>
                                <path d="M114.178869,38.3685899 C119.363496,26.1890054 126.75613,22.5730803 136.356771,27.5208146 C150.757733,34.9424161 147.704225,61.584123 158.013294,60.4523218" id="Path-5" stroke="#4987AD" stroke-width="0.5"></path>
                                <path d="M98.8895059,8.47742946 C94.9225039,13.5313751 94.7037086,18.3085451 98.2331201,22.8089393 C103.527237,29.5595306 109.866528,27.6996487 108.397197,27.181007 C106.927866,26.6623654 97.9782012,25.2636658 100.28424,18.9919178 C104.148789,8.10923838 103.683877,4.60440893 98.8895059,8.47742946 Z" id="Path-6" fill="#4987AD"></path>
                                <ellipse id="Oval" fill="#4987AD" transform="translate(114.031926, 30.644154) rotate(8.000000) translate(-114.031926, -30.644154) " cx="114.031926" cy="30.6441536" rx="1.73943576" ry="1.56435029"></ellipse>
                                <path d="M118.724612,121.781198 C111.651148,150.101936 107.772795,176.263076 107.089553,200.26462 C107.041555,202.867931 101.212638,196.582765 106.991874,207.987787 C106.860032,227.589402 108.722142,253.132859 112.578206,284.618158 C144.953317,294.119035 174.58797,288.929906 201.482165,269.050774 C202.351503,159.109557 170.896455,110.186877 158.697081,102.897972 C144.997206,120.772058 131.673049,127.066466 118.724612,121.781198 Z" id="Path-9" fill="#8FD4FF"></path>
                                <path d="M118.494318,121.470776 C113.210969,125.614687 112.778873,127.960198 117.198028,128.507308 C123.82676,129.327975 144.357032,126.262243 158.361187,102.843063 C156.706278,99.4914967 154.786275,98.8808042 152.601178,101.010985 C143.672827,112.495004 133.663151,121.912567 118.494318,121.470776 Z" id="Path-8" fill="#004F80"></path>
                                <path d="M112.439408,284.488017 L112.439408,319.470394 C144.906344,312.784528 174.477186,295.634866 201.151935,268.021408 C174.743751,284.054669 145.172908,289.543538 112.439408,284.488017 Z" id="Path-10" fill="#142434"></path>
                                <path d="M105.23086,200.492132 C115.971788,229.38735 120.893481,243.83496 119.99594,243.83496 C118.649629,243.83496 68.3165107,264.703946 26.7202638,188.947888 C10.3674712,184.465219 6.24480184,183.647727 8.30613653,180.383175 C9.68035966,178.206807 10.8587832,177.426089 11.8414073,178.041023 C10.0407213,178.254153 9.14037837,177.610211 9.14037837,176.109198 C9.14037837,174.608185 9.76307163,173.149397 11.0084581,171.732833 L13.1480961,171.732833 L11.0084581,170.652841 C10.3471753,168.888641 9.97115099,167.296683 11.438584,165.919105 L13.1480961,166.109894 C-2.1439471,166.20723 -2.47386934,152.184756 3.9905403,146.933972 C6.84354668,146.01685 5.6177396,157.353759 8.30613653,159.226278 C19.298289,166.882515 32.1992628,162.6349 24.9312959,153.899419 C20.0859846,148.075765 18.0295971,143.93753 18.7621334,141.484712 C24.2300852,142.28219 34.4844632,148.591039 49.5252676,160.411258 C71.5825955,191.176136 90.1511263,204.536427 105.23086,200.492132 Z" id="Path-11" fill="#FFC7AE"></path>
                                <path d="M104.089993,200.877809 C116.248821,201.708631 124.946127,192.455657 130.181913,173.118886" id="Path-12" stroke="#FFFFFF" stroke-width="0.555371901"></path>
                                <path d="M146.53285,127.927209 C140.055247,128.016755 135.88054,133.926435 134.008728,145.656251" id="Path-13" stroke="#FFFFFF" stroke-width="0.555371901" stroke-linecap="round"></path>
                                <path d="M104.089993,200.792395 L120.157813,243.687428 C152.516992,237.836884 170.585798,214.314037 174.364231,173.118886" id="Path-13" stroke="#004F80" stroke-width="0.555371901" stroke-linecap="round"></path>
                                <polyline id="Path-14" stroke="#004F80" stroke-width="0.555371901" points="112.439408 200.929149 134.704513 239.16826 118.814548 239.16826 124.58836 234.649853 117.07293 234.649853 128.129698 229.799166 120.075041 229.799166"></polyline>
                                <polyline id="Path-15" stroke="#142434" stroke-width="0.555371901" stroke-linecap="round" points="63.2788344 217.615307 58.5161068 237.08249 67.2134134 228.322258"></polyline>
                                <line x1="56.7766455" y1="208.229343" x2="52.254046" y2="230.129925" id="Path-16" stroke="#142434" stroke-width="0.555371901" stroke-linecap="round"></line>
                                <line x1="46.3398775" y1="199.191007" x2="41.4693858" y2="220.048705" id="Path-17" stroke="#142434" stroke-width="0.555371901" stroke-linecap="round"></line>
                                <path d="M7.83337489,181.809593 C7.81010115,178.471985 10.323508,177.359449 15.3735955,178.471985 C15.5910792,177.574941 6.55866575,179.470012 9.59258672,173.786216 C10.182922,171.921661 11.7049933,171.282263 14.1588005,171.868024 C11.8250842,171.456043 10.5670441,170.237963 10.3846802,168.213785 C10.2023163,166.189606 11.4603564,165.545961 14.1588005,166.282851 C1.18910437,165.085915 -2.75261935,159.188966 2.33362937,148.592005" id="Path-18" stroke="#142434" stroke-width="0.555371901" stroke-linecap="round"></path>
                                <ellipse id="Oval" stroke="#142434" stroke-width="1.1107438" cx="114.352815" cy="55.7943398" rx="4.34865331" ry="4.34535356"></ellipse>
                                <path d="M120.06698,120.226566 C112.572434,125.676341 114.446457,127.946415 125.689049,127.036787 C132.47398,125.559135 141.847608,120.907206 144.793388,118.193617" id="Path-19" stroke="#FFFFFF" stroke-width="0.5"></path>
                                <path d="M149.66388,105.522883 C153.213629,105.55968 154.988504,106.538727 154.988504,108.460025 C155.463214,107.690548 156.011203,106.7115 156.632469,105.522883 C155.747842,103.108969 154.085695,102.193965 151.646027,102.777872 C151.715779,102.122617 153.76867,99.3288472 155.412636,99.8288826 C156.508613,100.162239 157.375499,101.412041 158.013294,103.578287" id="Path-20" stroke="#FFFFFF" stroke-width="0.5"></path>
                                <path d="M20.9437422,142.179969 C21.1289537,144.960995 22.9843791,145.888004 26.5100184,144.960995" id="Path-25" stroke="#FFFFFF" stroke-width="0.555371901" stroke-linecap="round"></path>
                                <path d="M120.44093,89.7883986 C124.868079,87.5326948 127.081653,85.5971802 127.081653,83.9818549 C127.081653,81.5588669 128.712687,101.433881 124.576808,108.807653 C124.138838,101.00132 122.760212,94.6615682 120.44093,89.7883986 Z" id="Path-27" fill="#E19A7A"></path>
                                <line x1="130.007967" y1="46.9298185" x2="130.007967" y2="51.4489862" id="Path-28" stroke="#142434" stroke-width="0.555371901" stroke-linecap="round"></line>
                                <line x1="127.398775" y1="49.1894024" x2="132.269267" y2="49.1894024" id="Path-29" stroke="#142434" stroke-width="0.555371901" stroke-linecap="round"></line>
                                <path d="M179.597311,219.00582 C179.452687,222.404852 180.375501,223.537862 182.365753,222.404852" id="Path-30" stroke="#004F80" stroke-width="0.555371901" stroke-linecap="round"></path>
                                <path d="M160.463236,244.730313 C160.318612,248.129345 161.241426,249.262356 163.231678,248.129345" id="Path-30" stroke="#004F80" stroke-width="0.555371901" stroke-linecap="round"></path>
                                <path d="M182.382289,253.767873 C182.231112,257.208298 183.188148,258.354775 185.253398,257.207305" id="Path-30" stroke="#004F80" stroke-width="0.555371901" stroke-linecap="round" transform="translate(183.810110, 255.702833) rotate(-300.000000) translate(-183.810110, -255.702833) "></path>
                                <path d="M126.281935,269.346544 C126.130758,272.786969 127.087794,273.933446 129.153044,272.785976" id="Path-30" stroke="#004F80" stroke-width="0.555371901" stroke-linecap="round" transform="translate(127.709756, 271.281504) rotate(-300.000000) translate(-127.709756, -271.281504) "></path>
                                <path d="M148.199148,207.468709 C148.04797,210.909134 149.005007,212.055611 151.070257,210.908141" id="Path-30" stroke="#004F80" stroke-width="0.555371901" stroke-linecap="round" transform="translate(149.626969, 209.403669) rotate(-300.000000) translate(-149.626969, -209.403669) "></path>
                                <path d="M148.199148,207.468709 C148.04797,210.909134 149.005007,212.055611 151.070257,210.908141" id="Path-30" stroke="#004F80" stroke-width="0.555371901" stroke-linecap="round" transform="translate(149.626969, 209.403669) rotate(-300.000000) translate(-149.626969, -209.403669) "></path>
                                <path d="M121.759336,162.624661 C121.608158,166.065086 122.565195,167.211563 124.630445,166.064092" id="Path-30" stroke="#004F80" stroke-width="0.555371901" stroke-linecap="round" transform="translate(123.187157, 164.559620) rotate(-300.000000) translate(-123.187157, -164.559620) "></path>
                                <path d="M168.029007,134.814398 C167.877829,138.254823 168.834866,139.4013 170.900116,138.253829" id="Path-30" stroke="#004F80" stroke-width="0.555371901" stroke-linecap="round" transform="translate(169.456828, 136.749357) rotate(-300.000000) translate(-169.456828, -136.749357) "></path>
                                <path d="M168.029007,134.814398 C167.877829,138.254823 168.834866,139.4013 170.900116,138.253829" id="Path-30" stroke="#004F80" stroke-width="0.555371901" stroke-linecap="round" transform="translate(169.456828, 136.749357) rotate(-300.000000) translate(-169.456828, -136.749357) "></path>
                                <path d="M153.069639,173.053509 C152.918462,176.493934 153.875499,177.640411 155.940749,176.492941" id="Path-30" stroke="#004F80" stroke-width="0.555371901" stroke-linecap="round" transform="translate(154.497461, 174.988469) rotate(-300.000000) translate(-154.497461, -174.988469) "></path>
                            </g>
                            <path d="M137.650799,147.584399 C138.460183,149.500873 138.187642,150.755791 136.833178,151.349155" id="Path-26" stroke="#FFFFFF" stroke-width="0.555371901" stroke-linecap="round"></path>
                            <g id="Group-8" transform="translate(19.063868, 41.938317)">
                                <mask id="mask-2" fill="white">
                                    <use xlink:href="#path-1"></use>
                                </mask>
                                <g id="Mask"></g>
                                <line x1="-0.888172611" y1="2.49143525" x2="84.2006617" y2="82.3141853" id="Line-3" stroke="#142434" stroke-width="0.555371901" stroke-linecap="square" mask="url(#mask-2)"></line>
                                <g id="Group-7" mask="url(#mask-2)" stroke="#142434" stroke-linecap="square" stroke-width="0.555371901">
                                    <g transform="translate(-1.014281, -66.930052)">
                                        <line x1="0.126108856" y1="64.6478329" x2="85.2149432" y2="144.537078" id="Line-3-Copy-16"></line>
                                        <line x1="0.126108856" y1="59.6749227" x2="85.2149432" y2="139.564168" id="Line-3-Copy-17"></line>
                                        <line x1="0.126108856" y1="54.7020125" x2="85.2149432" y2="134.591257" id="Line-3-Copy-18"></line>
                                        <line x1="0.126108856" y1="49.7291023" x2="85.2149432" y2="129.618347" id="Line-3-Copy-19"></line>
                                        <line x1="0.126108856" y1="44.756192" x2="85.2149432" y2="124.645437" id="Line-3-Copy-20"></line>
                                        <line x1="0.126108856" y1="39.7832818" x2="85.2149432" y2="119.672527" id="Line-3-Copy-21"></line>
                                        <line x1="0.126108856" y1="34.8103716" x2="85.2149432" y2="114.699616" id="Line-3-Copy-22"></line>
                                        <line x1="0.126108856" y1="29.8374614" x2="85.2149432" y2="109.726706" id="Line-3-Copy-23"></line>
                                        <line x1="0.126108856" y1="24.8645511" x2="85.2149432" y2="104.753796" id="Line-3-Copy-24"></line>
                                        <line x1="0.126108856" y1="19.8916409" x2="85.2149432" y2="99.7808858" id="Line-3-Copy-25"></line>
                                        <line x1="0.126108856" y1="14.9187307" x2="85.2149432" y2="94.8079755" id="Line-3-Copy-26"></line>
                                        <line x1="0.126108856" y1="9.94582045" x2="85.2149432" y2="89.8350653" id="Line-3-Copy-27"></line>
                                        <line x1="0.126108856" y1="4.97291023" x2="85.2149432" y2="84.8621551" id="Line-3-Copy-28"></line>
                                        <line x1="0.126108856" y1="0" x2="85.2149432" y2="79.8892449" id="Line-3-Copy-29"></line>
                                        <line x1="0.126108856" y1="78.6193426" x2="85.2149432" y2="158.508587" id="Line-3-Copy-2"></line>
                                        <line x1="0.126108856" y1="83.1186424" x2="85.2149432" y2="163.007887" id="Line-3-Copy-3"></line>
                                        <line x1="0.126108856" y1="87.6179421" x2="85.2149432" y2="167.507187" id="Line-3-Copy-4"></line>
                                        <line x1="0.126108856" y1="92.1172418" x2="85.2149432" y2="172.006487" id="Line-3-Copy-5"></line>
                                        <line x1="0.126108856" y1="96.6165415" x2="85.2149432" y2="176.505786" id="Line-3-Copy-6"></line>
                                        <line x1="0.126108856" y1="101.115841" x2="85.2149432" y2="181.005086" id="Line-3-Copy-7"></line>
                                        <line x1="0.126108856" y1="105.615141" x2="85.2149432" y2="185.504386" id="Line-3-Copy-8"></line>
                                        <line x1="0.126108856" y1="110.114441" x2="85.2149432" y2="190.003686" id="Line-3-Copy-9"></line>
                                        <line x1="0.126108856" y1="114.61374" x2="85.2149432" y2="194.502985" id="Line-3-Copy-10"></line>
                                        <line x1="0.126108856" y1="119.11304" x2="85.2149432" y2="199.002285" id="Line-3-Copy-11"></line>
                                        <line x1="0.126108856" y1="123.61234" x2="85.2149432" y2="203.501585" id="Line-3-Copy-12"></line>
                                        <line x1="0.126108856" y1="128.11164" x2="85.2149432" y2="208.000885" id="Line-3-Copy-13"></line>
                                        <line x1="0.126108856" y1="132.610939" x2="85.2149432" y2="212.500184" id="Line-3-Copy-14"></line>
                                        <line x1="0.126108856" y1="137.110239" x2="85.2149432" y2="216.999484" id="Line-3-Copy-15"></line>
                                        <line x1="0.126108856" y1="74.1200429" x2="85.2149432" y2="154.009288" id="Line-3-Copy"></line>
                                    </g>
                                </g>
                            </g>
                            <g id="Group-8" transform="translate(17.494215, 129.679339)">
                                <mask id="mask-4" fill="white">
                                    <use xlink:href="#path-3"></use>
                                </mask>
                                <g id="Mask"></g>
                                <line x1="-0.703662771" y1="2.2214876" x2="86.6024701" y2="89.8047828" id="Line-3" stroke="#142434" stroke-width="0.555371901" stroke-linecap="square" mask="url(#mask-4)"></line>
                                <g id="Group-7" mask="url(#mask-4)" stroke="#142434" stroke-linecap="square" stroke-width="0.555371901">
                                    <g transform="translate(-0.833058, -73.864463)">
                                        <line x1="0.12939508" y1="70.9307425" x2="87.435528" y2="158.58416" id="Line-3-Copy-16"></line>
                                        <line x1="0.12939508" y1="65.4745316" x2="87.435528" y2="153.127949" id="Line-3-Copy-17"></line>
                                        <line x1="0.12939508" y1="60.0183206" x2="87.435528" y2="147.671738" id="Line-3-Copy-18"></line>
                                        <line x1="0.12939508" y1="54.5621096" x2="87.435528" y2="142.215527" id="Line-3-Copy-19"></line>
                                        <line x1="0.12939508" y1="49.1058987" x2="87.435528" y2="136.759316" id="Line-3-Copy-20"></line>
                                        <line x1="0.12939508" y1="43.6496877" x2="87.435528" y2="131.303105" id="Line-3-Copy-21"></line>
                                        <line x1="0.12939508" y1="38.1934768" x2="87.435528" y2="125.846894" id="Line-3-Copy-22"></line>
                                        <line x1="0.12939508" y1="32.7372658" x2="87.435528" y2="120.390683" id="Line-3-Copy-23"></line>
                                        <line x1="0.12939508" y1="27.2810548" x2="87.435528" y2="114.934472" id="Line-3-Copy-24"></line>
                                        <line x1="0.12939508" y1="21.8248439" x2="87.435528" y2="109.478261" id="Line-3-Copy-25"></line>
                                        <line x1="0.12939508" y1="16.3686329" x2="87.435528" y2="104.02205" id="Line-3-Copy-26"></line>
                                        <line x1="0.12939508" y1="10.9124219" x2="87.435528" y2="98.5658389" id="Line-3-Copy-27"></line>
                                        <line x1="0.12939508" y1="5.45621096" x2="87.435528" y2="93.109628" id="Line-3-Copy-28"></line>
                                        <line x1="0.12939508" y1="0" x2="87.435528" y2="87.653417" id="Line-3-Copy-29"></line>
                                        <line x1="0.12939508" y1="86.2600972" x2="87.435528" y2="173.913514" id="Line-3-Copy-2"></line>
                                        <line x1="0.12939508" y1="91.196669" x2="87.435528" y2="178.850086" id="Line-3-Copy-3"></line>
                                        <line x1="0.12939508" y1="96.1332408" x2="87.435528" y2="183.786658" id="Line-3-Copy-4"></line>
                                        <line x1="0.12939508" y1="101.069813" x2="87.435528" y2="188.72323" id="Line-3-Copy-5"></line>
                                        <line x1="0.12939508" y1="106.006384" x2="87.435528" y2="193.659801" id="Line-3-Copy-6"></line>
                                        <line x1="0.12939508" y1="110.942956" x2="87.435528" y2="198.596373" id="Line-3-Copy-7"></line>
                                        <line x1="0.12939508" y1="115.879528" x2="87.435528" y2="203.532945" id="Line-3-Copy-8"></line>
                                        <line x1="0.12939508" y1="120.8161" x2="87.435528" y2="208.469517" id="Line-3-Copy-9"></line>
                                        <line x1="0.12939508" y1="125.752672" x2="87.435528" y2="213.406089" id="Line-3-Copy-10"></line>
                                        <line x1="0.12939508" y1="130.689244" x2="87.435528" y2="218.342661" id="Line-3-Copy-11"></line>
                                        <line x1="0.12939508" y1="135.625815" x2="87.435528" y2="223.279232" id="Line-3-Copy-12"></line>
                                        <line x1="0.12939508" y1="140.562387" x2="87.435528" y2="228.215804" id="Line-3-Copy-13"></line>
                                        <line x1="0.12939508" y1="145.498959" x2="87.435528" y2="233.152376" id="Line-3-Copy-14"></line>
                                        <line x1="0.12939508" y1="150.435531" x2="87.435528" y2="238.088948" id="Line-3-Copy-15"></line>
                                        <line x1="0.12939508" y1="81.3235253" x2="87.435528" y2="168.976942" id="Line-3-Copy"></line>
                                    </g>
                                </g>
                            </g>
                            <g id="Group-8" transform="translate(19.160331, 219.927273)">
                                <mask id="mask-6" fill="white">
                                    <use xlink:href="#path-5"></use>
                                </mask>
                                <g id="Mask"></g>
                                <line x1="-0.706538217" y1="2.2214876" x2="84.6594584" y2="87.8646466" id="Line-3" stroke="#142434" stroke-width="0.555371901" stroke-linecap="square" mask="url(#mask-6)"></line>
                                <g id="Group-7" mask="url(#mask-6)" stroke="#142434" stroke-linecap="square" stroke-width="0.555371901">
                                    <g transform="translate(-0.833058, -72.198347)">
                                        <line x1="0.126519634" y1="69.3600151" x2="85.4925163" y2="155.072389" id="Line-3-Copy-16"></line>
                                        <line x1="0.126519634" y1="64.0246294" x2="85.4925163" y2="149.737003" id="Line-3-Copy-17"></line>
                                        <line x1="0.126519634" y1="58.6892436" x2="85.4925163" y2="144.401618" id="Line-3-Copy-18"></line>
                                        <line x1="0.126519634" y1="53.3538578" x2="85.4925163" y2="139.066232" id="Line-3-Copy-19"></line>
                                        <line x1="0.126519634" y1="48.018472" x2="85.4925163" y2="133.730846" id="Line-3-Copy-20"></line>
                                        <line x1="0.126519634" y1="42.6830862" x2="85.4925163" y2="128.39546" id="Line-3-Copy-21"></line>
                                        <line x1="0.126519634" y1="37.3477005" x2="85.4925163" y2="123.060074" id="Line-3-Copy-22"></line>
                                        <line x1="0.126519634" y1="32.0123147" x2="85.4925163" y2="117.724689" id="Line-3-Copy-23"></line>
                                        <line x1="0.126519634" y1="26.6769289" x2="85.4925163" y2="112.389303" id="Line-3-Copy-24"></line>
                                        <line x1="0.126519634" y1="21.3415431" x2="85.4925163" y2="107.053917" id="Line-3-Copy-25"></line>
                                        <line x1="0.126519634" y1="16.0061573" x2="85.4925163" y2="101.718531" id="Line-3-Copy-26"></line>
                                        <line x1="0.126519634" y1="10.6707716" x2="85.4925163" y2="96.3831455" id="Line-3-Copy-27"></line>
                                        <line x1="0.126519634" y1="5.33538578" x2="85.4925163" y2="91.0477597" id="Line-3-Copy-28"></line>
                                        <line x1="0.126519634" y1="0" x2="85.4925163" y2="85.712374" id="Line-3-Copy-29"></line>
                                        <line x1="0.126519634" y1="84.3499085" x2="85.4925163" y2="170.062282" id="Line-3-Copy-2"></line>
                                        <line x1="0.126519634" y1="89.1771623" x2="85.4925163" y2="174.889536" id="Line-3-Copy-3"></line>
                                        <line x1="0.126519634" y1="94.0044161" x2="85.4925163" y2="179.71679" id="Line-3-Copy-4"></line>
                                        <line x1="0.126519634" y1="98.8316699" x2="85.4925163" y2="184.544044" id="Line-3-Copy-5"></line>
                                        <line x1="0.126519634" y1="103.658924" x2="85.4925163" y2="189.371298" id="Line-3-Copy-6"></line>
                                        <line x1="0.126519634" y1="108.486178" x2="85.4925163" y2="194.198551" id="Line-3-Copy-7"></line>
                                        <line x1="0.126519634" y1="113.313431" x2="85.4925163" y2="199.025805" id="Line-3-Copy-8"></line>
                                        <line x1="0.126519634" y1="118.140685" x2="85.4925163" y2="203.853059" id="Line-3-Copy-9"></line>
                                        <line x1="0.126519634" y1="122.967939" x2="85.4925163" y2="208.680313" id="Line-3-Copy-10"></line>
                                        <line x1="0.126519634" y1="127.795193" x2="85.4925163" y2="213.507567" id="Line-3-Copy-11"></line>
                                        <line x1="0.126519634" y1="132.622447" x2="85.4925163" y2="218.334821" id="Line-3-Copy-12"></line>
                                        <line x1="0.126519634" y1="137.4497" x2="85.4925163" y2="223.162074" id="Line-3-Copy-13"></line>
                                        <line x1="0.126519634" y1="142.276954" x2="85.4925163" y2="227.989328" id="Line-3-Copy-14"></line>
                                        <line x1="0.126519634" y1="147.104208" x2="85.4925163" y2="232.816582" id="Line-3-Copy-15"></line>
                                        <line x1="0.126519634" y1="79.5226547" x2="85.4925163" y2="165.235029" id="Line-3-Copy"></line>
                                    </g>
                                </g>
                            </g>
                            <rect id="Rectangle" fill="#91D5FF" x="11.385124" y="28.6016529" width="78.585124" height="78.585124"></rect>
                            <rect id="Rectangle" fill="#91D5FF" x="10.8297521" y="123.014876" width="79.1404959" height="79.1404959"></rect>
                            <rect id="Rectangle" fill="#91D5FF" x="10.8297521" y="213.26281" width="77.1966942" height="77.1966942"></rect>
                            <g id="google-chrome-logo-filled-with-white-colour" transform="translate(23.325620, 42.208264)" fill="#FFFFFF" fill-rule="nonzero">
                                <path d="M25.4931023,0.259742064 C11.5949204,0.259742064 0.223680775,11.6309817 0.223680775,25.5291636 C0.223680775,39.4273454 11.5949204,50.798585 25.4931023,50.798585 C39.3912841,50.798585 50.7625238,39.4273454 50.7625238,25.5291636 C50.7625238,11.6309817 39.3912841,0.259742064 25.4931023,0.259742064 Z M25.2850207,5.38687106 C32.8591886,5.38687106 39.1709951,9.45602106 42.7056068,15.5597461 L25.2850207,15.5597461 C20.4880478,15.5597461 16.1960193,19.1202523 15.4386025,23.6980461 L9.37926827,13.2708492 C13.1663522,8.43873356 18.7207419,5.38687106 25.2850207,5.38687106 Z M32.8175723,25.7122753 C32.8175723,29.9665716 29.5642868,33.219857 25.3099905,33.219857 C21.0556942,33.219857 17.8024088,29.9665716 17.8024088,25.7122753 C17.8024088,21.457979 21.0556942,18.2046936 25.3099905,18.2046936 C29.5642868,18.2046936 32.8175723,21.457979 32.8175723,25.7122753 Z M5.35080977,25.3691331 C5.35080977,21.5837978 6.35890887,18.3031738 8.12308229,15.2749056 L16.9439494,30.4162469 L16.9439494,30.4162469 C18.7081228,33.4445152 21.9844449,35.4633607 25.5127917,35.4633607 C26.7729156,35.4633607 27.7810147,35.211005 28.7891138,34.9586493 L22.7405192,45.3052325 C12.911553,44.0434541 5.35080977,35.4633607 5.35080977,25.3691331 Z M25.4931023,45.671456 L34.3548067,30.4898273 L34.3548067,30.4898273 C35.1143814,28.9716645 35.873956,27.2004744 35.873956,25.4292844 C35.873956,22.3929587 34.6079983,19.6096601 32.3292743,17.8384701 L44.4824689,17.8384701 C45.4952351,20.1157144 46.0016183,22.6459858 46.0016183,25.4292844 C45.7484267,36.5624788 36.6335307,45.671456 25.4931023,45.671456 Z" id="Shape"></path>
                            </g>
                            <g id="Internet_Explorer_10+11_logo" transform="translate(24.610167, 135.575031)" fill="#FFFFFF" fill-rule="nonzero">
                                <path d="M51.1971452,26.9575099 C51.1971452,22.8445175 50.152853,18.9804667 48.3215924,15.6227833 C56.1272425,-2.36622611 39.9577327,0.2686294 39.0574561,0.448003188 C35.6317871,1.13059317 32.4624899,2.22647006 29.5390905,3.61564733 C29.1079956,3.59092284 28.6742822,3.57734861 28.2372363,3.57734861 C17.3270364,3.57734861 8.19453765,11.3262963 5.85719879,21.7142202 C11.6075904,15.1450188 15.6319361,12.4944075 18.0418779,11.4336781 C17.6572013,11.7836994 17.2806182,12.1375991 16.9102241,12.4941651 C16.7869181,12.6126972 16.6681349,12.7329261 16.5464952,12.8521855 C16.3022637,13.0914313 16.0585082,13.3309196 15.8204657,13.5725894 C15.6788305,13.7163308 15.5410039,13.8612842 15.401511,14.0059952 C15.1903674,14.2248797 14.9796998,14.4435218 14.773555,14.6636183 C14.6271589,14.8199644 14.4843334,14.9767953 14.3405558,15.1333837 C14.1479795,15.3432995 13.9565933,15.5534577 13.7687778,15.7643431 C13.6228578,15.9282035 13.4793182,16.0920639 13.3360166,16.2564091 C13.1579609,16.4605074 12.9815714,16.6646056 12.8075624,16.8691887 C12.6633087,17.0388666 12.5202451,17.2085445 12.3788479,17.3784648 C12.2138845,17.5767456 12.0510635,17.7750264 11.8899087,17.9733071 C11.7473213,18.1488026 11.60521,18.3240556 11.4657171,18.4993086 C11.3147982,18.6888631 11.1672118,18.8781752 11.0198636,19.0672448 C10.8770381,19.250497 10.7342126,19.4335067 10.5947197,19.6165165 C10.461892,19.7907999 10.332873,19.9643562 10.2029018,20.1381548 C10.0562677,20.3344964 9.90844333,20.530838 9.76561786,20.72621 C9.66349764,20.866073 9.56542415,21.0044817 9.46520828,21.14386 C8.55802848,22.4043245 7.72916465,23.6405492 6.98052113,24.8280522 C6.97861679,24.830961 6.97671245,24.8338697 6.97504616,24.8367785 C6.777947,25.1494706 6.58775108,25.4575572 6.40136384,25.7629775 C6.39136606,25.7794605 6.38089219,25.7961859 6.37089441,25.8129113 C6.18426912,26.1195435 6.00407098,26.420843 5.82839565,26.7189913 C5.82220655,26.7294144 5.8157794,26.7400798 5.8095903,26.7505029 C5.33731406,27.5530794 4.89931595,28.3268107 4.5048796,29.0547289 C2.43700479,32.870785 1.43032325,35.5369098 1.38676148,35.695195 C-5.14321915,59.4675547 15.2370237,49.4286825 18.0809169,47.9301842 C21.143095,49.4706172 24.5904259,50.3376713 28.2372363,50.3376713 C38.2207369,50.3376713 46.7148058,43.8484609 49.8764857,34.7864486 L37.8124941,34.7864486 C36.0274137,37.8573764 32.5907948,39.9373851 28.6426226,39.9373851 C22.8579529,39.9373851 18.1687546,35.4743713 18.1687546,29.968808 L51.0090917,29.968808 C51.1335879,28.982737 51.1980974,27.977759 51.1980974,26.9575099 L51.1971452,26.9575099 Z M46.9422212,3.84368482 C48.9362328,5.21905425 50.5355713,7.37901723 47.7889439,14.6530679 C45.1546687,10.3235738 41.1913725,6.92734846 36.480742,5.06056537 C38.6235963,4.00290971 43.9303177,1.76591034 46.9422212,3.84368482 L46.9422212,3.84368482 Z M4.85383832,47.7875502 C3.24661854,46.1185726 2.96247444,42.0536571 6.50904899,34.6464564 C8.29896677,39.8571402 11.8707247,44.2232318 16.4873536,46.9941965 C14.1913932,48.2737139 8.09607458,51.1546127 4.85383832,47.7875502 Z M18.1534693,23.8167043 C18.3352062,18.4192928 22.8637781,14.097696 28.4278495,14.097696 C33.9916851,14.097696 38.5204927,18.4192928 38.7022296,23.8167043 L18.1534693,23.8167043 L18.1534693,23.8167043 Z" id="svg"></path>
                            </g>
                            <g id="safari" transform="translate(24.158678, 224.647934)" fill="#FFFFFF" fill-rule="nonzero">
                                <path d="M28.3239669,26.7079258 C28.3239669,27.2208102 28.1612248,27.6646525 27.8357404,28.0394526 C27.5102561,28.4142528 27.1009348,28.6016529 26.6077767,28.6016529 C26.0948923,28.6016529 25.65105,28.4389107 25.2762498,28.1134264 C24.9014497,27.787942 24.7140496,27.3786208 24.7140496,26.8854627 C24.7140496,26.3725782 24.8817233,25.9287359 25.2170709,25.5539358 C25.5524184,25.1791356 25.9666712,24.9917355 26.4598293,24.9917355 C26.9529874,24.9917355 27.3869665,25.1544777 27.7617667,25.4799621 C28.1365669,25.8054464 28.3239669,26.2147676 28.3239669,26.7079258 Z M28.9771526,28.5033499 L39.431405,11.107438 C39.2521892,11.2671251 38.5801301,11.8909028 37.4152277,12.9787711 C36.2503253,14.0666393 35.0007932,15.2293609 33.6666315,16.4669358 C32.3324698,17.7045108 30.973417,18.972027 29.5894731,20.2694846 C28.2055292,21.5669421 27.0406268,22.6697811 26.0947658,23.5780014 C25.1489049,24.4862217 24.6461052,25.0002145 24.5863666,25.1199798 L14.1619835,42.4859504 C14.3013735,42.3462242 14.9684544,41.7274368 16.1632261,40.629588 C17.3579978,39.5317393 18.6125081,38.3690177 19.9267569,37.1414233 C21.2410058,35.9138288 22.5950804,34.6463125 23.9889807,33.3388745 C25.382881,32.0314365 26.5477834,30.9236073 27.4836879,30.015387 C28.4195924,29.1071667 28.917414,28.6031544 28.9771526,28.5033499 Z M48.3173554,26.9355372 C48.3173554,30.9427591 47.2806612,34.6409663 45.2072727,38.0301589 C45.1474634,37.9902861 44.9780038,37.8806357 44.6988938,37.7012079 C44.4197839,37.52178 44.1556262,37.3573045 43.9064209,37.2077813 C43.6572155,37.0582581 43.49274,36.9834965 43.4129943,36.9834965 C43.1538207,36.9834965 43.0242339,37.1130833 43.0242339,37.3722568 C43.0242339,37.5716211 43.6123586,38.0102225 44.7886078,38.688061 C43.3133121,40.9209409 41.4741767,42.8198856 39.2712015,44.3848951 C37.0682263,45.9499046 34.6609027,47.0513922 32.0492308,47.6893579 L31.5707565,45.685747 C31.5508201,45.4863827 31.4012969,45.3867006 31.1221869,45.3867006 C31.0225048,45.3867006 30.9427591,45.4415257 30.8829498,45.5511761 C30.8231405,45.6608264 30.8032041,45.7555245 30.8231405,45.8352702 L31.3016147,47.8687858 C29.866192,48.1678322 28.4108328,48.3173554 26.9355372,48.3173554 C22.9681882,48.3173554 19.2600127,47.2706929 15.8110108,45.1773681 C15.8309472,45.1374952 15.960534,44.9331469 16.1997711,44.5643229 C16.4390083,44.195499 16.6533249,43.8615639 16.8427209,43.5625175 C17.032117,43.2634711 17.126815,43.074075 17.126815,42.9943293 C17.126815,42.7351558 16.9972282,42.605569 16.7380547,42.605569 C16.6184361,42.605569 16.4489765,42.7501081 16.2296758,43.0391863 C16.0103751,43.3282645 15.7860903,43.6721678 15.5568214,44.0708964 C15.3275524,44.4696249 15.1929816,44.6988938 15.1531087,44.7587031 C12.9002924,43.2634711 10.9863954,41.394431 9.41141767,39.151583 C7.83643992,36.9087349 6.73993643,34.4715067 6.12190718,31.8398983 L8.1853274,31.3913287 C8.38469167,31.3315194 8.48437381,31.1819962 8.48437381,30.9427591 C8.48437381,30.8430769 8.42954863,30.7633312 8.31989828,30.7035219 C8.21024793,30.6437127 8.10558169,30.6237762 8.00589955,30.6437127 L5.97238398,31.0922823 C5.693274,29.6568595 5.55371901,28.2712778 5.55371901,26.9355372 C5.55371901,22.8286332 6.64025429,19.0506802 8.81332486,15.6016783 C8.85319771,15.6216147 9.03760966,15.7412333 9.36656071,15.960534 C9.69551176,16.1798347 9.99455817,16.3692308 10.2636999,16.5287222 C10.5328417,16.6882136 10.7072854,16.7679593 10.7870312,16.7679593 C11.0462047,16.7679593 11.1757915,16.6483408 11.1757915,16.4091036 C11.1757915,16.2894851 11.0511888,16.1349777 10.8019835,15.9455817 C10.5527781,15.7561856 10.2288112,15.541869 9.83008264,15.3026319 L9.23198983,14.9437762 C10.7670947,12.7108964 12.6510871,10.826904 14.8839669,9.29179911 C17.1168468,7.75669421 19.5490909,6.69009536 22.1806993,6.09200254 L22.6292689,8.09561348 C22.6691418,8.29497775 22.818665,8.39465989 23.0778385,8.39465989 C23.1775207,8.39465989 23.2572664,8.33983471 23.3170757,8.23018436 C23.3768849,8.12053401 23.3968214,8.01586777 23.3768849,7.91618563 L22.9283153,5.94247934 C24.3438017,5.68330579 25.6795423,5.55371901 26.9355372,5.55371901 C31.0025683,5.55371901 34.7805213,6.64025429 38.2693961,8.81332486 C37.4918754,9.92976478 37.1031151,10.5776987 37.1031151,10.7571265 C37.1031151,11.0163001 37.2227336,11.1458868 37.4619708,11.1458868 C37.6812715,11.1458868 38.1597457,10.5079212 38.8973935,9.23198983 C41.1103369,10.7272219 42.979377,12.5813096 44.5045137,14.794253 C46.0296503,17.0071964 47.1012333,19.4095359 47.7192626,22.0012715 L46.0446027,22.3601271 C45.8452384,22.4 45.7455563,22.5594914 45.7455563,22.8386014 C45.7455563,22.9382835 45.8003814,23.0180292 45.9100318,23.0778385 C46.0196821,23.1376478 46.1143802,23.1575842 46.1941259,23.1376478 L47.8986904,22.7488875 C48.1778004,24.1843102 48.3173554,25.5798601 48.3173554,26.9355372 Z M50.8165289,26.9355372 C50.8165289,23.6917025 50.1846777,20.597124 48.9209752,17.6518017 C47.6572727,14.7064793 45.9607273,12.169124 43.8313388,10.0397355 C41.7019504,7.91034711 39.164595,6.21380165 36.2192727,4.95009917 C33.2739504,3.68639669 30.1793719,3.05454545 26.9355372,3.05454545 C23.6917025,3.05454545 20.597124,3.68639669 17.6518017,4.95009917 C14.7064793,6.21380165 12.169124,7.91034711 10.0397355,10.0397355 C7.91034711,12.169124 6.21380165,14.7064793 4.95009917,17.6518017 C3.68639669,20.597124 3.05454545,23.6917025 3.05454545,26.9355372 C3.05454545,30.1793719 3.68639669,33.2739504 4.95009917,36.2192727 C6.21380165,39.164595 7.91034711,41.7019504 10.0397355,43.8313388 C12.169124,45.9607273 14.7064793,47.6572727 17.6518017,48.9209752 C20.597124,50.1846777 23.6917025,50.8165289 26.9355372,50.8165289 C30.1793719,50.8165289 33.2739504,50.1846777 36.2192727,48.9209752 C39.164595,47.6572727 41.7019504,45.9607273 43.8313388,43.8313388 C45.9607273,41.7019504 47.6572727,39.164595 48.9209752,36.2192727 C50.1846777,33.2739504 50.8165289,30.1793719 50.8165289,26.9355372 Z M53.5933884,26.7966942 C53.5933884,30.4254132 52.8855888,33.8946281 51.4699897,37.2043388 C50.0543905,40.5140496 48.1503099,43.365186 45.7577479,45.7577479 C43.365186,48.1503099 40.5140496,50.0543905 37.2043388,51.4699897 C33.8946281,52.8855888 30.4254132,53.5933884 26.7966942,53.5933884 C23.1679752,53.5933884 19.6987603,52.8855888 16.3890496,51.4699897 C13.0793388,50.0543905 10.2282025,48.1503099 7.8356405,45.7577479 C5.44307851,43.365186 3.53899793,40.5140496 2.12339876,37.2043388 C0.707799587,33.8946281 0,30.4254132 0,26.7966942 C0,23.1679752 0.707799587,19.6987603 2.12339876,16.3890496 C3.53899793,13.0793388 5.44307851,10.2282025 7.8356405,7.8356405 C10.2282025,5.44307851 13.0793388,3.53899793 16.3890496,2.12339876 C19.6987603,0.707799587 23.1679752,0 26.7966942,0 C30.4254132,0 33.8946281,0.707799587 37.2043388,2.12339876 C40.5140496,3.53899793 43.365186,5.44307851 45.7577479,7.8356405 C48.1503099,10.2282025 50.0543905,13.0793388 51.4699897,16.3890496 C52.8855888,19.6987603 53.5933884,23.1679752 53.5933884,26.7966942 Z" id="Shape"></path>
                            </g>
                        </g>
                    </g>
                    <path d="M236.541734,31.7803088 C236.670783,52.870898 235.606601,65.6465224 233.349187,70.1071821 C231.091773,74.5678419 232.759198,75.7489899 238.351463,73.6506261 C240.644756,87.3960335 245.502253,92.998896 252.923955,90.4592134 C260.345657,87.9195309 264.331308,82.4747471 264.880908,74.1248622 C264.816705,69.9939725 265.353654,67.9285277 266.491753,67.9285277" id="Path-93" stroke="#142434" stroke-width="0.555371901"></path>
                    <ellipse id="Oval" fill="url(#linearGradient-7)" cx="115.795041" cy="110.935537" rx="15.8280992" ry="15.6892562"></ellipse>
                    <polygon id="Path-43" fill="#142434" points="146.397476 155.803775 126.853286 129.447989 120.532733 134.06394 118.289649 111.039558 142.182618 119.002891 134.250525 124.144987 154.657482 149.701627"></polygon>
                </g>
                <ellipse id="Oval" stroke="#142434" stroke-width="1.1107438" cx="235.703288" cy="55.9404746" rx="4.34865331" ry="4.34535356"></ellipse>
            </g>
        </g>
    </g>
</svg>