<svg width="100" height="130" alt="Live - Interactive cross browser testing" viewBox="0 0 243 324" version="1.1" xmlns="http://www.w3.org/2000/svg" xmlns:xlink="http://www.w3.org/1999/xlink">
    <!-- Generator: Sketch 60 (88103) - https://sketch.com -->
    <title>Group 5</title>
    <desc>Created with Sketch.</desc>
    <defs>
        <linearGradient x1="50%" y1="0%" x2="50%" y2="100%" id="linearGradient-1">
            <stop stop-color="#FAD961" offset="0%"></stop>
            <stop stop-color="#F76B1C" offset="100%"></stop>
        </linearGradient>
    </defs>
    <g id="Illustration" stroke="none" stroke-width="1" fill="none" fill-rule="evenodd">
        <g id="App-Live" transform="translate(-102.000000, -43.000000)">
            <g id="Group-5" transform="translate(76.000000, 23.000000)">
                <g id="Group-4">
                    <g id="Group-3">
                        <g id="Group" transform="translate(150.306731, 182.977418) scale(-1, 1) rotate(6.000000) translate(-150.306731, -182.977418) translate(17.806731, 12.977418)">
                            <path d="M35.6414824,9.07107559 L201.496817,9.05010223 C207.552617,9.04656526 212.462435,13.9551413 212.463201,20.0109425 C212.463201,20.0118663 212.463201,20.0127902 212.46043,20.0137137 L212.423668,311.06712 C212.420131,317.121839 207.512003,322.029967 201.457285,322.033505 L35.6019508,322.054478 C29.54615,322.058015 24.6363324,317.149439 24.6355666,311.093638 C24.6355665,311.092714 24.6355665,311.09179 24.6383378,311.090867 L24.6750995,20.0374602 C24.6786361,13.9827417 29.5867639,9.07461312 35.6414824,9.07107559 Z" id="Rectangle" fill="#243E56" transform="translate(118.549384, 165.552290) rotate(-6.000000) translate(-118.549384, -165.552290) "></path>
                            <path d="M46.8148029,22.1848511 L192.26449,22.1677125 C197.632132,22.1645775 201.984016,26.5153608 201.984694,31.8830027 C201.984694,31.8838216 201.984694,31.8846404 201.982238,31.885459 L201.947186,319.336925 C201.944655,323.668622 201.493041,325.239342 200.645625,326.82301 C199.798209,328.406679 198.555199,329.64969 196.97153,330.497106 C195.387862,331.344522 193.817142,331.796137 189.485445,331.798668 L44.0357578,331.815806 C38.6681161,331.818941 34.3162323,327.468158 34.3155536,322.100516 C34.3155535,322.099697 34.3155535,322.098878 34.3180099,322.09806 L34.3530623,34.6465936 C34.3555924,30.3148963 34.8072072,28.744177 35.654623,27.1605082 C36.5020388,25.5768394 37.745049,24.333829 39.3287177,23.486413 C40.9123864,22.638997 42.4831056,22.1873819 46.8148029,22.1848511 Z" id="Rectangle" fill="#FFFFFF" transform="translate(118.150124, 176.991759) rotate(-6.000000) translate(-118.150124, -176.991759) "></path>
                            <g id="Group-2" transform="translate(206.415279, 125.426327) rotate(-14.000000) translate(-206.415279, -125.426327) translate(174.915279, 85.926327)">
                                <path d="M15.5466165,16.4934017 C13.6513884,35.7874338 12.0007687,46.9718859 10.5947573,50.0467581 C9.18874592,53.1216302 10.247761,53.8743106 13.7718026,52.3047992 C15.5464741,61.7766419 19.0261647,65.2043849 24.2108744,62.5880283 C24.4293037,63.4897816 30.5858317,68.5674996 25.9496794,73.70791 C33.8282865,74.5070384 40.0704408,73.2113533 44.6761423,69.8208547 L43.3147779,56.7933789 C35.6766401,56.2651848 31.2493387,51.18085 30.0328738,41.5403744 C35.1964156,40.2173137 36.3496149,37.5482854 33.4924718,33.5332895 C31.1478666,31.3340769 28.3390085,31.9878901 25.0658974,35.494729 C20.4186997,29.1610096 17.245606,22.8272338 15.5466165,16.4934017 Z" id="Path-7" fill="#FFC7AE" transform="translate(27.334712, 45.214975) rotate(23.000000) translate(-27.334712, -45.214975) "></path>
                                <path d="M30.3915228,36.7235227 C24.9346316,29.895631 20.7515848,26.4802564 17.8423824,26.4773992 C13.4785787,26.4731134 3.64615946,11.2454172 19.6659419,7.27661014 C30.3457968,4.63073875 38.7023296,8.11618333 44.7355403,17.7329439 C50.5342011,17.1834334 53.4361373,19.5668088 53.4413487,24.8830701 C53.4491658,32.8574619 55.3346274,52.815955 48.7116083,57.7649378 C40.5368,57.6360047 36.0998401,52.3911365 35.4007285,42.0303332 C39.8843664,41.557927 41.1860092,39.2493414 39.3056569,35.1045763 C37.0007009,32.2995942 34.0293229,32.839243 30.3915228,36.7235227 Z" id="Path-3" fill="#142434" transform="translate(32.267552, 32.092605) rotate(23.000000) translate(-32.267552, -32.092605) "></path>
                                <path d="M24.8952198,36.4525816 C28.4030711,28.7956365 32.5085151,27.7204474 37.2115518,33.2270144 C44.2661068,41.486865 37.2108302,57.0940888 48.5384388,54.4955586" id="Path-4" stroke="#4987AD" stroke-width="0.557620818" transform="translate(36.716829, 42.277771) rotate(23.000000) translate(-36.716829, -42.277771) "></path>
                                <path d="M24.4169203,33.5550239 C27.6998914,25.8075968 32.3895782,23.5111575 38.4859805,26.6657059 C47.630584,31.3975285 45.7092089,48.3494697 52.2514429,47.6356573" id="Path-5" stroke="#4987AD" stroke-width="0.557620818" transform="translate(38.334182, 36.477034) rotate(23.000000) translate(-38.334182, -36.477034) "></path>
                                <path d="M22.769705,7.39991015 C20.2550887,10.6135905 20.1192042,13.6534769 22.3620516,16.5195694 C25.7263225,20.8187081 29.7485708,19.6390963 28.815695,19.3081351 C27.8828192,18.9771739 22.2017914,18.0815121 23.6614715,14.0918298 C26.1074267,7.16888462 25.8101712,4.93824473 22.769705,7.39991015 Z" id="Path-6" fill="#4987AD" transform="translate(24.864263, 13.069513) rotate(23.000000) translate(-24.864263, -13.069513) "></path>
                                <ellipse id="Oval" fill="#4987AD" transform="translate(28.495410, 23.786199) rotate(31.000000) translate(-28.495410, -23.786199) " cx="28.4954101" cy="23.7861988" rx="1.10433797" ry="1"></ellipse>
                                <ellipse id="Oval" stroke="#142434" stroke-width="0.557620818" transform="translate(22.443713, 38.604488) rotate(23.000000) translate(-22.443713, -38.604488) " cx="22.443713" cy="38.6044877" rx="2.75999606" ry="2.76523141"></ellipse>
                                <ellipse id="Oval" stroke="#142434" stroke-width="0.557620818" transform="translate(14.926706, 35.404991) rotate(23.000000) translate(-14.926706, -35.404991) " cx="14.9267061" cy="35.404991" rx="2.75999606" ry="2.76523141"></ellipse>
                                <path d="M15.7718081,60.5725215 C18.580215,59.1398307 19.9839146,57.9095171 19.9829069,56.881581 C19.9813954,55.3396767 21.0289752,67.9884527 18.4086238,72.6782838 C18.1257838,67.7103349 17.2468452,63.6750809 15.7718081,60.5725215 Z" id="Path-27" fill="#E19A7A" transform="translate(17.980135, 64.715206) rotate(23.000000) translate(-17.980135, -64.715206) "></path>
                                <line x1="33.224142" y1="37.1872185" x2="33.2249129" y2="40.0630572" id="Path-28" stroke="#142434" stroke-width="0.557620818" transform="translate(33.224527, 38.625138) rotate(23.000000) translate(-33.224527, -38.625138) "></line>
                                <line x1="31.5773496" y1="38.5814869" x2="34.668543" y2="38.5823159" id="Path-29" stroke="#142434" stroke-width="0.557620818" transform="translate(33.122946, 38.581901) rotate(23.000000) translate(-33.122946, -38.581901) "></line>
                            </g>
                            <path d="M8.75600337,36.1307944 L156.327498,36.112133 C160.181189,36.1098822 163.305619,39.2335215 163.306106,43.0872131 C163.306106,43.087801 163.306106,43.0883889 163.304342,43.0889766 L163.301342,66.8420146 C163.299092,70.6950173 160.175738,73.8183719 156.322735,73.820623 L8.7512406,73.8392844 C4.89754916,73.8415352 1.77311977,70.7178959 1.77263244,66.8642043 C1.77263237,66.8636164 1.77263237,66.8630285 1.77439592,66.8624408 L1.77739604,43.1094028 C1.77964662,39.2564001 4.90300068,36.1330456 8.75600337,36.1307944 Z" id="Rectangle" fill="#91D5FF" transform="translate(82.539369, 54.975709) rotate(-6.000000) translate(-82.539369, -54.975709) "></path>
                            <path d="M85.7789849,101.270445 L159.235266,101.261157 C162.240844,101.260776 164.677655,103.696971 164.678035,106.702549 C164.678035,106.703007 164.678035,106.703466 164.678035,106.703924 C164.677655,109.710485 162.240452,112.147689 159.233891,112.148069 L85.7776098,112.157358 C82.7720318,112.157738 80.3352213,109.721544 80.3348412,106.715965 C80.3348411,106.715507 80.3348411,106.715048 80.3348412,106.71459 C80.3352209,103.70803 82.7724246,101.270826 85.7789849,101.270445 Z" id="Rectangle" fill="#DDDDDD" transform="translate(122.506438, 106.709257) rotate(-6.000000) translate(-122.506438, -106.709257) "></path>
                            <path d="M66.0648203,17.6336158 L139.521102,17.624327 C142.52668,17.6239469 144.96349,20.0601412 144.96387,23.0657193 C144.96387,23.0661778 144.96387,23.0666363 144.96387,23.0670948 C144.963491,26.0736552 142.526287,28.5108592 139.519727,28.5112394 L66.0634452,28.5205282 C63.0578672,28.5209083 60.6210566,26.084714 60.6206766,23.0791359 C60.6206765,23.0786774 60.6206765,23.0782189 60.6206766,23.0777604 C60.6210563,20.0712 63.0582599,17.633996 66.0648203,17.6336158 Z" id="Rectangle" fill="#243E56" transform="translate(102.792273, 23.072428) rotate(-6.000000) translate(-102.792273, -23.072428) "></path>
                            <path d="M88.9656414,141.7882 L162.421923,141.778912 C165.427501,141.778531 167.864311,144.214726 167.864691,147.220304 C167.864692,147.220762 167.864692,147.221221 167.864691,147.221679 C167.864312,150.22824 165.427108,152.665444 162.420548,152.665824 L88.9642663,152.675113 C85.9586883,152.675493 83.5218778,150.239299 83.5214977,147.23372 C83.5214976,147.233262 83.5214976,147.232803 83.5214977,147.232345 C83.5218774,144.225785 85.9590811,141.788581 88.9656414,141.7882 Z" id="Rectangle" fill="#DDDDDD" transform="translate(125.693095, 147.227012) rotate(-6.000000) translate(-125.693095, -147.227012) "></path>
                            <path d="M92.8604523,181.430394 L166.316734,181.421105 C169.322312,181.420725 171.759122,183.856919 171.759502,186.862497 C171.759502,186.862956 171.759502,186.863414 171.759502,186.863873 C171.759123,189.870433 169.321919,192.307637 166.315359,192.308017 L92.8590772,192.317306 C89.8534992,192.317686 87.4166886,189.881492 87.4163086,186.875914 C87.4163085,186.875455 87.4163085,186.874997 87.4163086,186.874538 C87.4166883,183.867978 89.8538919,181.430774 92.8604523,181.430394 Z" id="Rectangle" fill="#DDDDDD" transform="translate(129.587905, 186.869206) rotate(-6.000000) translate(-129.587905, -186.869206) "></path>
                            <path d="M59.0523388,47.2669651 L136.487098,47.2571732 C139.492676,47.2567932 141.929486,49.6929875 141.929866,52.6985655 C141.929867,52.6990241 141.929867,52.6994826 141.929866,52.6999411 C141.929487,55.7065015 139.492283,58.1437054 136.485723,58.1440856 L59.0509637,58.1538776 C56.0453856,58.1542576 53.6085751,55.7180633 53.608195,52.7124852 C53.608195,52.7120267 53.608195,52.7115682 53.608195,52.7111097 C53.6085748,49.7045493 56.0457784,47.2673453 59.0523388,47.2669651 Z" id="Rectangle" fill="#F9F9F9" transform="translate(97.769031, 52.705525) rotate(-6.000000) translate(-97.769031, -52.705525) "></path>
                            <path d="M97.5054017,218.056498 L170.961683,218.047209 C173.967261,218.046829 176.404072,220.483023 176.404452,223.488601 C176.404452,223.48906 176.404452,223.489518 176.404452,223.489977 C176.404072,226.496537 173.966868,228.933741 170.960308,228.934122 L97.5040266,228.94341 C94.4984485,228.94379 92.061638,226.507596 92.0612579,223.502018 C92.0612579,223.50156 92.0612579,223.501101 92.0612579,223.500643 C92.0616377,220.494082 94.4988413,218.056878 97.5054017,218.056498 Z" id="Rectangle" fill="#DDDDDD" transform="translate(134.232855, 223.495310) rotate(-6.000000) translate(-134.232855, -223.495310) "></path>
                            <path d="M101.206975,257.66708 L174.663256,257.657791 C177.668834,257.657411 180.105644,260.093605 180.106025,263.099184 C180.106025,263.099642 180.106025,263.100101 180.106025,263.100559 C180.105645,266.107119 177.668441,268.544323 174.661881,268.544704 L101.205599,268.553992 C98.2000214,268.554373 95.7632108,266.118178 95.7628308,263.1126 C95.7628307,263.112142 95.7628307,263.111683 95.7628308,263.111225 C95.7632105,260.104664 98.2004141,257.66746 101.206975,257.66708 Z" id="Rectangle" fill="#DDDDDD" transform="translate(137.934428, 263.105892) rotate(-6.000000) translate(-137.934428, -263.105892) "></path>
                            <path d="M195.237282,263.911761 C190.49612,267.758246 188.915732,272.156327 190.49612,277.106003 C192.866701,284.530518 266.270626,271.9699 263.843284,263.167363 C262.225056,257.299005 248.865743,253.84472 223.765345,252.804508 L195.237282,263.911761 Z" id="Path-96" fill="#004F80"></path>
                            <path d="M234.461831,253.33561 L245.490348,304.055843 C254.443386,301.099293 259.784976,298.103149 261.51512,295.067412 C261.078489,292.346598 260.811172,280.343961 260.713168,259.059501 L250.490046,254.012828 L234.461831,253.33561 Z" id="Path-95" fill="#243E56"></path>
                            <path d="M194.412356,259.632654 C199.694607,292.736567 203.08872,311.221092 204.594695,315.08623 C206.10067,318.951367 220.508562,315.091991 247.818372,303.508102 L244.676147,283.738036 C250.375446,277.772536 252.323975,267.907866 250.521734,254.144025 C230.623961,248.497723 211.920834,250.327267 194.412356,259.632654 Z" id="Path-92" fill="#142434"></path>
                            <path d="M218.017676,250.945652 C222.407968,289.256115 225.413889,309.437987 227.035439,311.491269" id="Path-94" stroke="#979797" stroke-width="0.557620818"></path>
                            <path d="M223.9927,159.885094 C189.485462,157.979444 167.9538,154.607992 159.397713,149.770738 C157.317727,150.366728 151.042159,161.104228 140.571008,181.983236 C158.26562,186.286068 172.290805,187.474107 182.646562,185.547354 C182.646562,195.90913 188.969668,278.215463 190.558419,276.969645 C191.962612,279.131682 177.6146,258.189944 234.332125,254.464738 C255.325592,255.981733 264.928064,259.654538 263.139541,265.483152 C267.134671,259.874265 261.872288,243.851981 247.352391,217.416301 C240.740314,201.16682 232.95375,181.989751 223.9927,159.885094 Z" id="Path-88" fill="#8FD4FF"></path>
                            <path d="M123.497204,87.9675145 C128.937377,76.3577266 132.434678,69.5399448 133.989106,67.5141691 C136.320749,64.4755056 139.5973,58.0887622 137.549993,58.7792831 C136.185121,59.2396304 133.689359,61.7365385 130.062708,66.2700075 C132.968397,50.5123992 133.82727,42.633595 132.639326,42.633595 C131.451382,42.633595 129.919644,47.4970764 128.044111,57.2240392 C128.752068,44.5675713 128.752068,38.2393374 128.044111,38.2393374 C127.336154,38.2393374 126.218884,43.9843086 124.692298,55.474251 C124.954561,46.2019644 124.708187,41.5658211 123.953177,41.5658211 C122.820661,41.5658211 120.996279,53.7244629 120.996279,55.474251 C120.996279,57.2240392 121.202892,46.0796523 120.325369,46.0796523 C119.447847,46.0796523 119.107043,42.9533291 117.247728,56.3729764 C115.998183,58.936233 113.818466,69.7019305 110.708578,88.6700687 C100.952754,144.049484 111.268721,175.126929 141.656479,181.902404 C145.440918,173.328158 151.356164,162.585849 159.402218,149.675477 C150.574608,147.900124 125.577454,140.740192 123.497204,87.9675145 Z" id="Path-89" fill="#FFC7AE"></path>
                            <path d="M221.996101,158.53392 C231.840909,176.203889 237.464239,185.808988 238.866092,187.349217 C240.267946,188.889445 242.955102,192.383463 246.927562,197.831271 L240.716402,202.349827 L221.996101,158.53392 Z" id="Path-90" fill="#8FD4FF"></path>
                            <path d="M247.011034,197.56991 C255.613928,209.278532 260.657939,215.396277 262.143066,215.923145 C264.394567,222.458864 257.346955,226.000928 252.936751,227.311617 C251.29463,226.61121 247.25815,218.211787 240.827311,202.113349" id="Path-91" fill="#FFC7AE"></path>
                            <path d="M184.228319,214.034069 C177.367182,218.307491 172.920432,220.408559 170.888068,220.337271 C167.839522,220.23034 162.61588,220.047115 161.226272,219.998373 C159.836664,219.949631 149.467672,222.200997 147.829189,222.143526 C146.190707,222.086054 150.161831,227.643897 158.700604,225.234128 C161.311316,228.070734 163.580293,228.998402 165.507533,228.017132 L174.225321,237.137002 L177.579321,231.658687 L185.394593,228.714692 L184.228319,214.034069 Z" id="Path-97" fill="#FFC7AE"></path>
                            <path d="M212.979174,159.48279 L223.9927,159.885094 C237.870295,197.073814 247.548137,219.604163 253.026226,227.476141 C260.264031,244.015742 269.546431,263.938276 260.670181,266.856876" id="Path-2" stroke="#142434" stroke-width="0.557620818" stroke-linecap="round"></path>
                        </g>
                        <ellipse id="Oval" fill="#D8D8D8" cx="226.942886" cy="119.078775" rx="5.37730206" ry="5.38131198"></ellipse>
                        <ellipse id="Oval" fill="#FFFFFF" cx="252.86424" cy="61.954079" rx="5.37730206" ry="5.38131198"></ellipse>
                        <ellipse id="Oval" fill="#D8D8D8" cx="226.942886" cy="159.093659" rx="5.37730206" ry="5.38131198"></ellipse>
                        <ellipse id="Oval" fill="#D8D8D8" cx="226.942886" cy="199.660473" rx="5.37730206" ry="5.38131198"></ellipse>
                        <ellipse id="Oval" fill="#D8D8D8" cx="226.942886" cy="236.36378" rx="5.37730206" ry="5.38131198"></ellipse>
                        <ellipse id="Oval" fill="#D8D8D8" cx="226.942886" cy="276.930594" rx="5.37730206" ry="5.38131198"></ellipse>
                        <path d="M124.58253,234.323578 L149.176521,234.337951 C152.201919,234.339719 154.654048,236.791847 154.655815,239.817246 L154.67019,264.423154 C154.671959,267.451054 152.218795,269.907086 149.190895,269.908855 C149.188759,269.908856 149.186624,269.908856 149.184488,269.908855 L124.590497,269.894482 C121.565099,269.892714 119.11297,267.440585 119.111203,264.415187 L119.096828,239.809279 C119.095059,236.781379 121.548223,234.325347 124.576123,234.323578 C124.578259,234.323576 124.580394,234.323576 124.58253,234.323578 Z" id="Rectangle" fill="#FFFFFF" transform="translate(136.883509, 252.116216) rotate(37.000000) translate(-136.883509, -252.116216) "></path>
                        <path d="M125.570382,234.251261 L163.692802,234.273553 C166.7182,234.275322 169.170328,236.727452 169.172094,239.75285 L169.194037,277.333418 C169.195805,280.361318 166.74264,282.817349 163.71474,282.819117 C163.712604,282.819118 163.710468,282.819118 163.708333,282.819117 L125.585913,282.796825 C122.560515,282.795056 120.108387,280.342927 120.106621,277.317528 L120.084678,239.73696 C120.08291,236.70906 122.536075,234.253029 125.563975,234.251261 C125.566111,234.25126 125.568246,234.25126 125.570382,234.251261 Z" id="Rectangle-Copy" fill="#142434" transform="translate(144.639357, 258.535189) rotate(37.000000) translate(-144.639357, -258.535189) "></path>
                        <path d="M124.467346,229.283896 L162.589765,229.306188 C165.615164,229.307957 168.067291,231.760087 168.069058,234.785485 L168.091,272.366053 C168.092768,275.393953 165.639603,277.849984 162.611703,277.851752 C162.609568,277.851753 162.607432,277.851753 162.605296,277.851752 L124.482877,277.82946 C121.457478,277.827691 119.005351,275.375562 119.003584,272.350163 L118.981642,234.769596 C118.979874,231.741695 121.433039,229.285664 124.460939,229.283896 C124.463074,229.283895 124.46521,229.283895 124.467346,229.283896 Z" id="Rectangle" fill="url(#linearGradient-1)" transform="translate(143.536321, 253.567824) rotate(37.000000) translate(-143.536321, -253.567824) "></path>
                        <g id="noun_App_1935524" transform="translate(124.665866, 233.974329)" fill="#FFFFFF" fill-rule="nonzero">
                            <path d="M7.58064947,7.53292698 L7.58064947,15.9028459 L15.7914169,15.9028459 L15.7914169,7.53292698 L7.58064947,7.53292698 Z M7.58064947,5.44044728 L15.7914169,5.44044728 C16.9250872,5.44044728 17.8441087,6.37728235 17.8441087,7.53292698 L17.8441087,15.9028459 C17.8441087,17.0584905 16.9250872,17.9953256 15.7914169,17.9953256 L7.58064947,17.9953256 C6.44697908,17.9953256 5.52795764,17.0584905 5.52795764,15.9028459 L5.52795764,7.53292698 C5.52795764,6.37728235 6.44697908,5.44044728 7.58064947,5.44044728 Z M7.58064947,22.1802851 L7.58064947,30.5502039 L15.7914169,30.5502039 L15.7914169,22.1802851 L7.58064947,22.1802851 Z M7.58064947,20.0878053 L15.7914169,20.0878053 C16.3358246,20.0878053 16.8579348,20.3082624 17.2428892,20.7006784 C17.6278436,21.0930945 17.8441087,21.6253249 17.8441087,22.1802851 L17.8441087,30.5502039 C17.8441087,31.1051641 17.6278436,31.6373945 17.2428892,32.0298106 C16.8579348,32.4222266 16.3358246,32.6426837 15.7914169,32.6426837 L7.58064947,32.6426837 C7.03624174,32.6426837 6.51413153,32.4222266 6.12917714,32.0298106 C5.74422275,31.6373945 5.52795764,31.1051641 5.52795764,30.5502039 L5.52795764,22.1802851 C5.52795764,21.6253249 5.74422275,21.0930945 6.12917714,20.7006784 C6.51413153,20.3082624 7.03624174,20.0878053 7.58064947,20.0878053 Z M26.0548761,7.53292698 C23.7875353,7.53292698 21.9494924,9.40659716 21.9494924,11.7178864 C21.9494924,14.0291757 23.7875353,15.9028459 26.0548761,15.9028459 C28.3222168,15.9028459 30.1602596,14.0291757 30.1602596,11.7178864 C30.1602596,9.4065972 28.3222168,7.53292698 26.0548761,7.53292698 L26.0548761,7.53292698 Z M26.0548761,5.44044728 C28.2549446,5.44044728 30.2878917,6.63692037 31.387926,8.57916682 C32.4879603,10.5214133 32.4879603,12.9143596 31.387926,14.8566061 C30.2878917,16.7988525 28.2549446,17.9953256 26.0548761,17.9953256 C22.6538649,17.9953256 19.8968007,15.1848203 19.8968007,11.7178864 C19.8968007,8.25095258 22.6538649,5.44044728 26.0548761,5.44044728 L26.0548761,5.44044728 Z M21.9494924,22.1802851 L21.9494924,30.5502039 L30.1602597,30.5502039 L30.1602597,22.1802851 L21.9494924,22.1802851 Z M21.9494924,20.0878053 L30.1602597,20.0878053 C30.7046675,20.0878053 31.2267777,20.3082623 31.6117321,20.7006784 C31.9966865,21.0930945 32.2129516,21.6253249 32.2129516,22.1802851 L32.2129516,30.5502039 C32.2129516,31.1051641 31.9966865,31.6373945 31.6117321,32.0298106 C31.2267777,32.4222266 30.7046675,32.6426837 30.1602597,32.6426837 L21.9494924,32.6426837 C21.4050846,32.6426837 20.8829744,32.4222266 20.49802,32.0298106 C20.1130656,31.6373945 19.8968005,31.1051641 19.8968005,30.5502039 L19.8968005,22.1802851 C19.8968005,21.6253249 20.1130656,21.0930945 20.49802,20.7006784 C20.8829744,20.3082623 21.4050846,20.0878053 21.9494924,20.0878053 Z" id="Shape" transform="translate(18.870455, 19.041565) rotate(36.000000) translate(-18.870455, -19.041565) "></path>
                        </g>
                        <polyline id="Path-8" stroke="#142434" stroke-width="0.557620818" transform="translate(162.353969, 169.262430) rotate(-26.000000) translate(-162.353969, -169.262430) " points="154.963815 164.976792 169.744122 178.904797 161.773827 159.620063"></polyline>
                        <line x1="159.79555" y1="154.540242" x2="178.822927" y2="163.371113" id="Path-9" stroke="#142434" stroke-width="0.557620818"></line>
                        <line x1="159.79555" y1="146.81323" x2="178.822927" y2="155.6441" id="Path-9" stroke="#142434" stroke-width="0.557620818"></line>
                    </g>
                    <path d="M74.6005554,240.641233 C74.4572587,244.075461 75.3716019,245.220203 77.343585,244.075461" id="Path-30" stroke="#004F80" stroke-width="0.557620818" stroke-linecap="round"></path>
                    <path d="M97.4871029,289.211024 C97.3581359,292.645251 98.1810448,293.789994 99.9558296,292.645251" id="Path-30" stroke="#004F80" stroke-width="0.557620818" stroke-linecap="round"></path>
                    <path d="M51.6979905,260.510693 C48.9460098,261.970508 48.4826808,263.258343 50.3080035,264.374199" id="Path-30" stroke="#004F80" stroke-width="0.557620818" stroke-linecap="round"></path>
                    <path d="M83.1345257,264.098234 C80.0767693,265.662322 79.5619593,267.042145 81.5900957,268.237705" id="Path-30" stroke="#004F80" stroke-width="0.557620818" stroke-linecap="round"></path>
                    <path d="M62.7283538,210.561079 C59.6705974,212.020894 59.1557874,213.308729 61.1839237,214.424585" id="Path-30" stroke="#004F80" stroke-width="0.557620818" stroke-linecap="round"></path>
                    <path d="M117.328652,183.792502 C114.270895,185.356589 113.756085,186.736412 115.784222,187.931972" id="Path-30" stroke="#004F80" stroke-width="0.557620818" stroke-linecap="round"></path>
                    <path d="M92.5103344,220.495809 C89.7583537,222.059896 89.2950247,223.43972 91.1203474,224.63528" id="Path-30" stroke="#004F80" stroke-width="0.557620818" stroke-linecap="round"></path>
                    <path d="M74.7151028,183.792502 C72.2065168,194.77756 81.3554499,201.492701 102.161902,203.937926" id="Path-124" stroke="#FFFFFF" stroke-width="0.557620818"></path>
                    <path d="M117.604411,167.997929 L121.409916,165.57883 C128.214022,175.087206 133.947453,181.791669 142.422728,195.676544 L136.899123,198.418632 L129.405369,186.037345 L132.959547,183.916531 L129.405369,184.86218 L131.527391,180.9418 L129.405369,183.141929 C123.849046,174.707882 120.780133,170.490859 120.198629,170.490859 C119.617125,170.490859 120.332754,170.089648 122.345516,169.287224" id="Path-125" stroke="#142434" stroke-width="0.557620818"></path>
                    <path d="M82.9285373,131.083241 C87.8890537,143.19262 91.0690682,150.366876 92.4685808,152.606009 C94.9006306,155.209816 94.2098387,156.324715 90.3962052,155.950706 C91.2641241,163.795227 89.5521517,167.979845 85.2602881,168.504562 C81.5554539,168.999582 79.0084726,167.822022 77.6193441,164.971884" id="Path-126" stroke="#142434" stroke-width="0.557620818"></path>
                    <path d="M137.19777,58.50452 C137.115201,57.1848818 137.386139,57.0484418 138.010583,58.0951998" id="Path-127" stroke="#FFFFFF" stroke-width="0.557620818"></path>
                    <path d="M146.320716,67.5209926 C145.086358,58.7503637 144.777768,54.3650493 145.394947,54.3650493 C146.012127,54.3650493 147.400331,58.603403 149.559561,67.0801104 C149.189462,60.6554236 149.363085,57.6115412 150.08043,57.9484631 C150.797775,58.285385 151.952828,61.6840959 153.545588,68.1445956 C157.716895,79.5224297 160.077679,86.972508 160.627939,90.4948302 C161.669127,93.6436825 163.195041,98.0258029 164.874472,105.305222 C171.387416,132.446009 182.451792,181.116653 142.422728,195.658984" id="Path-128" stroke="#142434" stroke-width="0.557620818"></path>
                </g>
            </g>
        </g>
    </g>
</svg>