<?xml version="1.0" ?><svg width="64" height="79" viewBox="0 0 64 79" fill="none" xmlns="http://www.w3.org/2000/svg">
<path d="M61.3918 9.31665C58.7059 8.66834 51.6671 6.90864 46.6659 5.70463C42.3129 4.59324 38.6083 3.7597 35.9224 3.11139C34.348 2.74093 33.1439 2.46308 32.3104 2.27785C31.9399 2.18523 31.1852 2 31 2C31.1852 2 31.2916 2.09262 31.5695 2C23.3267 4.03755 7.11891 8.02003 2.39551 9.22403C2.39551 21.6345 2.39551 21.6345 2.39551 34.1377C2.39551 38.3054 2.39551 38.3054 2.39551 42.4731C2.39551 43.8623 2.58074 45.4368 2.85859 47.0113C3.69213 51.8273 5.91491 56.2728 9.43431 60.3479C15.0839 67.0163 22.4931 72.0175 31.9399 76C31.9399 76 32.1252 76 32.2178 76C40.7384 72.388 47.6846 67.8498 53.149 62.015C58.7059 56.0876 61.4844 49.6045 61.4844 42.1952C61.3918 38.7685 61.3918 33.9524 61.3918 28.1176C61.3918 23.0238 61.3918 17.5594 61.3918 12.1877C61.3918 11.169 61.3918 10.0576 61.3918 9.31665Z" stroke="#1B8BFF" stroke-width="2.775"/>
<path d="M53.931 17.3392C51.931 16.8661 46.6897 15.582 42.9655 14.7034C39.7241 13.8924 36.9655 13.2841 34.9655 12.811C33.7931 12.5407 32.8966 12.3379 32.2759 12.2028C32 12.1352 31.7241 12.0676 31.5862 12.0676C31.7241 12.0676 31.5172 12.0676 31.7241 12C25.5862 13.4869 13.5172 16.393 10 17.2716C10 26.3279 10 26.3279 10 35.4518C10 38.4931 10 38.4931 10 41.5344C10 42.5482 10.1379 43.6971 10.3448 44.8461C10.9655 48.3605 12.6207 51.6045 15.2414 54.5782C19.4483 59.4443 24.9655 63.0939 32 66C32 66 32.1379 66 32.2069 66C38.5517 63.3642 43.7241 60.0526 47.7931 55.7947C51.931 51.4693 54 46.7384 54 41.3317C53.931 38.831 53.931 35.3166 53.931 31.0588C53.931 27.3417 53.931 23.3542 53.931 19.4343C53.931 18.6909 53.931 17.8798 53.931 17.3392Z" fill="#223C54" stroke="#223C54" stroke-width="2.02"/>
<path d="M28.3035 48.2498L20.0455 39.7788L23.7992 35.9814L28.3035 40.5577L42.2857 26.0498L45.9455 29.9445L28.3035 48.2498Z" fill="white"/>
</svg>
